CSLSans-Italic[wght].glyphspackage
{
glyphname = exclam;
layers = (
{
hints = (
{
horizontal = 1;
place = (-12,176);
type = Stem;
},
{
place = (107,61);
type = Stem;
}
);
layerId = "0AD2E2E0-FC0D-4C67-836B-444215FA4DDA";
shapes = (
{
closed = 1;
nodes = (
(253,504,l),
(281,698,l),
(128,698,l),
(101,504,l),
(107,220,l),
(168,220,l)
);
},
{
closed = 1;
nodes = (
(165,-12,o),
(195,21,o),
(201,64,c),
(205,88,l),
(211,131,o),
(190,164,o),
(128,164,cs),
(66,164,o),
(36,131,o),
(30,88,cs),
(27,64,ls),
(21,21,o),
(41,-12,o),
(103,-12,cs)
);
}
);
width = 291;
},
{
hints = (
{
horizontal = 1;
place = (-12,138);
type = Stem;
},
{
place = (47,130);
type = Stem;
},
{
place = (111,43);
type = Stem;
}
);
layerId = "E22AC71D-DB87-48BC-8161-A09275C341BE";
shapes = (
{
closed = 1;
nodes = (
(224,497,l),
(253,698,l),
(154,698,l),
(125,497,l),
(111,192,l),
(154,192,l)
);
},
{
closed = 1;
nodes = (
(149,-12,o),
(172,13,o),
(177,49,cs),
(179,65,ls),
(184,101,o),
(168,126,o),
(122,126,cs),
(78,126,o),
(54,101,o),
(49,65,cs),
(47,49,ls),
(42,13,o),
(59,-12,o),
(103,-12,cs)
);
}
);
width = 291;
},
{
hints = (
{
horizontal = 1;
place = (-5,58);
type = Stem;
},
{
place = (83,52);
type = Stem;
}
);
layerId = "CC8B04B6-4F30-41C2-BC1D-B124A9E292F1";
shapes = (
{
closed = 1;
nodes = (
(175,415,l),
(215,698,l),
(193,698,l),
(153,415,l),
(125,176,l),
(136,176,l)
);
},
{
closed = 1;
nodes = (
(122,-5,o),
(133,4,o),
(135,20,cs),
(136,28,ls),
(138,44,o),
(132,53,o),
(113,53,cs),
(96,53,o),
(85,44,o),
(83,28,cs),
(82,20,ls),
(80,4,o),
(88,-5,o),
(105,-5,cs)
);
}
);
width = 291;
}
);
unicode = 33;
}
{
glyphname = quotedbl;
layers = (
{
hints = (
{
horizontal = 1;
place = (414,326);
type = Stem;
}
);
layerId = "C5FC3DAF-4290-4CD4-AD90-77B56B79BFFD";
shapes = (
{
closed = 1;
nodes = (
(235,740,l),
(106,740,l),
(60,414,l),
(189,414,l)
);
},
{
closed = 1;
nodes = (
(455,740,l),
(326,740,l),
(280,414,l),
(410,414,l)
);
}
);
width = 433;
},
{
hints = (
{
horizontal = 1;
place = (451,289);
type = Stem;
},
{
place = (108,304);
type = Stem;
}
);
layerId = "38727D70-1DA2-45B2-A346-FCEACAA78F51";
shapes = (
{
closed = 1;
nodes = (
(230,740,l),
(149,740,l),
(108,451,l),
(189,451,l)
);
},
{
closed = 1;
nodes = (
(412,740,l),
(331,740,l),
(290,451,l),
(372,451,l)
);
}
);
width = 433;
},
{
hints = (
{
horizontal = 1;
place = (490,250);
type = Stem;
},
{
place = (159,205);
type = Stem;
}
);
layerId = "7766A055-9583-43BA-9BBE-7DA8199C50F9";
shapes = (
{
closed = 1;
nodes = (
(214,740,l),
(194,740,l),
(159,490,l),
(179,490,l)
);
},
{
closed = 1;
nodes = (
(364,740,l),
(344,740,l),
(309,490,l),
(329,490,l)
);
}
);
width = 433;
}
);
leftKerningGroup = minute2;
rightKerningGroup = minute;
unicode = 34;
}
{
glyphname = numbersign;
layers = (
{
hints = (
{
horizontal = 1;
place = (0,21);
target = up;
type = BottomGhost;
},
{
horizontal = 1;
place = (173,90);
type = Stem;
},
{
horizontal = 1;
place = (435,90);
type = Stem;
}
);
layerId = "0AD2E2E0-FC0D-4C67-836B-444215FA4DDA";
shapes = (
{
closed = 1;
nodes = (
(420,0,l),
(473,173,l),
(588,173,l),
(601,263,l),
(502,263,l),
(554,435,l),
(669,435,l),
(682,525,l),
(583,525,l),
(636,698,l),
(544,698,l),
(491,525,l),
(334,525,l),
(387,698,l),
(296,698,l),
(243,525,l),
(128,525,l),
(115,435,l),
(214,435,l),
(162,263,l),
(47,263,l),
(34,173,l),
(133,173,l),
(80,0,l),
(172,0,l),
(225,173,l),
(382,173,l),
(329,0,l)
);
},
{
closed = 1;
nodes = (
(306,435,l),
(463,435,l),
(410,263,l),
(253,263,l)
);
}
);
width = 698;
},
{
hints = (
{
horizontal = 1;
place = (0,21);
target = up;
type = BottomGhost;
},
{
horizontal = 1;
place = (199,66);
type = Stem;
},
{
horizontal = 1;
place = (433,66);
type = Stem;
}
);
layerId = "E22AC71D-DB87-48BC-8161-A09275C341BE";
shapes = (
{
closed = 1;
nodes = (
(392,0,l),
(454,199,l),
(585,199,l),
(595,265,l),
(474,265,l),
(525,433,l),
(657,433,l),
(667,499,l),
(546,499,l),
(607,698,l),
(540,698,l),
(478,499,l),
(326,499,l),
(387,698,l),
(319,698,l),
(258,499,l),
(127,499,l),
(117,433,l),
(237,433,l),
(186,265,l),
(55,265,l),
(45,199,l),
(166,199,l),
(104,0,l),
(171,0,l),
(234,199,l),
(385,199,l),
(324,0,l)
);
},
{
closed = 1;
nodes = (
(306,433,l),
(458,433,l),
(405,265,l),
(254,265,l)
);
}
);
width = 698;
},
{
hints = (
{
horizontal = 1;
place = (0,21);
target = up;
type = BottomGhost;
},
{
horizontal = 1;
place = (220,19);
type = Stem;
},
{
horizontal = 1;
place = (459,19);
type = Stem;
}
);
layerId = "CC8B04B6-4F30-41C2-BC1D-B124A9E292F1";
shapes = (
{
closed = 1;
nodes = (
(362,0,l),
(430,220,l),
(582,220,l),
(584,239,l),
(435,239,l),
(502,459,l),
(653,459,l),
(656,478,l),
(509,478,l),
(577,698,l),
(557,698,l),
(488,478,l),
(306,478,l),
(374,698,l),
(354,698,l),
(286,478,l),
(134,478,l),
(131,459,l),
(280,459,l),
(213,239,l),
(62,239,l),
(59,220,l),
(206,220,l),
(138,0,l),
(159,0,l),
(227,220,l),
(409,220,l),
(341,0,l)
);
},
{
closed = 1;
nodes = (
(301,459,l),
(483,459,l),
(415,239,l),
(232,239,l)
);
}
);
width = 698;
}
);
unicode = 35;
}
{
glyphname = dollar;
layers = (
{
hints = (
{
horizontal = 1;
place = (8,111);
type = Stem;
},
{
horizontal = 1;
place = (580,110);
type = Stem;
}
);
layerId = "C5FC3DAF-4290-4CD4-AD90-77B56B79BFFD";
shapes = (
{
closed = 1;
nodes = (
(330,53,l),
(321,73,l),
(399,625,l),
(413,645,l),
(432,780,l),
(320,780,l),
(301,645,l),
(311,625,l),
(234,73,l),
(218,53,l),
(199,-82,l),
(311,-82,l)
);
},
{
closed = 1;
nodes = (
(376,8,o),
(459,53,o),
(504,117,cs),
(526,149,o),
(539,182,o),
(544,217,cs),
(554,286,o),
(531,335,o),
(474,368,cs),
(446,385,o),
(409,398,o),
(364,409,cs),
(289,427,ls),
(254,436,o),
(234,448,o),
(226,467,cs),
(222,476,o),
(220,487,o),
(222,500,cs),
(225,521,o),
(236,539,o),
(254,556,cs),
(271,572,o),
(300,580,o),
(342,580,cs),
(380,580,o),
(412,573,o),
(435,558,cs),
(457,543,o),
(474,528,o),
(485,514,c),
(586,596,l),
(549,649,o),
(481,690,o),
(368,690,cs),
(246,690,o),
(168,652,o),
(126,593,cs),
(105,564,o),
(92,531,o),
(87,496,cs),
(78,431,o),
(96,380,o),
(155,344,cs),
(185,325,o),
(226,310,o),
(278,298,cs),
(341,284,ls),
(383,275,o),
(401,257,o),
(406,237,cs),
(408,226,o),
(408,216,o),
(407,206,cs),
(403,179,o),
(388,151,o),
(352,133,cs),
(334,124,o),
(309,119,o),
(280,119,cs),
(225,119,o),
(184,135,o),
(153,159,cs),
(138,171,o),
(124,184,o),
(113,197,c),
(13,115,l),
(40,78,o),
(83,43,o),
(145,23,cs),
(176,13,o),
(211,8,o),
(251,8,cs)
);
}
);
width = 599;
},
{
hints = (
{
horizontal = 1;
place = (0,79);
type = Stem;
},
{
horizontal = 1;
place = (620,78);
type = Stem;
}
);
layerId = "38727D70-1DA2-45B2-A346-FCEACAA78F51";
shapes = (
{
closed = 1;
nodes = (
(303,38,l),
(302,50,l),
(386,648,l),
(391,660,l),
(408,780,l),
(337,780,l),
(320,660,l),
(321,648,l),
(237,50,l),
(233,38,l),
(216,-82,l),
(286,-82,l)
);
},
{
closed = 1;
nodes = (
(358,0,o),
(435,36,o),
(483,97,cs),
(507,128,o),
(521,163,o),
(527,203,cs),
(537,274,o),
(517,321,o),
(463,354,cs),
(435,371,o),
(398,384,o),
(353,395,cs),
(298,408,ls),
(249,420,o),
(217,436,o),
(202,465,cs),
(195,480,o),
(192,498,o),
(195,519,cs),
(199,548,o),
(215,572,o),
(241,591,cs),
(267,610,o),
(304,620,o),
(351,620,cs),
(390,620,o),
(422,611,o),
(447,594,cs),
(472,576,o),
(490,556,o),
(503,535,c),
(576,588,l),
(539,652,o),
(472,698,o),
(367,698,cs),
(266,698,o),
(190,665,o),
(147,610,cs),
(124,582,o),
(111,550,o),
(106,514,cs),
(96,446,o),
(117,397,o),
(172,363,cs),
(200,346,o),
(235,332,o),
(280,322,cs),
(335,311,ls),
(391,299,o),
(421,278,o),
(434,249,cs),
(440,234,o),
(441,217,o),
(438,197,cs),
(431,150,o),
(400,114,o),
(353,94,cs),
(329,84,o),
(303,79,o),
(274,79,cs),
(220,79,o),
(176,97,o),
(144,127,cs),
(127,142,o),
(114,158,o),
(102,177,c),
(30,118,l),
(56,74,o),
(98,37,o),
(158,16,cs),
(188,5,o),
(222,0,o),
(260,0,cs)
);
}
);
width = 599;
},
{
hints = (
{
horizontal = 1;
place = (0,20);
type = Stem;
},
{
horizontal = 1;
place = (678,20);
type = Stem;
}
);
layerId = "7766A055-9583-43BA-9BBE-7DA8199C50F9";
shapes = (
{
closed = 1;
nodes = (
(275,6,l),
(276,14,l),
(370,684,l),
(371,692,l),
(384,780,l),
(364,780,l),
(352,692,l),
(350,684,l),
(256,14,l),
(255,6,l),
(243,-82,l),
(262,-82,l)
);
},
{
closed = 1;
nodes = (
(351,0,o),
(418,29,o),
(458,85,cs),
(478,112,o),
(492,146,o),
(497,185,cs),
(504,238,o),
(497,288,o),
(452,324,cs),
(430,342,o),
(396,355,o),
(350,364,cs),
(286,376,ls),
(230,387,o),
(180,406,o),
(155,447,cs),
(143,468,o),
(140,495,o),
(145,530,cs),
(152,579,o),
(172,616,o),
(208,641,cs),
(244,666,o),
(293,678,o),
(357,678,cs),
(400,678,o),
(435,670,o),
(462,655,cs),
(489,639,o),
(509,617,o),
(524,590,c),
(544,603,l),
(516,656,o),
(458,698,o),
(359,698,cs),
(269,698,o),
(202,673,o),
(162,624,cs),
(142,599,o),
(128,568,o),
(123,530,cs),
(116,478,o),
(128,430,o),
(175,396,cs),
(198,379,o),
(231,366,o),
(276,357,cs),
(341,345,ls),
(395,336,o),
(443,317,o),
(466,274,cs),
(478,253,o),
(480,223,o),
(475,184,cs),
(465,115,o),
(431,66,o),
(372,40,cs),
(342,27,o),
(306,20,o),
(265,20,cs),
(193,20,o),
(147,40,o),
(113,72,cs),
(97,88,o),
(81,106,o),
(68,127,c),
(49,114,l),
(75,71,o),
(110,35,o),
(164,15,cs),
(191,5,o),
(224,0,o),
(262,0,cs)
);
}
);
width = 599;
}
);
unicode = 36;
}
{
glyphname = percent;
layers = (
{
hints = (
{
horizontal = 1;
place = (-12,86);
type = Stem;
},
{
horizontal = 1;
place = (0,21);
target = up;
type = BottomGhost;
},
{
horizontal = 1;
place = (298,86);
type = Stem;
},
{
horizontal = 1;
place = (314,86);
type = Stem;
},
{
horizontal = 1;
place = (624,86);
type = Stem;
}
);
layerId = "0AD2E2E0-FC0D-4C67-836B-444215FA4DDA";
shapes = (
{
closed = 1;
nodes = (
(828,698,l),
(699,698,l),
(127,0,l),
(256,0,l)
);
},
{
closed = 1;
nodes = (
(296,314,o),
(353,344,o),
(389,403,cs),
(407,432,o),
(419,469,o),
(425,512,cs),
(437,599,o),
(417,658,o),
(369,688,cs),
(345,703,o),
(314,710,o),
(276,710,cs),
(201,710,o),
(144,680,o),
(108,621,cs),
(90,592,o),
(78,555,o),
(72,512,cs),
(60,425,o),
(80,367,o),
(128,337,cs),
(152,322,o),
(183,314,o),
(221,314,cs)
);
},
{
closed = 1;
nodes = (
(210,400,o),
(197,412,o),
(193,437,cs),
(191,450,o),
(191,466,o),
(194,486,cs),
(201,538,ls),
(207,578,o),
(219,603,o),
(236,615,cs),
(244,621,o),
(253,624,o),
(264,624,cs),
(287,624,o),
(300,612,o),
(304,587,cs),
(306,574,o),
(306,558,o),
(303,538,cs),
(296,486,ls),
(290,446,o),
(279,421,o),
(263,409,cs),
(254,403,o),
(244,400,o),
(233,400,cs)
);
},
{
closed = 1;
nodes = (
(754,-12,o),
(811,18,o),
(847,77,cs),
(865,106,o),
(877,143,o),
(883,186,cs),
(895,273,o),
(875,332,o),
(827,362,cs),
(803,377,o),
(772,384,o),
(734,384,cs),
(659,384,o),
(602,354,o),
(566,295,cs),
(548,266,o),
(536,229,o),
(530,186,cs),
(518,99,o),
(538,41,o),
(586,11,cs),
(610,-5,o),
(641,-12,o),
(679,-12,cs)
);
},
{
closed = 1;
nodes = (
(668,74,o),
(655,86,o),
(651,111,cs),
(649,124,o),
(649,140,o),
(652,160,cs),
(659,212,ls),
(665,252,o),
(677,277,o),
(694,289,cs),
(702,295,o),
(711,298,o),
(722,298,cs),
(745,298,o),
(758,286,o),
(762,261,cs),
(764,248,o),
(764,232,o),
(761,212,cs),
(754,160,ls),
(748,120,o),
(736,95,o),
(720,83,cs),
(711,77,o),
(702,74,o),
(691,74,cs)
);
}
);
width = 936;
},
{
hints = (
{
horizontal = 1;
place = (-12,58);
type = Stem;
},
{
horizontal = 1;
place = (0,21);
target = up;
type = BottomGhost;
},
{
horizontal = 1;
place = (314,58);
type = Stem;
},
{
horizontal = 1;
place = (326,58);
type = Stem;
},
{
horizontal = 1;
place = (652,58);
type = Stem;
}
);
layerId = "E22AC71D-DB87-48BC-8161-A09275C341BE";
shapes = (
{
closed = 1;
nodes = (
(807,698,l),
(720,698,l),
(148,0,l),
(234,0,l)
);
},
{
closed = 1;
nodes = (
(303,314,o),
(354,345,o),
(387,404,cs),
(404,433,o),
(415,469,o),
(421,512,cs),
(433,597,o),
(416,656,o),
(373,687,cs),
(352,702,o),
(323,710,o),
(289,710,cs),
(222,710,o),
(169,679,o),
(136,620,cs),
(119,591,o),
(108,555,o),
(102,512,cs),
(90,427,o),
(107,368,o),
(151,337,cs),
(172,322,o),
(200,314,o),
(233,314,cs)
);
},
{
closed = 1;
nodes = (
(207,372,o),
(186,389,o),
(180,422,c),
(176,438,o),
(176,458,o),
(180,483,cs),
(188,541,ls),
(195,590,o),
(210,623,o),
(236,640,cs),
(249,648,o),
(264,652,o),
(281,652,cs),
(316,652,o),
(337,635,o),
(344,603,cs),
(347,586,o),
(348,566,o),
(344,541,cs),
(335,483,ls),
(328,434,o),
(312,401,o),
(287,385,cs),
(274,376,o),
(259,372,o),
(241,372,cs)
);
},
{
closed = 1;
nodes = (
(734,-12,o),
(786,19,o),
(819,78,cs),
(836,107,o),
(846,143,o),
(852,186,cs),
(864,271,o),
(847,330,o),
(804,361,cs),
(783,376,o),
(755,384,o),
(721,384,cs),
(653,384,o),
(601,353,o),
(568,294,cs),
(551,265,o),
(540,229,o),
(534,186,cs),
(522,101,o),
(539,42,o),
(583,11,cs),
(604,-4,o),
(632,-12,o),
(666,-12,cs)
);
},
{
closed = 1;
nodes = (
(639,46,o),
(618,63,o),
(611,96,cs),
(607,112,o),
(607,132,o),
(611,157,cs),
(619,215,ls),
(626,264,o),
(642,297,o),
(668,314,cs),
(680,322,o),
(695,326,o),
(713,326,cs),
(747,326,o),
(768,309,o),
(775,277,cs),
(778,260,o),
(779,240,o),
(775,215,cs),
(767,157,ls),
(760,108,o),
(744,75,o),
(719,59,cs),
(706,50,o),
(691,46,o),
(674,46,cs)
);
}
);
width = 936;
},
{
hints = (
{
horizontal = 1;
place = (-12,17);
type = Stem;
},
{
horizontal = 1;
place = (0,21);
target = up;
type = BottomGhost;
},
{
horizontal = 1;
place = (326,17);
type = Stem;
},
{
horizontal = 1;
place = (355,17);
type = Stem;
},
{
horizontal = 1;
place = (693,17);
type = Stem;
}
);
layerId = "CC8B04B6-4F30-41C2-BC1D-B124A9E292F1";
shapes = (
{
closed = 1;
nodes = (
(774,698,l),
(751,698,l),
(179,0,l),
(201,0,l)
);
},
{
closed = 1;
nodes = (
(305,326,o),
(353,351,o),
(386,408,cs),
(403,436,o),
(414,473,o),
(420,518,cs),
(433,610,o),
(413,665,o),
(375,691,cs),
(356,704,o),
(333,710,o),
(308,710,cs),
(258,710,o),
(210,685,o),
(177,629,cs),
(160,601,o),
(148,564,o),
(142,518,cs),
(129,427,o),
(149,372,o),
(188,346,cs),
(207,333,o),
(230,326,o),
(254,326,cs)
);
},
{
closed = 1;
nodes = (
(216,343,o),
(181,363,o),
(165,410,cs),
(157,433,o),
(156,464,o),
(161,502,cs),
(165,534,ls),
(176,610,o),
(207,656,o),
(246,677,cs),
(265,688,o),
(284,693,o),
(305,693,cs),
(345,693,o),
(381,673,o),
(397,626,cs),
(405,603,o),
(406,572,o),
(401,534,cs),
(396,502,ls),
(385,426,o),
(354,380,o),
(316,359,cs),
(296,348,o),
(277,343,o),
(256,343,cs)
);
},
{
closed = 1;
nodes = (
(696,-12,o),
(744,13,o),
(777,70,cs),
(794,98,o),
(805,135,o),
(811,180,cs),
(824,272,o),
(804,327,o),
(766,353,cs),
(747,366,o),
(724,372,o),
(699,372,cs),
(649,372,o),
(601,347,o),
(568,291,cs),
(551,263,o),
(539,226,o),
(533,180,cs),
(520,89,o),
(541,34,o),
(580,8,c),
(599,-6,o),
(621,-12,o),
(645,-12,cs)
);
},
{
closed = 1;
nodes = (
(608,5,o),
(572,25,o),
(556,72,cs),
(548,95,o),
(547,126,o),
(552,164,cs),
(557,196,ls),
(568,272,o),
(599,318,o),
(638,339,cs),
(657,350,o),
(676,355,o),
(697,355,cs),
(737,355,o),
(772,335,o),
(788,288,cs),
(796,265,o),
(797,234,o),
(792,196,cs),
(788,164,ls),
(777,88,o),
(746,42,o),
(708,21,cs),
(688,10,o),
(669,5,o),
(648,5,cs)
);
}
);
width = 936;
}
);
unicode = 37;
}
{
glyphname = ampersand;
layers = (
{
hints = (
{
horizontal = 1;
place = (-12,123);
type = Stem;
},
{
horizontal = 1;
place = (0,21);
target = up;
type = BottomGhost;
},
{
horizontal = 1;
place = (262,123);
type = Stem;
},
{
horizontal = 1;
place = (597,113);
type = Stem;
}
);
layerId = "C5FC3DAF-4290-4CD4-AD90-77B56B79BFFD";
shapes = (
{
closed = 1;
nodes = (
(659,0,l),
(544,151,l),
(567,183,o),
(587,221,o),
(604,262,c),
(666,262,l),
(683,385,l),
(519,385,l),
(509,338,o),
(494,289,o),
(471,246,c),
(382,363,l),
(436,394,o),
(484,428,o),
(515,473,cs),
(531,495,o),
(540,521,o),
(544,550,cs),
(554,618,o),
(523,667,o),
(468,692,c),
(439,704,o),
(407,710,o),
(370,710,cs),
(287,710,o),
(219,678,o),
(179,627,cs),
(159,602,o),
(146,574,o),
(142,543,cs),
(133,479,o),
(163,421,o),
(195,377,c),
(139,346,o),
(90,312,o),
(60,266,cs),
(45,243,o),
(34,215,o),
(30,183,cs),
(19,108,o),
(46,48,o),
(111,14,c),
(143,-4,o),
(185,-12,o),
(235,-12,cs),
(299,-12,o),
(348,2,o),
(387,23,cs),
(407,34,o),
(425,45,o),
(440,56,c),
(442,56,l),
(484,0,l)
);
},
{
closed = 1;
nodes = (
(374,597,o),
(391,587,o),
(401,571,c),
(405,562,o),
(407,552,o),
(405,540,c),
(404,536,l),
(400,509,o),
(387,489,o),
(365,470,c),
(353,461,o),
(338,451,o),
(321,442,c),
(299,473,o),
(285,493,o),
(281,510,c),
(278,519,o),
(278,527,o),
(279,536,c),
(279,540,l),
(284,576,o),
(315,597,o),
(350,597,cs)
);
},
{
closed = 1;
nodes = (
(239,111,o),
(213,119,o),
(198,136,cs),
(183,153,o),
(176,174,o),
(180,199,c),
(182,209,l),
(185,233,o),
(195,252,o),
(216,271,cs),
(226,280,o),
(239,289,o),
(255,298,c),
(377,139,l),
(359,127,o),
(336,119,o),
(312,115,c),
(300,112,o),
(287,111,o),
(274,111,cs)
);
}
);
width = 699;
},
{
hints = (
{
horizontal = 1;
place = (-12,80);
type = Stem;
},
{
horizontal = 1;
place = (0,21);
target = up;
type = BottomGhost;
},
{
horizontal = 1;
place = (292,78);
type = Stem;
},
{
horizontal = 1;
place = (634,76);
type = Stem;
}
);
layerId = "38727D70-1DA2-45B2-A346-FCEACAA78F51";
shapes = (
{
closed = 1;
nodes = (
(631,0,l),
(517,146,l),
(543,187,o),
(567,237,o),
(584,292,c),
(652,292,l),
(663,370,l),
(524,370,l),
(513,314,o),
(496,256,o),
(470,207,c),
(347,366,l),
(407,399,o),
(461,434,o),
(495,479,cs),
(512,501,o),
(523,527,o),
(527,558,cs),
(536,619,o),
(510,666,o),
(463,691,cs),
(439,704,o),
(411,710,o),
(378,710,cs),
(304,710,o),
(244,678,o),
(206,627,cs),
(187,602,o),
(175,573,o),
(171,542,cs),
(162,481,o),
(188,427,o),
(225,378,c),
(173,351,o),
(124,318,o),
(91,270,cs),
(74,245,o),
(63,216,o),
(58,181,cs),
(48,110,o),
(73,49,o),
(132,14,cs),
(162,-3,o),
(199,-12,o),
(245,-12,cs),
(317,-12,o),
(371,11,o),
(409,38,cs),
(427,51,o),
(443,64,o),
(455,76,c),
(457,76,l),
(514,0,l)
);
},
{
closed = 1;
nodes = (
(394,634,o),
(421,621,o),
(433,598,cs),
(439,586,o),
(441,572,o),
(439,555,cs),
(438,544,l),
(433,509,o),
(405,480,o),
(367,454,cs),
(349,441,o),
(328,429,o),
(306,418,c),
(284,449,o),
(269,475,o),
(262,500,cs),
(259,512,o),
(257,524,o),
(259,537,c),
(261,547,l),
(268,598,o),
(311,634,o),
(363,634,cs)
);
},
{
closed = 1;
nodes = (
(226,68,o),
(196,78,o),
(176,99,c),
(155,119,o),
(147,146,o),
(152,181,cs),
(154,195,ls),
(161,242,o),
(182,271,o),
(214,295,cs),
(229,306,o),
(247,317,o),
(265,326,c),
(414,132,l),
(388,105,o),
(359,87,o),
(323,76,cs),
(306,71,o),
(287,68,o),
(266,68,cs)
);
}
);
width = 699;
},
{
hints = (
{
horizontal = 1;
place = (-12,20);
type = Stem;
},
{
horizontal = 1;
place = (0,21);
target = up;
type = BottomGhost;
},
{
horizontal = 1;
place = (331,20);
type = Stem;
},
{
horizontal = 1;
place = (691,19);
type = Stem;
}
);
layerId = "7766A055-9583-43BA-9BBE-7DA8199C50F9";
shapes = (
{
closed = 1;
nodes = (
(604,0,l),
(493,135,l),
(525,191,o),
(546,258,o),
(557,331,c),
(645,331,l),
(648,351,l),
(541,351,l),
(530,275,o),
(511,204,o),
(481,149,c),
(296,367,l),
(379,404,o),
(443,439,o),
(482,487,cs),
(501,510,o),
(513,538,o),
(517,570,cs),
(524,622,o),
(504,667,o),
(461,692,cs),
(439,704,o),
(412,710,o),
(380,710,cs),
(312,710,o),
(257,683,o),
(224,636,cs),
(207,613,o),
(196,585,o),
(192,554,cs),
(183,489,o),
(211,440,o),
(263,371,c),
(199,342,o),
(142,308,o),
(105,259,cs),
(87,234,o),
(74,203,o),
(69,166,cs),
(59,95,o),
(85,39,o),
(140,10,cs),
(167,-5,o),
(201,-12,o),
(241,-12,cs),
(311,-12,o),
(370,11,o),
(418,49,cs),
(441,68,o),
(462,90,o),
(479,115,c),
(481,115,l),
(577,0,l)
);
},
{
closed = 1;
nodes = (
(425,691,o),
(465,672,o),
(485,637,cs),
(495,620,o),
(499,599,o),
(495,574,cs),
(493,560,ls),
(486,509,o),
(447,468,o),
(387,432,cs),
(357,414,o),
(323,397,o),
(284,380,c),
(255,419,o),
(230,454,o),
(219,491,cs),
(213,509,o),
(211,527,o),
(214,546,c),
(216,564,l),
(226,635,o),
(287,691,o),
(377,691,cs)
);
},
{
closed = 1;
nodes = (
(194,8,o),
(154,22,o),
(125,49,cs),
(95,76,o),
(84,111,o),
(90,156,cs),
(93,176,ls),
(102,241,o),
(139,282,o),
(192,314,cs),
(218,329,o),
(245,344,o),
(275,358,c),
(469,129,l),
(435,78,o),
(390,41,o),
(335,22,cs),
(307,13,o),
(277,8,o),
(244,8,cs)
);
}
);
width = 699;
}
);
unicode = 38;
}
{
glyphname = quotesingle;
layers = (
{
hints = (
{
horizontal = 1;
place = (414,326);
type = Stem;
},
{
place = (76,175);
type = Stem;
}
);
layerId = "C5FC3DAF-4290-4CD4-AD90-77B56B79BFFD";
shapes = (
{
closed = 1;
nodes = (
(251,740,l),
(122,740,l),
(76,414,l),
(205,414,l)
);
}
);
width = 247;
},
{
hints = (
{
horizontal = 1;
place = (451,289);
type = Stem;
},
{
place = (106,122);
type = Stem;
}
);
layerId = "38727D70-1DA2-45B2-A346-FCEACAA78F51";
shapes = (
{
closed = 1;
nodes = (
(228,740,l),
(147,740,l),
(106,451,l),
(187,451,l)
);
}
);
width = 247;
},
{
hints = (
{
horizontal = 1;
place = (490,250);
type = Stem;
},
{
place = (142,54);
type = Stem;
}
);
layerId = "7766A055-9583-43BA-9BBE-7DA8199C50F9";
shapes = (
{
closed = 1;
nodes = (
(196,740,l),
(177,740,l),
(142,490,l),
(161,490,l)
);
}
);
width = 247;
}
);
leftKerningGroup = minute2;
rightKerningGroup = minute;
unicode = 39;
}
{
glyphname = parenleft;
layers = (
{
layerId = "0AD2E2E0-FC0D-4C67-836B-444215FA4DDA";
shapes = (
{
closed = 1;
nodes = (
(24,183,o),
(40,64,o),
(79,-28,cs),
(98,-73,o),
(122,-110,o),
(149,-138,c),
(286,-138,l),
(226,-73,o),
(185,11,o),
(172,112,c),
(164,163,o),
(166,217,o),
(174,276,cs),
(184,346,ls),
(200,459,o),
(242,561,o),
(306,646,cs),
(338,689,o),
(373,727,o),
(412,760,c),
(276,760,l),
(202,703,o),
(136,609,o),
(90,495,cs),
(67,438,o),
(51,377,o),
(42,312,cs)
);
}
);
width = 336;
},
{
layerId = "E22AC71D-DB87-48BC-8161-A09275C341BE";
shapes = (
{
closed = 1;
nodes = (
(59,183,o),
(77,64,o),
(118,-27,cs),
(138,-72,o),
(162,-109,o),
(190,-137,c),
(277,-137,l),
(215,-73,o),
(174,20,o),
(159,121,cs),
(151,171,o),
(151,221,o),
(158,270,cs),
(169,352,ls),
(183,449,o),
(228,554,o),
(293,643,cs),
(326,688,o),
(362,727,o),
(403,760,c),
(317,760,l),
(242,703,o),
(173,609,o),
(126,495,cs),
(102,438,o),
(86,377,o),
(77,312,cs)
);
}
);
width = 336;
},
{
layerId = "CC8B04B6-4F30-41C2-BC1D-B124A9E292F1";
shapes = (
{
closed = 1;
nodes = (
(90,175,o),
(112,59,o),
(155,-29,cs),
(176,-73,o),
(200,-109,o),
(226,-138,c),
(251,-138,l),
(196,-79,o),
(148,10,o),
(129,120,cs),
(119,175,o),
(118,233,o),
(127,294,cs),
(132,328,ls),
(149,452,o),
(204,563,o),
(272,651,cs),
(307,695,o),
(341,731,o),
(377,760,c),
(352,760,l),
(284,704,o),
(213,614,o),
(162,499,cs),
(136,442,o),
(119,379,o),
(109,311,cs)
);
}
);
width = 336;
}
);
unicode = 40;
}
{
glyphname = parenright;
layers = (
{
layerId = "C5FC3DAF-4290-4CD4-AD90-77B56B79BFFD";
shapes = (
{
closed = 1;
nodes = (
(321,443,o),
(304,559,o),
(266,650,cs),
(247,695,o),
(223,732,o),
(195,760,c),
(58,760,l),
(119,696,o),
(159,611,o),
(173,510,cs),
(180,459,o),
(178,405,o),
(170,346,cs),
(161,276,ls),
(145,163,o),
(102,61,o),
(39,-24,cs),
(7,-67,o),
(-28,-105,o),
(-68,-138,c),
(68,-138,l),
(142,-79,o),
(208,14,o),
(255,130,cs),
(278,187,o),
(294,248,o),
(303,312,cs)
);
}
);
width = 336;
},
{
layerId = "38727D70-1DA2-45B2-A346-FCEACAA78F51";
shapes = (
{
closed = 1;
nodes = (
(284,441,o),
(268,557,o),
(227,649,cs),
(207,694,o),
(182,731,o),
(154,760,c),
(66,760,l),
(130,693,o),
(171,601,o),
(186,501,cs),
(194,451,o),
(193,401,o),
(186,352,cs),
(175,270,ls),
(161,173,o),
(117,69,o),
(50,-22,cs),
(17,-67,o),
(-20,-105,o),
(-60,-137,c),
(27,-137,l),
(101,-81,o),
(169,12,o),
(217,128,cs),
(241,186,o),
(257,247,o),
(266,312,cs)
);
}
);
width = 336;
},
{
layerId = "7766A055-9583-43BA-9BBE-7DA8199C50F9";
shapes = (
{
closed = 1;
nodes = (
(254,447,o),
(231,563,o),
(189,652,cs),
(168,696,o),
(144,732,o),
(118,760,c),
(93,760,l),
(149,703,o),
(196,612,o),
(216,503,c),
(225,448,o),
(226,390,o),
(217,328,cs),
(212,294,ls),
(195,171,o),
(140,59,o),
(72,-29,cs),
(38,-72,o),
(3,-109,o),
(-33,-138,c),
(-9,-138,l),
(59,-81,o),
(131,8,o),
(182,123,cs),
(208,180,o),
(225,243,o),
(235,311,cs)
);
}
);
width = 336;
}
);
unicode = 41;
}
{
glyphname = asterisk;
layers = (
{
layerId = "C5FC3DAF-4290-4CD4-AD90-77B56B79BFFD";
shapes = (
{
closed = 1;
nodes = (
(224,560,l),
(222,558,l),
(63,630,l),
(9,516,l),
(179,462,l),
(179,459,l),
(35,308,l),
(127,238,l),
(254,400,l),
(256,400,l),
(339,239,l),
(450,308,l),
(350,459,l),
(351,462,l),
(535,516,l),
(513,630,l),
(335,558,l),
(333,560,l),
(368,747,l),
(242,747,l)
);
}
);
width = 479;
},
{
hints = (
{
place = (265,79);
type = Stem;
}
);
layerId = "38727D70-1DA2-45B2-A346-FCEACAA78F51";
shapes = (
{
closed = 1;
nodes = (
(249,595,l),
(247,593,l),
(114,647,l),
(79,571,l),
(218,530,l),
(219,527,l),
(107,406,l),
(164,360,l),
(267,489,l),
(268,489,l),
(335,360,l),
(405,406,l),
(328,527,l),
(329,530,l),
(479,571,l),
(465,647,l),
(317,593,l),
(316,595,l),
(344,747,l),
(265,747,l)
);
}
);
width = 479;
},
{
hints = (
{
horizontal = 1;
place = (621,19);
type = Stem;
},
{
place = (126,318);
type = Stem;
}
);
layerId = "7766A055-9583-43BA-9BBE-7DA8199C50F9";
shapes = (
{
closed = 1;
nodes = (
(274,592,l),
(272,590,l),
(134,640,l),
(126,621,l),
(265,576,l),
(266,574,l),
(156,447,l),
(169,436,l),
(277,565,l),
(279,565,l),
(351,436,l),
(368,447,l),
(293,574,l),
(295,576,l),
(447,621,l),
(444,640,l),
(292,590,l),
(290,592,l),
(314,747,l),
(294,747,l)
);
}
);
width = 479;
}
);
leftKerningGroup = minute2;
rightKerningGroup = minute;
unicode = 42;
}
{
glyphname = plus;
layers = (
{
hints = (
{
horizontal = 1;
place = (247,118);
type = Stem;
},
{
place = (196,128);
type = Stem;
}
);
layerId = "0AD2E2E0-FC0D-4C67-836B-444215FA4DDA";
shapes = (
{
closed = 1;
nodes = (
(324,247,l),
(493,247,l),
(493,365,l),
(324,365,l),
(324,549,l),
(196,549,l),
(196,365,l),
(27,365,l),
(27,247,l),
(196,247,l),
(196,63,l),
(324,63,l)
);
}
);
width = 600;
},
{
layerId = "E22AC71D-DB87-48BC-8161-A09275C341BE";
shapes = (
{
closed = 1;
nodes = (
(303,266,l),
(493,266,l),
(493,344,l),
(303,344,l),
(303,548,l),
(217,548,l),
(217,344,l),
(27,344,l),
(27,266,l),
(217,266,l),
(217,62,l),
(303,62,l)
);
}
);
width = 600;
},
{
hints = (
{
horizontal = 1;
place = (296,19);
type = Stem;
},
{
place = (250,21);
type = Stem;
}
);
layerId = "CC8B04B6-4F30-41C2-BC1D-B124A9E292F1";
shapes = (
{
closed = 1;
nodes = (
(271,296,l),
(499,296,l),
(499,315,l),
(271,315,l),
(271,549,l),
(250,549,l),
(250,315,l),
(22,315,l),
(22,296,l),
(250,296,l),
(250,62,l),
(271,62,l)
);
}
);
width = 600;
}
);
unicode = 43;
}
{
glyphname = comma;
layers = (
{
hints = (
{
horizontal = 1;
place = (-147,316);
type = Stem;
},
{
place = (-37,236);
type = Stem;
}
);
layerId = "0AD2E2E0-FC0D-4C67-836B-444215FA4DDA";
shapes = (
{
closed = 1;
nodes = (
(65,169,o),
(33,136,o),
(26,89,cs),
(23,69,ls),
(18,30,o),
(35,-1,o),
(78,-9,c),
(54,-62,o),
(15,-103,o),
(-37,-147,c),
(61,-147,l),
(96,-122,o),
(125,-90,o),
(150,-51,cs),
(174,-12,o),
(190,28,o),
(196,69,cs),
(199,89,ls),
(206,136,o),
(183,169,o),
(124,169,cs)
);
}
);
width = 279;
},
{
hints = (
{
horizontal = 1;
place = (-136,263);
type = Stem;
},
{
place = (-18,193);
type = Stem;
}
);
layerId = "E22AC71D-DB87-48BC-8161-A09275C341BE";
shapes = (
{
closed = 1;
nodes = (
(75,127,o),
(50,101,o),
(45,64,cs),
(43,49,ls),
(39,20,o),
(50,-2,o),
(79,-9,c),
(60,-57,o),
(28,-92,o),
(-18,-136,c),
(55,-136,l),
(87,-111,o),
(113,-82,o),
(135,-47,cs),
(157,-12,o),
(169,20,o),
(173,49,cs),
(175,64,ls),
(180,101,o),
(163,127,o),
(119,127,cs)
);
}
);
width = 279;
},
{
hints = (
{
horizontal = 1;
place = (-5,58);
type = Stem;
},
{
place = (76,53);
type = Stem;
}
);
layerId = "CC8B04B6-4F30-41C2-BC1D-B124A9E292F1";
shapes = (
{
closed = 1;
nodes = (
(89,53,o),
(80,42,o),
(78,27,c),
(76,18,l),
(74,6,o),
(81,-5,o),
(105,-5,c),
(96,-42,o),
(69,-96,o),
(12,-147,c),
(31,-147,l),
(54,-127,o),
(76,-102,o),
(95,-72,cs),
(114,-41,o),
(125,-12,o),
(129,15,cs),
(131,27,ls),
(133,42,o),
(128,53,o),
(109,53,cs)
);
}
);
width = 279;
}
);
leftKerningGroup = comma2;
rightKerningGroup = comma;
unicode = 44;
}
{
glyphname = hyphen;
layers = (
{
hints = (
{
horizontal = 1;
place = (233,144);
type = Stem;
},
{
place = (47,311);
type = Stem;
}
);
layerId = "0AD2E2E0-FC0D-4C67-836B-444215FA4DDA";
shapes = (
{
closed = 1;
nodes = (
(358,377,l),
(67,377,l),
(47,233,l),
(338,233,l)
);
}
);
width = 400;
},
{
hints = (
{
horizontal = 1;
place = (256,97);
type = Stem;
},
{
place = (65,276);
type = Stem;
}
);
layerId = "E22AC71D-DB87-48BC-8161-A09275C341BE";
shapes = (
{
closed = 1;
nodes = (
(341,353,l),
(79,353,l),
(65,256,l),
(328,256,l)
);
}
);
width = 400;
},
{
hints = (
{
horizontal = 1;
place = (295,20);
type = Stem;
},
{
place = (89,227);
type = Stem;
}
);
layerId = "CC8B04B6-4F30-41C2-BC1D-B124A9E292F1";
shapes = (
{
closed = 1;
nodes = (
(316,315,l),
(92,315,l),
(89,295,l),
(313,295,l)
);
}
);
width = 400;
}
);
leftKerningGroup = hyphen2;
rightKerningGroup = hyphen;
unicode = 45;
}
{
glyphname = period;
layers = (
{
hints = (
{
horizontal = 1;
place = (-11,180);
type = Stem;
},
{
place = (22,173);
type = Stem;
}
);
layerId = "C5FC3DAF-4290-4CD4-AD90-77B56B79BFFD";
shapes = (
{
closed = 1;
nodes = (
(156,-11,o),
(189,24,o),
(195,69,c),
(197,89,l),
(204,136,o),
(181,169,o),
(122,169,cs),
(63,169,o),
(32,136,o),
(25,89,cs),
(22,69,ls),
(16,24,o),
(38,-11,o),
(97,-11,cs)
);
}
);
width = 279;
},
{
hints = (
{
horizontal = 1;
place = (-12,139);
type = Stem;
},
{
place = (41,131);
type = Stem;
}
);
layerId = "38727D70-1DA2-45B2-A346-FCEACAA78F51";
shapes = (
{
closed = 1;
nodes = (
(142,-12,o),
(167,15,o),
(172,50,cs),
(174,65,ls),
(179,101,o),
(162,127,o),
(118,127,cs),
(74,127,o),
(49,101,o),
(44,65,c),
(41,50,l),
(36,15,o),
(54,-12,o),
(98,-12,cs)
);
}
);
width = 279;
},
{
hints = (
{
horizontal = 1;
place = (-5,58);
type = Stem;
},
{
place = (77,52);
type = Stem;
}
);
layerId = "7766A055-9583-43BA-9BBE-7DA8199C50F9";
shapes = (
{
closed = 1;
nodes = (
(118,-5,o),
(127,4,o),
(129,20,cs),
(130,28,ls),
(132,44,o),
(126,53,o),
(107,53,cs),
(90,53,o),
(79,44,o),
(77,28,cs),
(76,20,ls),
(74,4,o),
(82,-5,o),
(99,-5,cs)
);
}
);
width = 279;
}
);
leftKerningGroup = comma2;
rightKerningGroup = comma;
unicode = 46;
}
{
glyphname = slash;
layers = (
{
layerId = "C5FC3DAF-4290-4CD4-AD90-77B56B79BFFD";
shapes = (
{
closed = 1;
nodes = (
(453,740,l),
(334,740,l),
(-84,-151,l),
(36,-151,l)
);
}
);
width = 398;
},
{
layerId = "38727D70-1DA2-45B2-A346-FCEACAA78F51";
shapes = (
{
closed = 1;
nodes = (
(419,740,l),
(340,740,l),
(-48,-151,l),
(31,-151,l)
);
}
);
width = 398;
},
{
layerId = "7766A055-9583-43BA-9BBE-7DA8199C50F9";
shapes = (
{
closed = 1;
nodes = (
(376,740,l),
(356,740,l),
(-2,-151,l),
(17,-151,l)
);
}
);
width = 398;
}
);
unicode = 47;
}
{
glyphname = zero;
layers = (
{
hints = (
{
horizontal = 1;
place = (-12,127);
type = Stem;
},
{
horizontal = 1;
place = (583,127);
type = Stem;
}
);
layerId = "0AD2E2E0-FC0D-4C67-836B-444215FA4DDA";
shapes = (
{
closed = 1;
nodes = (
(379,-12,o),
(464,47,o),
(517,155,cs),
(543,208,o),
(561,273,o),
(572,349,cs),
(593,501,o),
(572,611,o),
(503,668,cs),
(468,696,o),
(420,710,o),
(360,710,cs),
(241,710,o),
(154,652,o),
(101,544,cs),
(75,490,o),
(56,425,o),
(45,349,cs),
(24,197,o),
(46,88,o),
(116,31,cs),
(151,2,o),
(198,-12,o),
(258,-12,cs)
);
},
{
closed = 1;
nodes = (
(224,115,o),
(199,143,o),
(193,193,cs),
(190,218,o),
(191,248,o),
(196,283,cs),
(214,415,ls),
(224,486,o),
(243,536,o),
(277,563,cs),
(294,576,o),
(316,583,o),
(342,583,cs),
(394,583,o),
(419,556,o),
(425,506,cs),
(428,481,o),
(427,450,o),
(422,415,cs),
(403,283,ls),
(393,212,o),
(375,162,o),
(341,135,cs),
(324,122,o),
(302,115,o),
(276,115,cs)
);
}
);
width = 600;
},
{
hints = (
{
horizontal = 1;
place = (-12,83);
type = Stem;
},
{
horizontal = 1;
place = (627,83);
type = Stem;
}
);
layerId = "E22AC71D-DB87-48BC-8161-A09275C341BE";
shapes = (
{
closed = 1;
nodes = (
(372,-12,o),
(449,47,o),
(498,155,cs),
(522,208,o),
(539,273,o),
(550,349,cs),
(571,501,o),
(554,611,o),
(491,668,cs),
(460,696,o),
(416,710,o),
(360,710,cs),
(249,710,o),
(170,652,o),
(121,544,cs),
(97,490,o),
(79,425,o),
(68,349,cs),
(47,197,o),
(64,88,o),
(128,31,cs),
(159,2,o),
(203,-12,o),
(259,-12,cs)
);
},
{
closed = 1;
nodes = (
(203,71,o),
(169,111,o),
(160,177,cs),
(155,210,o),
(155,247,o),
(161,290,cs),
(177,408,ls),
(189,495,o),
(218,562,o),
(264,599,cs),
(287,618,o),
(315,627,o),
(348,627,cs),
(416,627,o),
(450,587,o),
(460,522,c),
(464,489,o),
(464,451,o),
(458,408,cs),
(441,290,ls),
(429,205,o),
(400,136,o),
(355,99,cs),
(332,80,o),
(304,71,o),
(270,71,cs)
);
}
);
width = 600;
},
{
hints = (
{
horizontal = 1;
place = (-12,20);
type = Stem;
},
{
horizontal = 1;
place = (690,20);
type = Stem;
}
);
layerId = "CC8B04B6-4F30-41C2-BC1D-B124A9E292F1";
shapes = (
{
closed = 1;
nodes = (
(353,-12,o),
(428,36,o),
(478,142,cs),
(503,195,o),
(521,264,o),
(533,349,cs),
(557,520,o),
(536,624,o),
(476,673,cs),
(446,698,o),
(408,710,o),
(360,710,cs),
(265,710,o),
(190,663,o),
(140,557,cs),
(115,504,o),
(97,434,o),
(85,349,cs),
(61,178,o),
(82,74,o),
(142,25,cs),
(172,0,o),
(210,-12,o),
(258,-12,cs)
);
},
{
closed = 1;
nodes = (
(175,8,o),
(120,54,o),
(103,146,cs),
(94,192,o),
(94,249,o),
(104,317,cs),
(113,381,ls),
(132,518,o),
(176,610,o),
(242,656,cs),
(276,679,o),
(314,690,o),
(357,690,cs),
(444,690,o),
(497,644,o),
(516,553,c),
(524,507,o),
(524,450,o),
(514,381,cs),
(505,317,ls),
(486,181,o),
(442,89,o),
(377,43,cs),
(343,20,o),
(305,8,o),
(261,8,cs)
);
}
);
width = 600;
}
);
unicode = 48;
}
{
glyphname = one;
layers = (
{
hints = (
{
horizontal = 1;
place = (0,21);
target = up;
type = BottomGhost;
},
{
place = (157,324);
type = Stem;
}
);
layerId = "0AD2E2E0-FC0D-4C67-836B-444215FA4DDA";
shapes = (
{
closed = 1;
nodes = (
(481,698,l),
(327,698,l),
(177,619,l),
(157,479,l),
(316,561,l),
(237,0,l),
(383,0,l)
);
}
);
width = 600;
},
{
hints = (
{
horizontal = 1;
place = (0,21);
target = up;
type = BottomGhost;
},
{
place = (184,270);
type = Stem;
}
);
layerId = "E22AC71D-DB87-48BC-8161-A09275C341BE";
shapes = (
{
closed = 1;
nodes = (
(454,698,l),
(348,698,l),
(197,616,l),
(184,518,l),
(343,605,l),
(258,0,l),
(356,0,l)
);
}
);
width = 600;
},
{
hints = (
{
horizontal = 1;
place = (0,21);
target = up;
type = BottomGhost;
},
{
place = (229,184);
type = Stem;
}
);
layerId = "CC8B04B6-4F30-41C2-BC1D-B124A9E292F1";
shapes = (
{
closed = 1;
nodes = (
(413,698,l),
(390,698,l),
(233,612,l),
(229,588,l),
(388,675,l),
(294,0,l),
(315,0,l)
);
}
);
width = 600;
}
);
unicode = 49;
}
{
glyphname = two;
layers = (
{
hints = (
{
horizontal = 1;
place = (0,126);
type = Stem;
},
{
horizontal = 1;
place = (580,130);
type = Stem;
}
);
layerId = "0AD2E2E0-FC0D-4C67-836B-444215FA4DDA";
shapes = (
{
closed = 1;
nodes = (
(200,126,l),
(342,228,ls),
(415,281,o),
(481,332,o),
(523,394,cs),
(544,425,o),
(557,460,o),
(563,500,cs),
(574,581,o),
(545,646,o),
(481,683,cs),
(449,701,o),
(409,710,o),
(359,710,cs),
(265,710,o),
(193,674,o),
(143,621,cs),
(118,594,o),
(97,565,o),
(82,532,c),
(203,482,l),
(225,535,o),
(263,580,o),
(327,580,cs),
(350,580,o),
(369,573,o),
(386,560,cs),
(403,547,o),
(410,527,o),
(406,500,cs),
(404,486,ls),
(400,457,o),
(388,430,o),
(370,407,cs),
(352,383,o),
(321,354,o),
(278,321,cs),
(41,137,l),
(22,0,l),
(506,0,l),
(524,126,l)
);
}
);
width = 600;
},
{
hints = (
{
horizontal = 1;
place = (0,84);
type = Stem;
},
{
horizontal = 1;
place = (625,85);
type = Stem;
}
);
layerId = "E22AC71D-DB87-48BC-8161-A09275C341BE";
shapes = (
{
closed = 1;
nodes = (
(150,84,l),
(345,240,ls),
(412,293,o),
(469,345,o),
(505,406,cs),
(523,436,o),
(534,469,o),
(539,506,cs),
(550,586,o),
(525,648,o),
(466,684,c),
(436,701,o),
(399,710,o),
(353,710,cs),
(264,710,o),
(200,675,o),
(157,624,cs),
(135,599,o),
(118,572,o),
(105,543,c),
(184,510,l),
(210,574,o),
(257,625,o),
(336,625,cs),
(374,625,o),
(403,614,o),
(420,592,cs),
(437,570,o),
(443,541,o),
(438,504,c),
(436,492,ls),
(431,459,o),
(417,427,o),
(392,395,cs),
(367,363,o),
(337,332,o),
(299,301,cs),
(50,96,l),
(36,0,l),
(491,0,l),
(503,84,l)
);
}
);
width = 600;
},
{
hints = (
{
horizontal = 1;
place = (0,20);
type = Stem;
},
{
horizontal = 1;
place = (690,20);
type = Stem;
}
);
layerId = "CC8B04B6-4F30-41C2-BC1D-B124A9E292F1";
shapes = (
{
closed = 1;
nodes = (
(78,20,l),
(368,279,ls),
(425,330,o),
(465,379,o),
(490,432,cs),
(503,459,o),
(511,487,o),
(515,516,cs),
(526,596,o),
(504,655,o),
(454,687,c),
(428,702,o),
(395,710,o),
(354,710,cs),
(280,710,o),
(221,682,o),
(180,636,cs),
(159,613,o),
(142,586,o),
(129,555,c),
(148,551,l),
(186,636,o),
(249,690,o),
(351,690,cs),
(405,690,o),
(444,675,o),
(468,645,cs),
(491,615,o),
(499,577,o),
(493,532,cs),
(489,502,ls),
(484,465,o),
(470,430,o),
(447,396,cs),
(423,361,o),
(393,327,o),
(356,294,cs),
(54,22,l),
(51,0,l),
(476,0,l),
(479,20,l)
);
}
);
width = 600;
}
);
unicode = 50;
}
{
glyphname = three;
layers = (
{
hints = (
{
horizontal = 1;
place = (-12,122);
type = Stem;
},
{
horizontal = 1;
place = (297,125);
type = Stem;
},
{
horizontal = 1;
place = (588,122);
type = Stem;
}
);
layerId = "C5FC3DAF-4290-4CD4-AD90-77B56B79BFFD";
shapes = (
{
closed = 1;
nodes = (
(203,297,l),
(264,297,ls),
(338,297,o),
(380,268,o),
(372,211,cs),
(371,205,l),
(367,176,o),
(355,153,o),
(334,136,cs),
(313,119,o),
(285,110,o),
(252,110,cs),
(178,110,o),
(144,151,o),
(122,208,c),
(1,122,l),
(25,75,o),
(60,31,o),
(120,7,cs),
(151,-6,o),
(189,-12,o),
(235,-12,cs),
(338,-12,o),
(423,24,o),
(476,86,cs),
(502,117,o),
(517,153,o),
(523,194,cs),
(532,258,o),
(512,305,o),
(474,334,c),
(454,348,o),
(432,357,o),
(405,362,c),
(406,368,l),
(442,375,o),
(475,391,o),
(505,418,cs),
(534,445,o),
(552,480,o),
(558,525,cs),
(569,600,o),
(535,656,o),
(467,687,cs),
(433,702,o),
(391,710,o),
(342,710,cs),
(264,710,o),
(205,689,o),
(157,654,cs),
(133,637,o),
(110,616,o),
(89,593,c),
(169,505,l),
(211,558,o),
(265,588,o),
(320,588,cs),
(348,588,o),
(369,580,o),
(384,565,cs),
(399,550,o),
(404,529,o),
(400,504,cs),
(399,497,ls),
(396,476,o),
(386,458,o),
(367,444,cs),
(348,429,o),
(320,422,o),
(284,422,cs),
(220,422,l)
);
}
);
width = 600;
},
{
hints = (
{
horizontal = 1;
place = (-12,84);
type = Stem;
},
{
horizontal = 1;
place = (323,83);
type = Stem;
},
{
horizontal = 1;
place = (626,84);
type = Stem;
}
);
layerId = "38727D70-1DA2-45B2-A346-FCEACAA78F51";
shapes = (
{
closed = 1;
nodes = (
(196,323,l),
(273,323,ls),
(364,323,o),
(409,279,o),
(398,202,c),
(396,194,l),
(391,156,o),
(375,126,o),
(349,105,cs),
(322,83,o),
(286,72,o),
(240,72,cs),
(159,72,o),
(124,110,o),
(97,165,c),
(19,110,l),
(42,69,o),
(75,29,o),
(129,6,cs),
(156,-6,o),
(189,-12,o),
(229,-12,cs),
(324,-12,o),
(403,25,o),
(451,86,cs),
(475,116,o),
(489,151,o),
(495,192,cs),
(505,261,o),
(482,309,o),
(443,338,cs),
(423,352,o),
(402,361,o),
(377,366,c),
(377,370,l),
(415,379,o),
(448,398,o),
(478,425,cs),
(507,452,o),
(525,487,o),
(531,532,cs),
(542,608,o),
(509,661,o),
(448,689,cs),
(418,703,o),
(382,710,o),
(342,710,cs),
(268,710,o),
(213,686,o),
(171,651,cs),
(150,634,o),
(132,615,o),
(116,595,c),
(175,540,l),
(213,593,o),
(260,626,o),
(327,626,cs),
(362,626,o),
(389,617,o),
(408,600,cs),
(427,582,o),
(435,556,o),
(430,521,cs),
(429,514,ls),
(425,483,o),
(410,457,o),
(385,437,cs),
(360,416,o),
(324,406,o),
(280,406,cs),
(208,406,l)
);
}
);
width = 600;
},
{
hints = (
{
horizontal = 1;
place = (-12,20);
type = Stem;
},
{
horizontal = 1;
place = (356,20);
type = Stem;
},
{
horizontal = 1;
place = (690,20);
type = Stem;
}
);
layerId = "7766A055-9583-43BA-9BBE-7DA8199C50F9";
shapes = (
{
closed = 1;
nodes = (
(199,356,l),
(293,356,ls),
(404,356,o),
(465,293,o),
(452,198,cs),
(448,170,ls),
(441,121,o),
(418,82,o),
(381,53,cs),
(343,23,o),
(299,8,o),
(246,8,cs),
(159,8,o),
(101,38,o),
(68,106,c),
(49,95,l),
(73,47,o),
(108,15,o),
(158,-1,c),
(183,-8,o),
(212,-12,o),
(243,-12,cs),
(326,-12,o),
(392,21,o),
(434,81,cs),
(455,111,o),
(468,146,o),
(474,187,cs),
(484,256,o),
(465,307,o),
(423,337,cs),
(403,352,o),
(377,361,o),
(347,365,c),
(347,368,l),
(388,376,o),
(425,394,o),
(454,421,cs),
(483,448,o),
(501,487,o),
(508,536,cs),
(518,607,o),
(494,660,o),
(443,689,cs),
(417,703,o),
(385,710,o),
(348,710,cs),
(282,710,o),
(231,690,o),
(192,657,cs),
(173,640,o),
(156,621,o),
(144,599,c),
(161,591,l),
(200,651,o),
(254,690,o),
(345,690,cs),
(393,690,o),
(429,677,o),
(456,651,c),
(482,624,o),
(492,589,o),
(486,546,c),
(482,522,l),
(476,479,o),
(456,444,o),
(422,417,cs),
(387,390,o),
(344,376,o),
(294,376,cs),
(202,376,l)
);
}
);
width = 600;
}
);
unicode = 51;
}
{
glyphname = four;
layers = (
{
hints = (
{
horizontal = 1;
place = (0,21);
target = up;
type = BottomGhost;
},
{
horizontal = 1;
place = (134,116);
type = Stem;
}
);
layerId = "C5FC3DAF-4290-4CD4-AD90-77B56B79BFFD";
shapes = (
{
closed = 1;
nodes = (
(455,134,l),
(541,134,l),
(558,250,l),
(471,250,l),
(534,698,l),
(360,698,l),
(32,262,l),
(14,134,l),
(315,134,l),
(296,0,l),
(436,0,l)
);
},
{
closed = 1;
nodes = (
(372,543,l),
(331,250,l),
(148,250,l),
(363,543,l)
);
}
);
width = 600;
},
{
hints = (
{
horizontal = 1;
place = (0,21);
target = up;
type = BottomGhost;
},
{
horizontal = 1;
place = (136,79);
type = Stem;
}
);
layerId = "38727D70-1DA2-45B2-A346-FCEACAA78F51";
shapes = (
{
closed = 1;
nodes = (
(436,136,l),
(532,136,l),
(544,215,l),
(447,215,l),
(515,698,l),
(383,698,l),
(33,221,l),
(21,136,l),
(346,136,l),
(327,0,l),
(417,0,l)
);
},
{
closed = 1;
nodes = (
(414,616,l),
(357,215,l),
(117,215,l),
(408,616,l)
);
}
);
width = 600;
},
{
hints = (
{
horizontal = 1;
place = (0,21);
target = up;
type = BottomGhost;
},
{
horizontal = 1;
place = (160,19);
type = Stem;
}
);
layerId = "7766A055-9583-43BA-9BBE-7DA8199C50F9";
shapes = (
{
closed = 1;
nodes = (
(412,160,l),
(527,160,l),
(530,179,l),
(414,179,l),
(487,698,l),
(463,698,l),
(37,181,l),
(34,160,l),
(392,160,l),
(369,0,l),
(389,0,l)
);
},
{
closed = 1;
nodes = (
(464,670,l),
(395,179,l),
(58,179,l),
(462,670,l)
);
}
);
width = 600;
}
);
unicode = 52;
}
{
glyphname = five;
layers = (
{
hints = (
{
horizontal = 1;
place = (-12,122);
type = Stem;
},
{
horizontal = 1;
place = (567,131);
type = Stem;
}
);
layerId = "C5FC3DAF-4290-4CD4-AD90-77B56B79BFFD";
shapes = (
{
closed = 1;
nodes = (
(157,698,l),
(76,303,l),
(194,286,l),
(204,297,o),
(220,308,o),
(239,319,cs),
(258,330,o),
(281,335,o),
(307,335,cs),
(371,335,o),
(404,295,o),
(395,231,cs),
(394,223,ls),
(389,189,o),
(377,162,o),
(356,141,cs),
(334,120,o),
(306,110,o),
(271,110,cs),
(236,110,o),
(209,120,o),
(191,139,cs),
(173,158,o),
(158,181,o),
(147,208,c),
(28,122,l),
(49,75,o),
(84,31,o),
(143,7,cs),
(173,-6,o),
(209,-12,o),
(253,-12,cs),
(366,-12,o),
(451,33,o),
(502,108,cs),
(528,145,o),
(544,188,o),
(551,235,cs),
(564,328,o),
(532,395,o),
(474,431,c),
(444,448,o),
(410,457,o),
(371,457,cs),
(313,457,o),
(276,437,o),
(248,404,cs),
(234,387,o),
(220,368,o),
(208,346,c),
(201,346,l),
(246,567,l),
(557,567,l),
(575,698,l)
);
}
);
width = 600;
},
{
hints = (
{
horizontal = 1;
place = (-12,84);
type = Stem;
},
{
horizontal = 1;
place = (358,81);
type = Stem;
},
{
horizontal = 1;
place = (613,85);
type = Stem;
}
);
layerId = "38727D70-1DA2-45B2-A346-FCEACAA78F51";
shapes = (
{
closed = 1;
nodes = (
(180,698,l),
(101,312,l),
(179,301,l),
(195,316,o),
(213,329,o),
(232,341,cs),
(251,352,o),
(276,358,o),
(306,358,cs),
(393,358,o),
(434,307,o),
(422,220,c),
(421,211,ls),
(415,167,o),
(398,133,o),
(372,109,cs),
(345,84,o),
(309,72,o),
(265,72,cs),
(225,72,o),
(196,81,o),
(178,98,cs),
(159,115,o),
(142,138,o),
(129,165,c),
(51,110,l),
(73,69,o),
(104,29,o),
(156,6,cs),
(182,-6,o),
(214,-12,o),
(253,-12,cs),
(352,-12,o),
(431,31,o),
(478,101,cs),
(502,136,o),
(517,176,o),
(523,222,cs),
(536,313,o),
(507,378,o),
(450,413,cs),
(421,430,o),
(387,439,o),
(348,439,cs),
(298,439,o),
(264,424,o),
(236,400,cs),
(221,387,o),
(208,373,o),
(195,356,c),
(188,356,l),
(242,613,l),
(545,613,l),
(557,698,l)
);
}
);
width = 600;
},
{
hints = (
{
horizontal = 1;
place = (-12,20);
type = Stem;
},
{
horizontal = 1;
place = (393,20);
type = Stem;
},
{
horizontal = 1;
place = (678,20);
type = Stem;
}
);
layerId = "7766A055-9583-43BA-9BBE-7DA8199C50F9";
shapes = (
{
closed = 1;
nodes = (
(201,698,l),
(124,326,l),
(146,323,l),
(170,347,o),
(194,365,o),
(219,376,cs),
(244,387,o),
(277,393,o),
(319,393,cs),
(432,393,o),
(483,321,o),
(468,216,cs),
(464,188,ls),
(457,135,o),
(435,92,o),
(399,59,cs),
(363,25,o),
(316,8,o),
(258,8,cs),
(214,8,o),
(178,16,o),
(149,32,cs),
(120,47,o),
(97,72,o),
(81,106,c),
(62,95,l),
(86,47,o),
(121,15,o),
(171,-1,c),
(196,-8,o),
(224,-12,o),
(255,-12,cs),
(338,-12,o),
(407,24,o),
(449,89,cs),
(470,121,o),
(484,159,o),
(490,203,cs),
(502,291,o),
(478,355,o),
(425,388,cs),
(398,405,o),
(364,413,o),
(322,413,cs),
(274,413,o),
(233,405,o),
(199,385,cs),
(181,374,o),
(164,360,o),
(149,343,c),
(146,344,l),
(216,678,l),
(533,678,l),
(536,698,l)
);
}
);
width = 600;
}
);
unicode = 53;
}
{
glyphname = six;
layers = (
{
hints = (
{
horizontal = 1;
place = (-12,117);
type = Stem;
},
{
horizontal = 1;
place = (335,115);
type = Stem;
}
);
layerId = "0AD2E2E0-FC0D-4C67-836B-444215FA4DDA";
shapes = (
{
closed = 1;
nodes = (
(367,-12,o),
(450,33,o),
(504,107,cs),
(530,144,o),
(546,186,o),
(553,233,cs),
(565,321,o),
(537,388,o),
(482,424,c),
(454,441,o),
(422,450,o),
(384,450,cs),
(326,450,o),
(285,428,o),
(256,396,cs),
(241,380,o),
(228,363,o),
(218,345,c),
(210,348,l),
(241,437,o),
(301,510,o),
(393,583,cs),
(438,619,o),
(491,657,o),
(553,698,c),
(350,698,l),
(286,658,o),
(217,599,o),
(160,525,cs),
(102,451,o),
(58,364,o),
(44,265,cs),
(28,153,o),
(59,67,o),
(129,22,cs),
(164,-1,o),
(208,-12,o),
(262,-12,cs)
);
},
{
closed = 1;
nodes = (
(236,105,o),
(206,122,o),
(194,154,c),
(187,169,o),
(187,188,o),
(190,211,cs),
(192,229,ls),
(198,274,o),
(220,306,o),
(254,323,cs),
(270,331,o),
(289,335,o),
(311,335,cs),
(354,335,o),
(383,318,o),
(395,287,cs),
(402,271,o),
(403,252,o),
(400,229,cs),
(398,211,ls),
(392,166,o),
(369,134,o),
(336,118,cs),
(319,109,o),
(301,105,o),
(279,105,cs)
);
}
);
width = 600;
},
{
hints = (
{
horizontal = 1;
place = (-12,81);
type = Stem;
},
{
horizontal = 1;
place = (358,79);
type = Stem;
}
);
layerId = "E22AC71D-DB87-48BC-8161-A09275C341BE";
shapes = (
{
closed = 1;
nodes = (
(354,-12,o),
(432,29,o),
(481,100,cs),
(505,135,o),
(520,176,o),
(526,222,cs),
(538,310,o),
(512,376,o),
(456,411,cs),
(428,428,o),
(393,437,o),
(355,437,cs),
(299,437,o),
(256,418,o),
(223,388,cs),
(206,373,o),
(192,355,o),
(179,336,c),
(174,338,l),
(212,443,o),
(268,519,o),
(350,590,cs),
(391,625,o),
(439,661,o),
(494,698,c),
(370,698,l),
(310,661,o),
(243,602,o),
(183,527,cs),
(123,451,o),
(78,361,o),
(64,258,cs),
(48,147,o),
(76,65,o),
(140,21,cs),
(171,-1,o),
(212,-12,o),
(261,-12,cs)
);
},
{
closed = 1;
nodes = (
(213,69,o),
(178,92,o),
(161,133,cs),
(153,154,o),
(151,179,o),
(155,209,cs),
(156,218,ls),
(164,278,o),
(194,320,o),
(237,342,cs),
(258,353,o),
(284,358,o),
(312,358,cs),
(368,358,o),
(407,335,o),
(423,294,cs),
(431,273,o),
(432,248,o),
(428,218,c),
(426,209,l),
(418,149,o),
(389,108,o),
(346,86,cs),
(324,75,o),
(299,69,o),
(271,69,cs)
);
}
);
width = 600;
},
{
hints = (
{
horizontal = 1;
place = (-12,20);
type = Stem;
},
{
horizontal = 1;
place = (397,20);
type = Stem;
}
);
layerId = "CC8B04B6-4F30-41C2-BC1D-B124A9E292F1";
shapes = (
{
closed = 1;
nodes = (
(343,-12,o),
(411,26,o),
(454,91,cs),
(475,124,o),
(490,162,o),
(496,205,cs),
(508,293,o),
(482,358,o),
(425,392,cs),
(396,409,o),
(360,417,o),
(318,417,cs),
(264,417,o),
(216,402,o),
(176,370,cs),
(156,354,o),
(138,334,o),
(123,310,c),
(120,311,l),
(154,422,o),
(213,513,o),
(298,590,cs),
(341,629,o),
(390,665,o),
(448,698,c),
(417,698,l),
(335,650,o),
(259,588,o),
(200,511,cs),
(141,434,o),
(99,339,o),
(83,226,cs),
(71,138,o),
(86,63,o),
(142,20,cs),
(169,-1,o),
(208,-12,o),
(258,-12,cs)
);
},
{
closed = 1;
nodes = (
(185,8,o),
(134,42,o),
(111,97,cs),
(100,124,o),
(96,155,o),
(101,190,cs),
(105,218,ls),
(115,286,o),
(153,342,o),
(212,374,c),
(242,389,o),
(276,397,o),
(315,397,cs),
(392,397,o),
(443,364,o),
(465,310,cs),
(476,283,o),
(479,252,o),
(474,218,cs),
(469,187,ls),
(459,119,o),
(421,63,o),
(362,32,cs),
(332,16,o),
(298,8,o),
(260,8,cs)
);
}
);
width = 600;
}
);
unicode = 54;
}
{
glyphname = seven;
layers = (
{
hints = (
{
horizontal = 1;
place = (0,21);
target = up;
type = BottomGhost;
},
{
horizontal = 1;
place = (576,122);
type = Stem;
}
);
layerId = "C5FC3DAF-4290-4CD4-AD90-77B56B79BFFD";
shapes = (
{
closed = 1;
nodes = (
(284,0,l),
(584,568,l),
(602,698,l),
(118,698,l),
(101,576,l),
(439,576,l),
(129,0,l)
);
}
);
width = 600;
},
{
hints = (
{
horizontal = 1;
place = (0,21);
target = up;
type = BottomGhost;
},
{
horizontal = 1;
place = (616,82);
type = Stem;
}
);
layerId = "38727D70-1DA2-45B2-A346-FCEACAA78F51";
shapes = (
{
closed = 1;
nodes = (
(237,0,l),
(573,613,l),
(585,698,l),
(129,698,l),
(118,616,l),
(478,616,l),
(136,0,l)
);
}
);
width = 600;
},
{
hints = (
{
horizontal = 1;
place = (0,21);
target = up;
type = BottomGhost;
},
{
horizontal = 1;
place = (678,20);
type = Stem;
}
);
layerId = "7766A055-9583-43BA-9BBE-7DA8199C50F9";
shapes = (
{
closed = 1;
nodes = (
(173,0,l),
(564,678,l),
(566,698,l),
(140,698,l),
(137,678,l),
(541,678,l),
(150,0,l)
);
}
);
width = 600;
}
);
unicode = 55;
}
{
glyphname = eight;
layers = (
{
hints = (
{
horizontal = 1;
place = (-12,115);
type = Stem;
},
{
horizontal = 1;
place = (301,110);
type = Stem;
},
{
horizontal = 1;
place = (595,115);
type = Stem;
}
);
layerId = "0AD2E2E0-FC0D-4C67-836B-444215FA4DDA";
shapes = (
{
closed = 1;
nodes = (
(368,-12,o),
(449,26,o),
(498,87,cs),
(522,118,o),
(537,152,o),
(542,191,cs),
(555,280,o),
(509,337,o),
(431,360,c),
(432,368,l),
(502,393,o),
(557,445,o),
(568,526,cs),
(575,579,o),
(562,623,o),
(527,658,cs),
(492,693,o),
(435,710,o),
(360,710,cs),
(285,710,o),
(224,693,o),
(179,658,cs),
(134,623,o),
(107,579,o),
(100,526,cs),
(89,445,o),
(128,393,o),
(191,368,c),
(190,360,l),
(105,337,o),
(45,280,o),
(32,191,cs),
(21,114,o),
(53,50,o),
(125,15,cs),
(161,-3,o),
(205,-12,o),
(259,-12,cs)
);
},
{
closed = 1;
nodes = (
(243,103,o),
(219,111,o),
(204,127,cs),
(189,143,o),
(182,165,o),
(186,192,cs),
(189,212,ls),
(193,239,o),
(205,261,o),
(225,277,cs),
(245,293,o),
(271,301,o),
(303,301,cs),
(335,301,o),
(360,293,o),
(375,277,cs),
(389,261,o),
(395,239,o),
(391,212,cs),
(388,192,ls),
(384,165,o),
(373,143,o),
(354,127,cs),
(334,111,o),
(307,103,o),
(275,103,cs)
);
},
{
closed = 1;
nodes = (
(256,411,o),
(227,443,o),
(234,495,cs),
(236,511,ls),
(243,563,o),
(282,595,o),
(344,595,cs),
(406,595,o),
(435,563,o),
(428,511,cs),
(426,495,ls),
(419,443,o),
(380,411,o),
(318,411,cs)
);
}
);
width = 600;
},
{
hints = (
{
horizontal = 1;
place = (-12,81);
type = Stem;
},
{
horizontal = 1;
place = (326,78);
type = Stem;
},
{
horizontal = 1;
place = (629,81);
type = Stem;
}
);
layerId = "E22AC71D-DB87-48BC-8161-A09275C341BE";
shapes = (
{
closed = 1;
nodes = (
(364,-12,o),
(440,26,o),
(485,87,cs),
(508,118,o),
(522,152,o),
(527,190,cs),
(540,283,o),
(493,339,o),
(414,362,c),
(415,370,l),
(489,395,o),
(544,453,o),
(555,533,cs),
(562,586,o),
(549,629,o),
(515,662,cs),
(481,694,o),
(430,710,o),
(360,710,cs),
(290,710,o),
(234,694,o),
(191,662,cs),
(148,629,o),
(123,586,o),
(116,533,cs),
(105,453,o),
(142,395,o),
(209,370,c),
(208,362,l),
(122,339,o),
(60,283,o),
(47,190,cs),
(36,114,o),
(64,50,o),
(131,15,cs),
(164,-3,o),
(206,-12,o),
(258,-12,cs)
);
},
{
closed = 1;
nodes = (
(226,69,o),
(193,80,o),
(171,101,cs),
(149,122,o),
(141,150,o),
(146,187,cs),
(149,208,ls),
(154,245,o),
(172,274,o),
(199,295,cs),
(226,316,o),
(262,326,o),
(306,326,cs),
(351,326,o),
(384,316,o),
(406,295,cs),
(428,274,o),
(436,245,o),
(431,208,cs),
(428,187,ls),
(423,150,o),
(406,122,o),
(379,101,cs),
(352,80,o),
(315,69,o),
(270,69,cs)
);
},
{
closed = 1;
nodes = (
(236,404,o),
(197,441,o),
(207,509,cs),
(209,524,ls),
(218,591,o),
(268,629,o),
(349,629,cs),
(430,629,o),
(467,591,o),
(458,524,cs),
(456,509,ls),
(446,441,o),
(398,404,o),
(317,404,cs)
);
}
);
width = 600;
},
{
hints = (
{
horizontal = 1;
place = (-12,20);
type = Stem;
},
{
horizontal = 1;
place = (356,20);
type = Stem;
},
{
horizontal = 1;
place = (690,20);
type = Stem;
}
);
layerId = "CC8B04B6-4F30-41C2-BC1D-B124A9E292F1";
shapes = (
{
closed = 1;
nodes = (
(350,-12,o),
(424,22,o),
(468,79,cs),
(491,108,o),
(505,141,o),
(510,180,cs),
(524,279,o),
(476,348,o),
(385,364,c),
(385,368,l),
(466,384,o),
(523,446,o),
(536,535,cs),
(543,588,o),
(532,631,o),
(500,663,cs),
(468,694,o),
(423,710,o),
(361,710,cs),
(299,710,o),
(249,694,o),
(208,663,cs),
(167,631,o),
(143,588,o),
(136,535,cs),
(123,446,o),
(164,384,o),
(240,368,c),
(240,364,l),
(145,348,o),
(77,279,o),
(63,180,cs),
(52,103,o),
(82,44,o),
(144,12,cs),
(175,-4,o),
(213,-12,o),
(259,-12,cs)
);
},
{
closed = 1;
nodes = (
(201,8,o),
(155,23,o),
(123,53,cs),
(91,83,o),
(78,122,o),
(85,169,c),
(88,195,l),
(95,242,o),
(120,281,o),
(160,311,cs),
(200,341,o),
(250,356,o),
(311,356,cs),
(372,356,o),
(419,341,o),
(451,311,cs),
(483,281,o),
(495,242,o),
(488,195,c),
(485,169,l),
(478,122,o),
(454,83,o),
(414,53,cs),
(374,23,o),
(323,8,o),
(262,8,cs)
);
},
{
closed = 1;
nodes = (
(207,376,o),
(146,434,o),
(158,521,cs),
(161,545,ls),
(173,632,o),
(251,690,o),
(358,690,cs),
(465,690,o),
(526,632,o),
(514,545,cs),
(511,521,ls),
(499,434,o),
(421,376,o),
(314,376,cs)
);
}
);
width = 600;
}
);
unicode = 56;
}
{
glyphname = nine;
layers = (
{
hints = (
{
horizontal = 1;
place = (0,21);
target = up;
type = BottomGhost;
},
{
horizontal = 1;
place = (248,115);
type = Stem;
},
{
horizontal = 1;
place = (593,117);
type = Stem;
}
);
layerId = "C5FC3DAF-4290-4CD4-AD90-77B56B79BFFD";
shapes = (
{
closed = 1;
nodes = (
(590,545,o),
(561,631,o),
(491,676,cs),
(456,699,o),
(410,710,o),
(356,710,cs),
(253,710,o),
(167,665,o),
(115,592,cs),
(88,555,o),
(72,513,o),
(65,465,cs),
(53,377,o),
(82,311,o),
(138,275,cs),
(166,257,o),
(198,248,o),
(235,248,cs),
(294,248,o),
(334,270,o),
(363,303,cs),
(378,319,o),
(390,336,o),
(400,353,c),
(409,350,l),
(378,262,o),
(317,188,o),
(226,116,c),
(181,79,o),
(128,41,o),
(66,0,c),
(268,0,l),
(332,40,o),
(402,100,o),
(460,174,cs),
(517,248,o),
(560,336,o),
(574,433,cs)
);
},
{
closed = 1;
nodes = (
(265,363,o),
(235,380,o),
(223,412,c),
(216,427,o),
(216,446,o),
(219,469,cs),
(221,487,ls),
(227,532,o),
(249,564,o),
(283,581,cs),
(299,589,o),
(318,593,o),
(340,593,cs),
(383,593,o),
(412,576,o),
(424,545,cs),
(431,529,o),
(432,510,o),
(429,487,c),
(426,469,l),
(420,424,o),
(398,392,o),
(365,376,cs),
(348,367,o),
(330,363,o),
(308,363,cs)
);
}
);
width = 600;
},
{
hints = (
{
horizontal = 1;
place = (0,21);
target = up;
type = BottomGhost;
},
{
horizontal = 1;
place = (261,79);
type = Stem;
},
{
horizontal = 1;
place = (629,81);
type = Stem;
}
);
layerId = "38727D70-1DA2-45B2-A346-FCEACAA78F51";
shapes = (
{
closed = 1;
nodes = (
(571,551,o),
(542,633,o),
(479,677,cs),
(447,699,o),
(407,710,o),
(358,710,cs),
(265,710,o),
(187,669,o),
(139,599,cs),
(114,564,o),
(99,523,o),
(92,476,cs),
(80,388,o),
(108,322,o),
(164,287,cs),
(192,270,o),
(225,261,o),
(263,261,cs),
(321,261,o),
(363,280,o),
(396,311,cs),
(413,326,o),
(427,343,o),
(440,362,c),
(445,360,l),
(407,256,o),
(349,179,o),
(269,109,cs),
(228,74,o),
(179,37,o),
(124,0,c),
(249,0,l),
(309,37,o),
(377,96,o),
(437,172,cs),
(497,247,o),
(541,337,o),
(555,440,cs)
);
},
{
closed = 1;
nodes = (
(251,340,o),
(213,363,o),
(197,404,cs),
(189,425,o),
(187,450,o),
(191,480,cs),
(192,489,ls),
(200,549,o),
(229,591,o),
(272,613,cs),
(294,624,o),
(319,629,o),
(347,629,cs),
(405,629,o),
(441,606,o),
(458,565,cs),
(466,544,o),
(468,519,o),
(464,489,c),
(462,480,l),
(454,420,o),
(424,379,o),
(382,357,cs),
(360,346,o),
(335,340,o),
(307,340,cs)
);
}
);
width = 600;
},
{
hints = (
{
horizontal = 1;
place = (0,21);
target = up;
type = BottomGhost;
},
{
horizontal = 1;
place = (281,20);
type = Stem;
},
{
horizontal = 1;
place = (690,20);
type = Stem;
}
);
layerId = "7766A055-9583-43BA-9BBE-7DA8199C50F9";
shapes = (
{
closed = 1;
nodes = (
(551,561,o),
(534,635,o),
(478,678,cs),
(451,699,o),
(412,710,o),
(362,710,cs),
(279,710,o),
(210,672,o),
(167,608,cs),
(146,575,o),
(131,537,o),
(125,493,cs),
(113,406,o),
(139,341,o),
(197,307,cs),
(226,290,o),
(261,281,o),
(303,281,cs),
(357,281,o),
(405,297,o),
(446,329,cs),
(466,344,o),
(483,364,o),
(497,388,c),
(500,387,l),
(466,276,o),
(408,185,o),
(323,109,cs),
(280,70,o),
(230,34,o),
(172,0,c),
(204,0,l),
(286,48,o),
(361,110,o),
(420,187,cs),
(479,264,o),
(522,359,o),
(538,472,cs)
);
},
{
closed = 1;
nodes = (
(229,301,o),
(178,334,o),
(156,389,cs),
(145,416,o),
(142,447,o),
(147,480,cs),
(151,511,ls),
(161,579,o),
(199,635,o),
(259,667,c),
(289,682,o),
(322,690,o),
(360,690,cs),
(435,690,o),
(487,656,o),
(510,601,cs),
(521,574,o),
(524,543,o),
(519,508,cs),
(515,480,ls),
(506,413,o),
(468,356,o),
(409,325,cs),
(379,309,o),
(345,301,o),
(306,301,cs)
);
}
);
width = 600;
}
);
unicode = 57;
}
{
glyphname = colon;
layers = (
{
hints = (
{
horizontal = 1;
place = (-11,180);
type = Stem;
},
{
horizontal = 1;
place = (356,180);
type = Stem;
},
{
place = (32,227);
type = Stem;
}
);
layerId = "0AD2E2E0-FC0D-4C67-836B-444215FA4DDA";
shapes = (
{
closed = 1;
nodes = (
(166,-11,o),
(199,24,o),
(205,69,c),
(207,89,l),
(214,136,o),
(192,169,o),
(133,169,cs),
(74,169,o),
(42,136,o),
(35,89,cs),
(32,69,ls),
(26,24,o),
(48,-11,o),
(107,-11,cs)
);
},
{
closed = 1;
nodes = (
(218,356,o),
(250,391,o),
(256,436,cs),
(259,456,ls),
(266,503,o),
(243,536,o),
(184,536,cs),
(125,536,o),
(94,503,o),
(87,456,cs),
(84,436,ls),
(78,391,o),
(100,356,o),
(159,356,cs)
);
}
);
width = 299;
},
{
hints = (
{
horizontal = 1;
place = (-12,139);
type = Stem;
},
{
horizontal = 1;
place = (391,139);
type = Stem;
},
{
place = (52,189);
type = Stem;
}
);
layerId = "E22AC71D-DB87-48BC-8161-A09275C341BE";
shapes = (
{
closed = 1;
nodes = (
(153,-12,o),
(177,15,o),
(182,50,cs),
(184,65,ls),
(189,101,o),
(172,127,o),
(128,127,cs),
(84,127,o),
(59,101,o),
(54,65,cs),
(52,50,ls),
(47,15,o),
(65,-12,o),
(109,-12,cs)
);
},
{
closed = 1;
nodes = (
(209,391,o),
(234,418,o),
(239,453,cs),
(241,468,ls),
(246,504,o),
(229,530,o),
(185,530,cs),
(141,530,o),
(115,504,o),
(110,468,cs),
(108,453,ls),
(103,418,o),
(121,391,o),
(165,391,cs)
);
}
);
width = 299;
},
{
hints = (
{
horizontal = 1;
place = (-5,58);
type = Stem;
},
{
horizontal = 1;
place = (453,58);
type = Stem;
},
{
place = (85,118);
type = Stem;
}
);
layerId = "CC8B04B6-4F30-41C2-BC1D-B124A9E292F1";
shapes = (
{
closed = 1;
nodes = (
(127,-5,o),
(136,4,o),
(138,20,cs),
(139,28,ls),
(141,44,o),
(135,53,o),
(116,53,cs),
(99,53,o),
(88,44,o),
(86,28,cs),
(85,20,ls),
(83,4,o),
(91,-5,o),
(108,-5,cs)
);
},
{
closed = 1;
nodes = (
(191,453,o),
(200,462,o),
(202,478,cs),
(203,486,ls),
(205,502,o),
(199,511,o),
(180,511,cs),
(163,511,o),
(152,502,o),
(150,486,cs),
(149,478,ls),
(147,462,o),
(155,453,o),
(172,453,cs)
);
}
);
width = 299;
}
);
leftKerningGroup = colon2;
rightKerningGroup = colon;
unicode = 58;
}
{
glyphname = semicolon;
layers = (
{
hints = (
{
horizontal = 1;
place = (356,180);
type = Stem;
},
{
place = (-27,287);
type = Stem;
}
);
layerId = "0AD2E2E0-FC0D-4C67-836B-444215FA4DDA";
shapes = (
{
closed = 1;
nodes = (
(75,169,o),
(43,136,o),
(36,89,cs),
(33,69,ls),
(28,30,o),
(45,-1,o),
(88,-9,c),
(64,-62,o),
(25,-103,o),
(-27,-147,c),
(71,-147,l),
(106,-122,o),
(136,-90,o),
(161,-51,cs),
(185,-12,o),
(200,28,o),
(206,69,cs),
(209,89,ls),
(216,136,o),
(193,169,o),
(134,169,cs)
);
},
{
closed = 1;
nodes = (
(219,356,o),
(251,391,o),
(257,436,cs),
(260,456,ls),
(267,503,o),
(244,536,o),
(185,536,cs),
(126,536,o),
(95,503,o),
(88,456,cs),
(85,436,ls),
(79,391,o),
(101,356,o),
(160,356,cs)
);
}
);
width = 299;
},
{
hints = (
{
horizontal = 1;
place = (391,139);
type = Stem;
},
{
place = (-7,249);
type = Stem;
}
);
layerId = "E22AC71D-DB87-48BC-8161-A09275C341BE";
shapes = (
{
closed = 1;
nodes = (
(85,127,o),
(60,101,o),
(55,64,cs),
(53,49,ls),
(49,20,o),
(60,-2,o),
(89,-9,c),
(70,-57,o),
(39,-92,o),
(-7,-136,c),
(65,-136,l),
(97,-111,o),
(123,-82,o),
(145,-47,cs),
(167,-12,o),
(179,20,o),
(183,49,cs),
(185,64,ls),
(190,101,o),
(173,127,o),
(129,127,cs)
);
},
{
closed = 1;
nodes = (
(211,391,o),
(235,418,o),
(240,453,cs),
(242,468,ls),
(247,504,o),
(230,530,o),
(186,530,cs),
(142,530,o),
(117,504,o),
(112,468,cs),
(110,453,ls),
(105,418,o),
(123,391,o),
(167,391,cs)
);
}
);
width = 299;
},
{
hints = (
{
horizontal = 1;
place = (-5,58);
type = Stem;
},
{
horizontal = 1;
place = (453,58);
type = Stem;
},
{
place = (87,53);
type = Stem;
},
{
place = (151,52);
type = Stem;
}
);
layerId = "CC8B04B6-4F30-41C2-BC1D-B124A9E292F1";
shapes = (
{
closed = 1;
nodes = (
(98,53,o),
(89,42,o),
(87,27,cs),
(86,18,l),
(84,6,o),
(90,-5,o),
(114,-5,c),
(105,-42,o),
(78,-96,o),
(21,-147,c),
(40,-147,l),
(63,-127,o),
(85,-102,o),
(104,-72,cs),
(123,-41,o),
(134,-12,o),
(138,15,cs),
(140,27,ls),
(142,42,o),
(137,53,o),
(118,53,cs)
);
},
{
closed = 1;
nodes = (
(192,453,o),
(201,462,o),
(203,478,cs),
(204,486,ls),
(206,502,o),
(200,511,o),
(181,511,cs),
(164,511,o),
(153,502,o),
(151,486,cs),
(150,478,ls),
(148,462,o),
(156,453,o),
(173,453,cs)
);
}
);
width = 299;
}
);
leftKerningGroup = colon2;
rightKerningGroup = colon;
unicode = 59;
}
{
glyphname = less;
layers = (
{
hints = (
{
horizontal = 1;
place = (-2,21);
target = up;
type = BottomGhost;
}
);
layerId = "C5FC3DAF-4290-4CD4-AD90-77B56B79BFFD";
shapes = (
{
closed = 1;
nodes = (
(457,148,l),
(219,298,l),
(219,305,l),
(457,455,l),
(457,604,l),
(63,345,l),
(63,258,l),
(457,-2,l)
);
}
);
width = 600;
},
{
layerId = "38727D70-1DA2-45B2-A346-FCEACAA78F51";
shapes = (
{
closed = 1;
nodes = (
(468,86,l),
(143,278,l),
(143,286,l),
(468,477,l),
(468,573,l),
(52,322,l),
(52,241,l),
(468,-10,l)
);
}
);
width = 600;
},
{
layerId = "7766A055-9583-43BA-9BBE-7DA8199C50F9";
shapes = (
{
closed = 1;
nodes = (
(475,61,l),
(68,304,l),
(68,306,l),
(475,549,l),
(475,572,l),
(45,314,l),
(45,296,l),
(475,38,l)
);
}
);
width = 600;
}
);
unicode = 60;
}
{
glyphname = equal;
layers = (
{
hints = (
{
horizontal = 1;
place = (130,118);
type = Stem;
},
{
horizontal = 1;
place = (362,118);
type = Stem;
}
);
layerId = "C5FC3DAF-4290-4CD4-AD90-77B56B79BFFD";
shapes = (
{
closed = 1;
nodes = (
(493,480,l),
(27,480,l),
(27,362,l),
(493,362,l)
);
},
{
closed = 1;
nodes = (
(493,248,l),
(27,248,l),
(27,130,l),
(493,130,l)
);
}
);
width = 600;
},
{
layerId = "38727D70-1DA2-45B2-A346-FCEACAA78F51";
shapes = (
{
closed = 1;
nodes = (
(493,448,l),
(27,448,l),
(27,370,l),
(493,370,l)
);
},
{
closed = 1;
nodes = (
(493,242,l),
(27,242,l),
(27,164,l),
(493,164,l)
);
}
);
width = 600;
},
{
hints = (
{
horizontal = 1;
place = (207,19);
type = Stem;
},
{
horizontal = 1;
place = (385,19);
type = Stem;
}
);
layerId = "7766A055-9583-43BA-9BBE-7DA8199C50F9";
shapes = (
{
closed = 1;
nodes = (
(498,404,l),
(22,404,l),
(22,385,l),
(498,385,l)
);
},
{
closed = 1;
nodes = (
(498,226,l),
(22,226,l),
(22,207,l),
(498,207,l)
);
}
);
width = 600;
}
);
unicode = 61;
}
{
glyphname = greater;
layers = (
{
hints = (
{
horizontal = 1;
place = (-2,21);
target = up;
type = BottomGhost;
}
);
layerId = "C5FC3DAF-4290-4CD4-AD90-77B56B79BFFD";
shapes = (
{
closed = 1;
nodes = (
(457,259,l),
(457,346,l),
(63,604,l),
(63,455,l),
(301,305,l),
(301,298,l),
(63,148,l),
(63,-2,l)
);
}
);
width = 600;
},
{
layerId = "38727D70-1DA2-45B2-A346-FCEACAA78F51";
shapes = (
{
closed = 1;
nodes = (
(468,241,l),
(468,323,l),
(52,573,l),
(52,477,l),
(377,286,l),
(377,278,l),
(52,86,l),
(52,-10,l)
);
}
);
width = 600;
},
{
layerId = "7766A055-9583-43BA-9BBE-7DA8199C50F9";
shapes = (
{
closed = 1;
nodes = (
(475,296,l),
(475,314,l),
(45,572,l),
(45,549,l),
(452,306,l),
(452,304,l),
(45,61,l),
(45,38,l)
);
}
);
width = 600;
}
);
unicode = 62;
}
{
glyphname = question;
layers = (
{
hints = (
{
horizontal = 1;
place = (-12,176);
type = Stem;
},
{
horizontal = 1;
place = (233,153);
type = Stem;
},
{
horizontal = 1;
place = (584,126);
type = Stem;
},
{
place = (103,175);
type = Stem;
}
);
layerId = "0AD2E2E0-FC0D-4C67-836B-444215FA4DDA";
shapes = (
{
closed = 1;
nodes = (
(291,305,l),
(354,316,o),
(414,350,o),
(453,406,cs),
(473,434,o),
(485,467,o),
(490,504,cs),
(501,585,o),
(472,649,o),
(408,684,cs),
(376,701,o),
(337,710,o),
(291,710,cs),
(202,710,o),
(138,675,o),
(96,627,cs),
(75,602,o),
(59,577,o),
(47,550,c),
(159,499,l),
(178,548,o),
(217,584,o),
(268,584,cs),
(315,584,o),
(344,557,o),
(337,506,cs),
(335,492,ls),
(325,419,o),
(268,390,o),
(165,386,c),
(144,233,l),
(281,233,l)
);
},
{
closed = 1;
nodes = (
(242,-12,o),
(272,21,o),
(278,64,cs),
(281,88,ls),
(287,131,o),
(266,164,o),
(204,164,cs),
(142,164,o),
(112,131,o),
(106,88,cs),
(103,64,ls),
(97,21,o),
(118,-12,o),
(180,-12,cs)
);
}
);
width = 481;
},
{
hints = (
{
horizontal = 1;
place = (-12,138);
type = Stem;
},
{
horizontal = 1;
place = (627,83);
type = Stem;
},
{
place = (123,131);
type = Stem;
}
);
layerId = "E22AC71D-DB87-48BC-8161-A09275C341BE";
shapes = (
{
closed = 1;
nodes = (
(268,314,l),
(328,326,o),
(392,356,o),
(435,413,cs),
(456,441,o),
(469,476,o),
(475,518,cs),
(486,595,o),
(461,654,o),
(405,686,cs),
(377,702,o),
(342,710,o),
(300,710,cs),
(218,710,o),
(155,677,o),
(114,628,cs),
(93,603,o),
(76,577,o),
(63,548,c),
(140,516,l),
(165,580,o),
(213,627,o),
(285,627,cs),
(351,627,o),
(388,586,o),
(379,521,cs),
(377,507,ls),
(366,426,o),
(296,379,o),
(190,375,c),
(167,213,l),
(254,213,l)
);
},
{
closed = 1;
nodes = (
(225,-12,o),
(249,13,o),
(254,49,cs),
(256,65,ls),
(261,101,o),
(245,126,o),
(199,126,cs),
(155,126,o),
(131,101,o),
(126,65,c),
(123,49,l),
(118,13,o),
(135,-12,o),
(179,-12,cs)
);
}
);
width = 481;
},
{
hints = (
{
horizontal = 1;
place = (-5,58);
type = Stem;
},
{
horizontal = 1;
place = (691,19);
type = Stem;
},
{
place = (158,52);
type = Stem;
}
);
layerId = "CC8B04B6-4F30-41C2-BC1D-B124A9E292F1";
shapes = (
{
closed = 1;
nodes = (
(238,330,l),
(324,338,o),
(388,373,o),
(427,430,cs),
(446,459,o),
(459,492,o),
(464,531,cs),
(474,603,o),
(451,658,o),
(401,688,cs),
(377,703,o),
(345,710,o),
(307,710,cs),
(237,710,o),
(182,685,o),
(142,641,cs),
(122,618,o),
(104,591,o),
(91,559,c),
(110,554,l),
(147,641,o),
(208,691,o),
(305,691,cs),
(406,691,o),
(455,630,o),
(443,542,cs),
(439,516,ls),
(425,419,o),
(344,352,o),
(219,349,c),
(195,176,l),
(217,176,l)
);
},
{
closed = 1;
nodes = (
(197,-5,o),
(208,4,o),
(210,20,c),
(212,28,l),
(214,44,o),
(208,53,o),
(189,53,cs),
(172,53,o),
(161,44,o),
(159,28,cs),
(158,20,ls),
(156,4,o),
(163,-5,o),
(180,-5,cs)
);
}
);
width = 481;
}
);
unicode = 63;
}
{
glyphname = at;
layers = (
{
hints = (
{
horizontal = 1;
place = (-121,88);
type = Stem;
},
{
horizontal = 1;
place = (82,88);
type = Stem;
},
{
horizontal = 1;
place = (407,91);
type = Stem;
},
{
horizontal = 1;
place = (622,87);
type = Stem;
}
);
layerId = "0AD2E2E0-FC0D-4C67-836B-444215FA4DDA";
shapes = (
{
closed = 1;
nodes = (
(412,-33,ls),
(321,-33,o),
(250,-3,o),
(205,52,cs),
(160,106,o),
(140,181,o),
(153,272,cs),
(159,310,ls),
(172,401,o),
(211,478,o),
(272,534,cs),
(333,590,o),
(413,622,o),
(504,622,cs),
(615,622,o),
(697,576,o),
(735,495,cs),
(754,454,o),
(759,405,o),
(751,348,cs),
(747,320,ls),
(733,219,o),
(696,170,o),
(652,170,cs),
(625,170,o),
(610,187,o),
(615,220,cs),
(653,489,l),
(544,489,l),
(535,420,l),
(530,420,l),
(524,464,o),
(494,498,o),
(440,498,cs),
(382,498,o),
(330,466,o),
(295,405,cs),
(278,374,o),
(266,336,o),
(260,291,cs),
(247,200,o),
(266,139,o),
(308,108,c),
(328,92,o),
(354,84,o),
(382,84,cs),
(414,84,o),
(441,93,o),
(462,110,cs),
(482,127,o),
(496,149,o),
(507,176,c),
(512,176,l),
(508,120,o),
(551,82,o),
(622,82,cs),
(696,82,o),
(758,123,o),
(799,199,cs),
(819,237,o),
(833,282,o),
(840,335,cs),
(856,450,o),
(832,542,o),
(775,608,cs),
(718,674,o),
(630,709,o),
(517,709,cs),
(356,709,o),
(224,634,o),
(143,508,cs),
(102,445,o),
(76,372,o),
(65,291,cs),
(42,128,o),
(88,0,o),
(196,-69,cs),
(250,-104,o),
(318,-121,o),
(400,-121,cs),
(606,-121,l),
(618,-33,l)
);
},
{
closed = 1;
nodes = (
(388,175,o),
(362,209,o),
(369,257,cs),
(378,325,ls),
(385,373,o),
(420,407,o),
(467,407,cs),
(491,407,o),
(510,397,o),
(520,381,cs),
(525,373,o),
(527,364,o),
(525,353,cs),
(509,237,ls),
(506,217,o),
(489,196,o),
(468,184,cs),
(456,178,o),
(446,175,o),
(435,175,cs)
);
}
);
width = 893;
},
{
hints = (
{
horizontal = 1;
place = (-121,66);
type = Stem;
},
{
horizontal = 1;
place = (72,71);
type = Stem;
},
{
horizontal = 1;
place = (436,71);
type = Stem;
},
{
horizontal = 1;
place = (643,65);
type = Stem;
}
);
layerId = "E22AC71D-DB87-48BC-8161-A09275C341BE";
shapes = (
{
closed = 1;
nodes = (
(403,-55,ls),
(310,-55,o),
(238,-22,o),
(192,35,cs),
(145,91,o),
(126,169,o),
(139,264,cs),
(147,319,ls),
(160,411,o),
(202,491,o),
(266,550,cs),
(329,609,o),
(413,643,o),
(506,643,cs),
(619,643,o),
(704,593,o),
(744,507,cs),
(764,464,o),
(770,413,o),
(762,354,cs),
(756,312,ls),
(741,203,o),
(701,138,o),
(642,138,cs),
(608,138,o),
(591,152,o),
(598,201,cs),
(640,498,l),
(565,498,l),
(555,430,l),
(551,430,l),
(541,473,o),
(511,507,o),
(452,507,cs),
(393,507,o),
(335,475,o),
(296,411,cs),
(276,379,o),
(262,338,o),
(255,289,cs),
(242,193,o),
(266,128,o),
(312,96,cs),
(335,80,o),
(362,72,o),
(391,72,cs),
(421,72,o),
(448,80,o),
(469,96,cs),
(490,111,o),
(508,132,o),
(524,159,c),
(528,159,l),
(526,107,o),
(555,71,o),
(618,71,cs),
(699,71,o),
(758,121,o),
(792,197,cs),
(809,235,o),
(821,278,o),
(828,325,cs),
(847,460,o),
(817,555,o),
(758,617,cs),
(699,679,o),
(613,708,o),
(516,708,cs),
(360,708,o),
(231,633,o),
(151,507,cs),
(110,444,o),
(84,371,o),
(72,289,cs),
(49,125,o),
(96,-2,o),
(200,-70,cs),
(252,-104,o),
(317,-121,o),
(393,-121,cs),
(616,-121,l),
(625,-55,l)
);
},
{
closed = 1;
nodes = (
(356,143,o),
(329,186,o),
(338,251,cs),
(349,328,ls),
(358,393,o),
(397,436,o),
(461,436,cs),
(504,436,o),
(531,420,o),
(541,396,cs),
(546,383,o),
(546,369,o),
(544,353,cs),
(527,232,ls),
(522,196,o),
(504,169,o),
(474,154,c),
(458,147,o),
(441,143,o),
(420,143,cs)
);
}
);
width = 893;
},
{
hints = (
{
horizontal = 1;
place = (-121,18);
type = Stem;
},
{
horizontal = 1;
place = (69,18);
type = Stem;
},
{
horizontal = 1;
place = (490,18);
type = Stem;
},
{
horizontal = 1;
place = (692,18);
type = Stem;
}
);
layerId = "CC8B04B6-4F30-41C2-BC1D-B124A9E292F1";
shapes = (
{
closed = 1;
nodes = (
(392,-103,ls),
(294,-103,o),
(215,-65,o),
(163,2,cs),
(111,69,o),
(88,162,o),
(104,274,cs),
(112,326,ls),
(127,433,o),
(175,524,o),
(246,589,cs),
(317,654,o),
(408,692,o),
(506,692,cs),
(634,692,o),
(731,632,o),
(777,531,cs),
(800,480,o),
(807,421,o),
(797,352,cs),
(791,305,ls),
(772,168,o),
(713,87,o),
(642,87,cs),
(598,87,o),
(575,119,o),
(581,163,cs),
(627,496,l),
(608,496,l),
(599,433,l),
(596,433,l),
(585,470,o),
(546,508,o),
(474,508,cs),
(403,508,o),
(348,475,o),
(312,410,cs),
(294,377,o),
(282,336,o),
(275,287,cs),
(262,191,o),
(280,126,o),
(326,94,c),
(348,77,o),
(378,69,o),
(413,69,cs),
(449,69,o),
(478,78,o),
(503,95,cs),
(527,112,o),
(546,129,o),
(557,148,c),
(560,148,l),
(558,101,o),
(589,69,o),
(640,69,cs),
(707,69,o),
(753,119,o),
(784,199,c),
(798,238,o),
(809,282,o),
(816,330,cs),
(833,453,o),
(807,548,o),
(750,613,cs),
(692,677,o),
(607,710,o),
(509,710,cs),
(372,710,o),
(246,642,o),
(165,519,cs),
(124,458,o),
(98,385,o),
(86,300,cs),
(61,120,o),
(112,-7,o),
(213,-72,cs),
(263,-105,o),
(322,-121,o),
(390,-121,cs),
(621,-121,l),
(624,-103,l)
);
},
{
closed = 1;
nodes = (
(320,87,o),
(278,157,o),
(294,268,cs),
(299,306,ls),
(315,421,o),
(377,490,o),
(472,490,cs),
(520,490,o),
(560,468,o),
(580,430,cs),
(590,411,o),
(593,388,o),
(589,362,cs),
(568,212,ls),
(561,163,o),
(527,123,o),
(484,103,cs),
(462,92,o),
(439,87,o),
(415,87,cs)
);
}
);
width = 893;
}
);
unicode = 64;
}
{
glyphname = A;
layers = (
{
anchors = (
{
name = m.ring;
position = "{289, 698}";
},
{
name = m.uni02BC_1;
position = "{-33, 0}";
},
{
name = b.cedilla_2;
position = "{289, 0}";
},
{
name = b.ogonek_3;
position = "{585, 0}";
}
);
hints = (
{
horizontal = 1;
place = (0,21);
target = up;
type = BottomGhost;
},
{
horizontal = 1;
place = (166,129);
type = Stem;
}
);
layerId = "0AD2E2E0-FC0D-4C67-836B-444215FA4DDA";
shapes = (
{
closed = 1;
nodes = (
(477,698,l),
(292,698,l),
(-31,0,l),
(120,0,l),
(192,166,l),
(420,166,l),
(446,0,l),
(601,0,l)
);
},
{
closed = 1;
nodes = (
(245,295,l),
(308,440,l),
(358,560,l),
(363,560,l),
(381,440,l),
(402,295,l)
);
}
);
width = 649;
},
{
anchors = (
{
name = m.ring;
position = "{290, 698}";
},
{
name = m.uni02BC_1;
position = "{-32, 0}";
},
{
name = b.cedilla_2;
position = "{290, 0}";
},
{
name = b.ogonek_3;
position = "{586, 0}";
}
);
hints = (
{
horizontal = 1;
place = (0,21);
target = up;
type = BottomGhost;
},
{
horizontal = 1;
place = (198,85);
type = Stem;
}
);
layerId = "E22AC71D-DB87-48BC-8161-A09275C341BE";
shapes = (
{
closed = 1;
nodes = (
(443,698,l),
(323,698,l),
(-12,0,l),
(85,0,l),
(178,198,l),
(444,198,l),
(482,0,l),
(581,0,l)
);
},
{
closed = 1;
nodes = (
(212,283,l),
(322,515,l),
(366,609,l),
(371,609,l),
(388,515,l),
(433,283,l)
);
}
);
width = 649;
},
{
anchors = (
{
name = m.ring;
position = "{292, 698}";
},
{
name = m.uni02BC_1;
position = "{-30, 0}";
},
{
name = b.cedilla_2;
position = "{292, 0}";
},
{
name = b.ogonek_3;
position = "{588, 0}";
}
);
hints = (
{
horizontal = 1;
place = (0,21);
target = up;
type = BottomGhost;
},
{
horizontal = 1;
place = (234,19);
type = Stem;
}
);
layerId = "CC8B04B6-4F30-41C2-BC1D-B124A9E292F1";
shapes = (
{
closed = 1;
nodes = (
(396,698,l),
(367,698,l),
(21,0,l),
(44,0,l),
(160,234,l),
(473,234,l),
(524,0,l),
(546,0,l)
);
},
{
closed = 1;
nodes = (
(169,253,l),
(302,524,l),
(377,675,l),
(379,675,l),
(412,524,l),
(469,253,l)
);
}
);
width = 649;
}
);
leftKerningGroup = A2;
rightKerningGroup = A;
unicode = 65;
}
{
glyphname = B;
layers = (
{
anchors = (
{
name = m.ring;
position = "{277, 698}";
},
{
name = m.uni02BC_1;
position = "{-30, 0}";
},
{
name = b.cedilla_2;
position = "{277, 0}";
},
{
name = b.ogonek_3;
position = "{-30, 0}";
}
);
hints = (
{
horizontal = 1;
place = (0,128);
type = Stem;
},
{
horizontal = 1;
place = (288,124);
type = Stem;
},
{
horizontal = 1;
place = (570,128);
type = Stem;
}
);
layerId = "C5FC3DAF-4290-4CD4-AD90-77B56B79BFFD";
shapes = (
{
closed = 1;
nodes = (
(397,0,ls),
(465,0,o),
(525,39,o),
(565,99,cs),
(584,129,o),
(597,162,o),
(602,199,cs),
(610,259,o),
(595,301,o),
(567,326,cs),
(539,351,o),
(503,363,o),
(471,363,c),
(472,369,l),
(519,372,o),
(561,390,o),
(591,434,cs),
(605,455,o),
(615,484,o),
(620,519,cs),
(635,627,o),
(578,698,o),
(465,698,cs),
(133,698,l),
(35,0,l)
);
},
{
closed = 1;
nodes = (
(396,288,ls),
(422,288,o),
(439,278,o),
(447,259,cs),
(451,250,o),
(452,238,o),
(450,225,cs),
(446,191,l),
(442,164,o),
(428,146,o),
(408,136,cs),
(397,131,o),
(386,128,o),
(373,128,cs),
(202,128,l),
(224,288,l)
);
},
{
closed = 1;
nodes = (
(412,570,ls),
(438,570,o),
(456,560,o),
(463,541,cs),
(466,531,o),
(467,519,o),
(465,506,cs),
(461,476,ls),
(457,449,o),
(445,430,o),
(425,420,cs),
(414,415,o),
(402,412,o),
(389,412,cs),
(241,412,l),
(264,570,l)
);
}
);
width = 656;
},
{
anchors = (
{
name = m.ring;
position = "{279, 698}";
},
{
name = m.uni02BC_1;
position = "{-28, 0}";
},
{
name = b.cedilla_2;
position = "{279, 0}";
},
{
name = b.ogonek_3;
position = "{-28, 0}";
}
);
hints = (
{
horizontal = 1;
place = (0,84);
type = Stem;
},
{
horizontal = 1;
place = (317,82);
type = Stem;
},
{
horizontal = 1;
place = (614,84);
type = Stem;
}
);
layerId = "38727D70-1DA2-45B2-A346-FCEACAA78F51";
shapes = (
{
closed = 1;
nodes = (
(374,0,ls),
(442,0,o),
(502,38,o),
(542,99,c),
(561,130,o),
(574,164,o),
(579,201,cs),
(587,261,o),
(572,300,o),
(547,325,cs),
(522,350,o),
(490,363,o),
(464,364,c),
(465,370,l),
(500,374,o),
(541,393,o),
(570,435,cs),
(585,456,o),
(594,483,o),
(599,518,cs),
(614,627,o),
(556,698,o),
(443,698,cs),
(152,698,l),
(54,0,l)
);
},
{
closed = 1;
nodes = (
(390,317,ls),
(433,317,o),
(462,301,o),
(475,272,cs),
(482,257,o),
(483,239,o),
(480,218,cs),
(476,184,ls),
(470,141,o),
(447,111,o),
(415,96,cs),
(398,88,o),
(380,84,o),
(358,84,cs),
(161,84,l),
(194,317,l)
);
},
{
closed = 1;
nodes = (
(417,614,ls),
(456,614,o),
(483,599,o),
(495,572,cs),
(501,559,o),
(503,542,o),
(500,523,cs),
(495,490,ls),
(490,451,o),
(470,425,o),
(439,410,cs),
(423,403,o),
(406,399,o),
(386,399,cs),
(205,399,l),
(235,614,l)
);
}
);
width = 656;
},
{
anchors = (
{
name = m.ring;
position = "{281, 698}";
},
{
name = m.uni02BC_1;
position = "{-26, 0}";
},
{
name = b.cedilla_2;
position = "{281, 0}";
},
{
name = b.ogonek_3;
position = "{-26, 0}";
}
);
hints = (
{
horizontal = 1;
place = (0,20);
type = Stem;
},
{
horizontal = 1;
place = (358,20);
type = Stem;
},
{
horizontal = 1;
place = (678,20);
type = Stem;
}
);
layerId = "7766A055-9583-43BA-9BBE-7DA8199C50F9";
shapes = (
{
closed = 1;
nodes = (
(353,0,ls),
(427,0,o),
(485,33,o),
(518,90,cs),
(535,118,o),
(545,151,o),
(550,189,cs),
(557,238,o),
(553,279,o),
(536,310,cs),
(519,341,o),
(490,361,o),
(448,369,c),
(448,371,l),
(490,384,o),
(523,412,o),
(545,454,c),
(555,475,o),
(562,499,o),
(566,528,cs),
(582,639,o),
(533,698,o),
(436,698,cs),
(189,698,l),
(90,0,l)
);
},
{
closed = 1;
nodes = (
(403,358,ls),
(471,358,o),
(510,327,o),
(524,282,c),
(532,259,o),
(534,235,o),
(530,210,cs),
(524,168,ls),
(517,117,o),
(489,69,o),
(442,41,cs),
(418,27,o),
(390,20,o),
(356,20,cs),
(115,20,l),
(162,358,l)
);
},
{
closed = 1;
nodes = (
(433,678,ls),
(493,678,o),
(527,651,o),
(541,612,cs),
(547,593,o),
(549,572,o),
(546,549,cs),
(540,507,ls),
(534,463,o),
(510,421,o),
(468,397,cs),
(447,384,o),
(421,378,o),
(391,378,cs),
(165,378,l),
(207,678,l)
);
}
);
width = 656;
}
);
unicode = 66;
}
{
glyphname = C;
layers = (
{
anchors = (
{
name = m.ring;
position = "{307, 698}";
},
{
name = m.uni02BC_1;
position = "{-31, 0}";
},
{
name = b.cedilla_2;
position = "{307, 0}";
},
{
name = b.ogonek_3;
position = "{-31, 0}";
}
);
hints = (
{
horizontal = 1;
place = (-12,135);
type = Stem;
},
{
horizontal = 1;
place = (575,135);
type = Stem;
}
);
layerId = "C5FC3DAF-4290-4CD4-AD90-77B56B79BFFD";
shapes = (
{
closed = 1;
nodes = (
(430,-12,o),
(520,50,o),
(586,155,c),
(475,227,l),
(446,170,o),
(398,123,o),
(324,123,cs),
(237,123,o),
(188,184,o),
(203,293,cs),
(218,405,ls),
(226,460,o),
(245,503,o),
(276,532,cs),
(307,561,o),
(343,575,o),
(387,575,cs),
(461,575,o),
(493,537,o),
(501,478,c),
(639,546,l),
(605,658,o),
(531,710,o),
(406,710,cs),
(284,710,o),
(182,652,o),
(117,544,cs),
(85,489,o),
(63,423,o),
(52,344,cs),
(30,187,o),
(67,81,o),
(151,28,cs),
(192,1,o),
(243,-12,o),
(305,-12,cs)
);
}
);
width = 627;
},
{
anchors = (
{
name = m.ring;
position = "{307, 698}";
},
{
name = m.uni02BC_1;
position = "{-31, 0}";
},
{
name = b.cedilla_2;
position = "{307, 0}";
},
{
name = b.ogonek_3;
position = "{-31, 0}";
}
);
hints = (
{
horizontal = 1;
place = (-12,86);
type = Stem;
},
{
horizontal = 1;
place = (624,86);
type = Stem;
}
);
layerId = "38727D70-1DA2-45B2-A346-FCEACAA78F51";
shapes = (
{
closed = 1;
nodes = (
(417,-12,o),
(507,49,o),
(565,149,c),
(495,196,l),
(458,124,o),
(397,74,o),
(312,74,cs),
(199,74,o),
(144,157,o),
(163,293,cs),
(178,399,ls),
(188,467,o),
(211,522,o),
(249,563,cs),
(286,604,o),
(333,624,o),
(389,624,cs),
(471,624,o),
(516,578,o),
(533,509,c),
(618,555,l),
(588,655,o),
(518,710,o),
(401,710,cs),
(284,710,o),
(191,652,o),
(131,544,cs),
(101,489,o),
(79,423,o),
(68,345,cs),
(46,189,o),
(78,83,o),
(155,29,cs),
(193,2,o),
(242,-12,o),
(300,-12,cs)
);
}
);
width = 627;
},
{
anchors = (
{
name = m.ring;
position = "{309, 698}";
},
{
name = m.uni02BC_1;
position = "{-29, 0}";
},
{
name = b.cedilla_2;
position = "{309, 0}";
},
{
name = b.ogonek_3;
position = "{-29, 0}";
}
);
hints = (
{
horizontal = 1;
place = (-12,20);
type = Stem;
},
{
horizontal = 1;
place = (690,20);
type = Stem;
},
{
place = (567,20);
type = Stem;
}
);
layerId = "7766A055-9583-43BA-9BBE-7DA8199C50F9";
shapes = (
{
closed = 1;
nodes = (
(399,-12,o),
(484,49,o),
(532,140,c),
(515,148,l),
(470,61,o),
(394,8,o),
(297,8,cs),
(155,8,o),
(82,113,o),
(112,328,c),
(117,370,l),
(132,477,o),
(164,558,o),
(213,611,cs),
(262,664,o),
(321,690,o),
(393,690,cs),
(482,690,o),
(543,641,o),
(567,558,c),
(587,567,l),
(563,652,o),
(497,710,o),
(396,710,cs),
(289,710,o),
(204,657,o),
(150,550,cs),
(122,496,o),
(102,429,o),
(91,349,cs),
(69,189,o),
(95,83,o),
(163,29,cs),
(197,2,o),
(240,-12,o),
(294,-12,cs)
);
}
);
width = 627;
}
);
leftKerningGroup = C2;
rightKerningGroup = C;
unicode = 67;
}
{
glyphname = D;
layers = (
{
anchors = (
{
name = m.ring;
position = "{277, 698}";
},
{
name = m.uni02BC_1;
position = "{-30, 0}";
},
{
name = b.cedilla_2;
position = "{277, 0}";
},
{
name = b.ogonek_3;
position = "{-30, 0}";
}
);
hints = (
{
horizontal = 1;
place = (0,135);
type = Stem;
},
{
horizontal = 1;
place = (563,135);
type = Stem;
}
);
layerId = "C5FC3DAF-4290-4CD4-AD90-77B56B79BFFD";
shapes = (
{
closed = 1;
nodes = (
(288,0,ls),
(410,0,o),
(508,52,o),
(573,156,cs),
(605,207,o),
(627,272,o),
(638,349,cs),
(660,504,o),
(622,607,o),
(539,659,cs),
(498,685,o),
(447,698,o),
(386,698,cs),
(128,698,l),
(30,0,l)
);
},
{
closed = 1;
nodes = (
(258,563,l),
(367,563,ls),
(426,563,o),
(467,541,o),
(484,494,cs),
(492,471,o),
(493,440,o),
(488,403,cs),
(472,295,ls),
(462,222,o),
(432,175,o),
(386,152,cs),
(363,141,o),
(336,135,o),
(307,135,cs),
(198,135,l)
);
}
);
width = 676;
},
{
anchors = (
{
name = m.ring;
position = "{279, 698}";
},
{
name = m.uni02BC_1;
position = "{-28, 0}";
},
{
name = b.cedilla_2;
position = "{279, 0}";
},
{
name = b.ogonek_3;
position = "{-28, 0}";
}
);
hints = (
{
horizontal = 1;
place = (0,86);
type = Stem;
},
{
horizontal = 1;
place = (612,86);
type = Stem;
}
);
layerId = "38727D70-1DA2-45B2-A346-FCEACAA78F51";
shapes = (
{
closed = 1;
nodes = (
(288,0,ls),
(405,0,o),
(498,51,o),
(560,155,cs),
(590,206,o),
(610,271,o),
(621,349,cs),
(643,505,o),
(610,608,o),
(532,660,cs),
(493,685,o),
(444,698,o),
(386,698,cs),
(152,698,l),
(54,0,l)
);
},
{
closed = 1;
nodes = (
(235,612,l),
(374,612,ls),
(448,612,o),
(499,581,o),
(522,519,c),
(532,488,o),
(534,450,o),
(528,405,cs),
(513,293,ls),
(500,204,o),
(459,142,o),
(400,110,cs),
(370,94,o),
(336,86,o),
(300,86,cs),
(161,86,l)
);
}
);
width = 676;
},
{
anchors = (
{
name = m.ring;
position = "{281, 698}";
},
{
name = m.uni02BC_1;
position = "{-26, 0}";
},
{
name = b.cedilla_2;
position = "{281, 0}";
},
{
name = b.ogonek_3;
position = "{-26, 0}";
}
);
hints = (
{
horizontal = 1;
place = (0,20);
type = Stem;
},
{
horizontal = 1;
place = (678,20);
type = Stem;
}
);
layerId = "7766A055-9583-43BA-9BBE-7DA8199C50F9";
shapes = (
{
closed = 1;
nodes = (
(280,0,ls),
(402,0,o),
(489,52,o),
(543,156,cs),
(570,208,o),
(589,272,o),
(600,349,cs),
(622,504,o),
(598,607,o),
(525,659,cs),
(488,685,o),
(439,698,o),
(378,698,cs),
(179,698,l),
(80,0,l)
);
},
{
closed = 1;
nodes = (
(197,678,l),
(377,678,ls),
(491,678,o),
(554,626,o),
(577,537,c),
(587,492,o),
(590,440,o),
(581,379,cs),
(572,319,ls),
(555,199,o),
(509,106,o),
(430,57,cs),
(390,32,o),
(341,20,o),
(284,20,cs),
(105,20,l)
);
}
);
width = 676;
}
);
rightKerningGroup = D;
unicode = 68;
}
{
glyphname = E;
layers = (
{
anchors = (
{
name = m.ring;
position = "{274, 698}";
},
{
name = m.uni02BC_1;
position = "{-30, 0}";
},
{
name = b.cedilla_2;
position = "{274, 0}";
},
{
name = b.ogonek_3;
position = "{489, 0}";
}
);
hints = (
{
horizontal = 1;
place = (0,135);
type = Stem;
},
{
horizontal = 1;
place = (286,134);
type = Stem;
},
{
horizontal = 1;
place = (563,135);
type = Stem;
}
);
layerId = "C5FC3DAF-4290-4CD4-AD90-77B56B79BFFD";
shapes = (
{
closed = 1;
nodes = (
(515,135,l),
(199,135,l),
(220,286,l),
(492,286,l),
(510,420,l),
(239,420,l),
(259,563,l),
(576,563,l),
(595,698,l),
(129,698,l),
(31,0,l),
(496,0,l)
);
}
);
width = 588;
},
{
anchors = (
{
name = m.ring;
position = "{275, 698}";
},
{
name = m.uni02BC_1;
position = "{-29, 0}";
},
{
name = b.cedilla_2;
position = "{275, 0}";
},
{
name = b.ogonek_3;
position = "{490, 0}";
}
);
hints = (
{
horizontal = 1;
place = (0,86);
type = Stem;
},
{
horizontal = 1;
place = (310,86);
type = Stem;
},
{
horizontal = 1;
place = (612,86);
type = Stem;
}
);
layerId = "38727D70-1DA2-45B2-A346-FCEACAA78F51";
shapes = (
{
closed = 1;
nodes = (
(491,86,l),
(160,86,l),
(192,310,l),
(498,310,l),
(510,396,l),
(204,396,l),
(234,612,l),
(565,612,l),
(577,698,l),
(151,698,l),
(53,0,l),
(479,0,l)
);
}
);
width = 588;
},
{
anchors = (
{
name = m.ring;
position = "{277, 698}";
},
{
name = m.uni02BC_1;
position = "{-27, 0}";
},
{
name = b.cedilla_2;
position = "{277, 0}";
},
{
name = b.ogonek_3;
position = "{492, 0}";
}
);
hints = (
{
horizontal = 1;
place = (0,20);
type = Stem;
},
{
horizontal = 1;
place = (344,20);
type = Stem;
},
{
horizontal = 1;
place = (678,20);
type = Stem;
}
);
layerId = "7766A055-9583-43BA-9BBE-7DA8199C50F9";
shapes = (
{
closed = 1;
nodes = (
(459,20,l),
(107,20,l),
(153,344,l),
(493,344,l),
(496,364,l),
(156,364,l),
(200,678,l),
(552,678,l),
(555,698,l),
(181,698,l),
(83,0,l),
(456,0,l)
);
}
);
width = 588;
}
);
rightKerningGroup = E;
unicode = 69;
}
{
glyphname = F;
layers = (
{
anchors = (
{
name = m.ring;
position = "{270, 698}";
},
{
name = m.uni02BC_1;
position = "{-31, 0}";
},
{
name = b.cedilla_2;
position = "{249, 0}";
},
{
name = b.ogonek_3;
position = "{-31, 0}";
}
);
hints = (
{
horizontal = 1;
place = (0,21);
target = up;
type = BottomGhost;
},
{
horizontal = 1;
place = (286,134);
type = Stem;
},
{
horizontal = 1;
place = (563,135);
type = Stem;
}
);
layerId = "C5FC3DAF-4290-4CD4-AD90-77B56B79BFFD";
shapes = (
{
closed = 1;
nodes = (
(218,286,l),
(478,286,l),
(497,420,l),
(237,420,l),
(257,563,l),
(562,563,l),
(581,698,l),
(127,698,l),
(29,0,l),
(178,0,l)
);
}
);
width = 564;
},
{
anchors = (
{
name = m.ring;
position = "{272, 698}";
},
{
name = m.uni02BC_1;
position = "{-29, 0}";
},
{
name = b.cedilla_2;
position = "{251, 0}";
},
{
name = b.ogonek_3;
position = "{-29, 0}";
}
);
hints = (
{
horizontal = 1;
place = (0,21);
target = up;
type = BottomGhost;
},
{
horizontal = 1;
place = (310,86);
type = Stem;
},
{
horizontal = 1;
place = (612,86);
type = Stem;
}
);
layerId = "38727D70-1DA2-45B2-A346-FCEACAA78F51";
shapes = (
{
closed = 1;
nodes = (
(192,310,l),
(482,310,l),
(494,396,l),
(204,396,l),
(234,612,l),
(555,612,l),
(567,698,l),
(151,698,l),
(53,0,l),
(148,0,l)
);
}
);
width = 564;
},
{
anchors = (
{
name = m.ring;
position = "{273, 698}";
},
{
name = m.uni02BC_1;
position = "{-28, 0}";
},
{
name = b.cedilla_2;
position = "{252, 0}";
},
{
name = b.ogonek_3;
position = "{-28, 0}";
}
);
hints = (
{
horizontal = 1;
place = (0,21);
target = up;
type = BottomGhost;
},
{
horizontal = 1;
place = (344,20);
type = Stem;
},
{
horizontal = 1;
place = (678,20);
type = Stem;
}
);
layerId = "7766A055-9583-43BA-9BBE-7DA8199C50F9";
shapes = (
{
closed = 1;
nodes = (
(153,344,l),
(483,344,l),
(486,364,l),
(156,364,l),
(200,678,l),
(544,678,l),
(547,698,l),
(181,698,l),
(83,0,l),
(105,0,l)
);
}
);
width = 564;
}
);
unicode = 70;
}
{
glyphname = H;
layers = (
{
anchors = (
{
name = m.ring;
position = "{326, 698}";
},
{
name = m.uni02BC_1;
position = "{-28, 0}";
},
{
name = b.cedilla_2;
position = "{326, 0}";
},
{
name = b.ogonek_3;
position = "{-28, 0}";
}
);
hints = (
{
horizontal = 1;
place = (0,21);
target = up;
type = BottomGhost;
},
{
horizontal = 1;
place = (286,134);
type = Stem;
}
);
layerId = "C5FC3DAF-4290-4CD4-AD90-77B56B79BFFD";
shapes = (
{
closed = 1;
nodes = (
(594,0,l),
(692,698,l),
(543,698,l),
(504,420,l),
(244,420,l),
(283,698,l),
(134,698,l),
(36,0,l),
(185,0,l),
(225,286,l),
(486,286,l),
(445,0,l)
);
}
);
width = 710;
},
{
anchors = (
{
name = m.ring;
position = "{327, 698}";
},
{
name = m.uni02BC_1;
position = "{-27, 0}";
},
{
name = b.cedilla_2;
position = "{327, 0}";
},
{
name = b.ogonek_3;
position = "{-27, 0}";
}
);
hints = (
{
horizontal = 1;
place = (0,21);
target = up;
type = BottomGhost;
},
{
horizontal = 1;
place = (310,86);
type = Stem;
}
);
layerId = "38727D70-1DA2-45B2-A346-FCEACAA78F51";
shapes = (
{
closed = 1;
nodes = (
(574,0,l),
(672,698,l),
(577,698,l),
(535,396,l),
(206,396,l),
(248,698,l),
(153,698,l),
(55,0,l),
(150,0,l),
(194,310,l),
(523,310,l),
(479,0,l)
);
}
);
width = 710;
},
{
anchors = (
{
name = m.ring;
position = "{329, 698}";
},
{
name = m.uni02BC_1;
position = "{-25, 0}";
},
{
name = b.cedilla_2;
position = "{329, 0}";
},
{
name = b.ogonek_3;
position = "{-25, 0}";
}
);
hints = (
{
horizontal = 1;
place = (0,21);
target = up;
type = BottomGhost;
},
{
horizontal = 1;
place = (344,20);
type = Stem;
}
);
layerId = "7766A055-9583-43BA-9BBE-7DA8199C50F9";
shapes = (
{
closed = 1;
nodes = (
(548,0,l),
(646,698,l),
(624,698,l),
(578,364,l),
(154,364,l),
(201,698,l),
(180,698,l),
(81,0,l),
(103,0,l),
(151,344,l),
(575,344,l),
(526,0,l)
);
}
);
width = 710;
}
);
unicode = 72;
}
{
glyphname = I;
layers = (
{
anchors = (
{
name = m.ring;
position = "{97, 698}";
},
{
name = m.uni02BC_1;
position = "{-23, 0}";
},
{
name = b.cedilla_2;
position = "{177, 0}";
},
{
name = b.ogonek_3;
position = "{317, 0}";
}
);
hints = (
{
horizontal = 1;
place = (0,21);
target = up;
type = BottomGhost;
},
{
place = (23,247);
type = Stem;
}
);
layerId = "0AD2E2E0-FC0D-4C67-836B-444215FA4DDA";
shapes = (
{
closed = 1;
nodes = (
(171,0,l),
(270,698,l),
(121,698,l),
(23,0,l)
);
}
);
width = 274;
},
{
anchors = (
{
name = m.ring;
position = "{106, 698}";
},
{
name = m.uni02BC_1;
position = "{-4, 0}";
},
{
name = b.cedilla_2;
position = "{196, 0}";
},
{
name = b.ogonek_3;
position = "{336, 0}";
}
);
hints = (
{
horizontal = 1;
place = (0,21);
target = up;
type = BottomGhost;
},
{
place = (49,193);
type = Stem;
}
);
layerId = "E22AC71D-DB87-48BC-8161-A09275C341BE";
shapes = (
{
closed = 1;
nodes = (
(144,0,l),
(242,698,l),
(147,698,l),
(49,0,l)
);
}
);
width = 274;
},
{
anchors = (
{
name = m.ring;
position = "{114, 698}";
},
{
name = m.uni02BC_1;
position = "{24, 0}";
},
{
name = b.cedilla_2;
position = "{224, 0}";
},
{
name = b.ogonek_3;
position = "{364, 0}";
}
);
hints = (
{
horizontal = 1;
place = (0,21);
target = up;
type = BottomGhost;
},
{
place = (86,120);
type = Stem;
}
);
layerId = "CC8B04B6-4F30-41C2-BC1D-B124A9E292F1";
shapes = (
{
closed = 1;
nodes = (
(107,0,l),
(206,698,l),
(184,698,l),
(86,0,l)
);
}
);
width = 274;
}
);
leftKerningGroup = I2;
rightKerningGroup = I;
unicode = 73;
}
{
glyphname = J;
layers = (
{
anchors = (
{
name = m.ring;
position = "{330, 698}";
},
{
name = m.uni02BC_1;
position = "{-33, 0}";
},
{
name = b.cedilla_2;
position = "{192, 0}";
},
{
name = b.ogonek_3;
position = "{-33, 0}";
}
);
hints = (
{
horizontal = 1;
place = (-11,133);
type = Stem;
}
);
layerId = "C5FC3DAF-4290-4CD4-AD90-77B56B79BFFD";
shapes = (
{
closed = 1;
nodes = (
(372,698,l),
(304,209,ls),
(296,149,o),
(256,122,o),
(213,122,cs),
(167,122,o),
(143,154,o),
(141,213,c),
(-2,185,l),
(1,68,o),
(61,-11,o),
(196,-11,cs),
(337,-11,o),
(434,74,o),
(452,202,cs),
(521,698,l)
);
}
);
width = 519;
},
{
anchors = (
{
name = m.ring;
position = "{332, 698}";
},
{
name = m.uni02BC_1;
position = "{-31, 0}";
},
{
name = b.cedilla_2;
position = "{194, 0}";
},
{
name = b.ogonek_3;
position = "{-31, 0}";
}
);
hints = (
{
horizontal = 1;
place = (-12,87);
type = Stem;
},
{
place = (15,90);
type = Stem;
}
);
layerId = "38727D70-1DA2-45B2-A346-FCEACAA78F51";
shapes = (
{
closed = 1;
nodes = (
(395,698,l),
(325,198,ls),
(313,115,o),
(268,75,o),
(203,75,cs),
(137,75,o),
(109,114,o),
(105,174,c),
(15,154,l),
(21,55,o),
(78,-12,o),
(190,-12,cs),
(310,-12,o),
(401,65,o),
(418,185,cs),
(491,698,l)
);
}
);
width = 519;
},
{
anchors = (
{
name = m.ring;
position = "{334, 698}";
},
{
name = m.uni02BC_1;
position = "{-29, 0}";
},
{
name = b.cedilla_2;
position = "{196, 0}";
},
{
name = b.ogonek_3;
position = "{-29, 0}";
}
);
hints = (
{
horizontal = 1;
place = (-12,20);
type = Stem;
},
{
place = (31,20);
type = Stem;
}
);
layerId = "7766A055-9583-43BA-9BBE-7DA8199C50F9";
shapes = (
{
closed = 1;
nodes = (
(427,698,l),
(355,183,ls),
(339,71,o),
(281,8,o),
(183,8,cs),
(108,8,o),
(61,56,o),
(51,119,c),
(31,113,l),
(38,39,o),
(100,-12,o),
(181,-12,cs),
(286,-12,o),
(358,55,o),
(376,183,cs),
(449,698,l)
);
}
);
width = 519;
}
);
leftKerningGroup = J2;
rightKerningGroup = J;
unicode = 74;
}
{
glyphname = K;
layers = (
{
anchors = (
{
name = m.ring;
position = "{289, 698}";
},
{
name = m.uni02BC_1;
position = "{-32, 0}";
},
{
name = b.cedilla_2;
position = "{304, 0}";
},
{
name = b.ogonek_3;
position = "{-32, 0}";
}
);
hints = (
{
horizontal = 1;
place = (0,21);
target = up;
type = BottomGhost;
}
);
layerId = "0AD2E2E0-FC0D-4C67-836B-444215FA4DDA";
shapes = (
{
closed = 1;
nodes = (
(610,0,l),
(417,411,l),
(688,698,l),
(519,698,l),
(338,501,l),
(222,366,l),
(216,366,l),
(235,501,l),
(262,698,l),
(113,698,l),
(15,0,l),
(164,0,l),
(192,194,l),
(296,304,l),
(435,0,l)
);
}
);
width = 646;
},
{
anchors = (
{
name = m.ring;
position = "{291, 698}";
},
{
name = m.uni02BC_1;
position = "{-30, 0}";
},
{
name = b.cedilla_2;
position = "{306, 0}";
},
{
name = b.ogonek_3;
position = "{-30, 0}";
}
);
hints = (
{
horizontal = 1;
place = (0,21);
target = up;
type = BottomGhost;
}
);
layerId = "E22AC71D-DB87-48BC-8161-A09275C341BE";
shapes = (
{
closed = 1;
nodes = (
(577,0,l),
(365,401,l),
(657,698,l),
(543,698,l),
(312,458,l),
(197,334,l),
(194,334,l),
(211,458,l),
(245,698,l),
(150,698,l),
(52,0,l),
(147,0,l),
(179,226,l),
(289,336,l),
(461,0,l)
);
}
);
width = 646;
},
{
anchors = (
{
name = m.ring;
position = "{295, 698}";
},
{
name = m.uni02BC_1;
position = "{-26, 0}";
},
{
name = b.cedilla_2;
position = "{310, 0}";
},
{
name = b.ogonek_3;
position = "{-26, 0}";
}
);
hints = (
{
horizontal = 1;
place = (0,21);
target = up;
type = BottomGhost;
}
);
layerId = "CC8B04B6-4F30-41C2-BC1D-B124A9E292F1";
shapes = (
{
closed = 1;
nodes = (
(541,0,l),
(331,403,l),
(636,698,l),
(609,698,l),
(315,413,l),
(168,271,l),
(166,271,l),
(186,413,l),
(226,698,l),
(204,698,l),
(106,0,l),
(128,0,l),
(161,239,l),
(314,387,l),
(516,0,l)
);
}
);
width = 646;
}
);
rightKerningGroup = K;
unicode = 75;
}
{
glyphname = M;
layers = (
{
anchors = (
{
name = m.ring;
position = "{379, 698}";
},
{
name = m.uni02BC_1;
position = "{-27, 0}";
},
{
name = b.cedilla_2;
position = "{379, 0}";
},
{
name = b.ogonek_3;
position = "{-27, 0}";
}
);
hints = (
{
horizontal = 1;
place = (0,21);
target = up;
type = BottomGhost;
}
);
layerId = "0AD2E2E0-FC0D-4C67-836B-444215FA4DDA";
shapes = (
{
closed = 1;
nodes = (
(180,0,l),
(230,350,l),
(246,465,l),
(249,465,l),
(285,355,l),
(381,109,l),
(549,356,l),
(613,458,l),
(616,458,l),
(601,350,l),
(552,0,l),
(692,0,l),
(790,698,l),
(631,698,l),
(516,520,l),
(420,371,l),
(418,371,l),
(362,520,l),
(296,698,l),
(138,698,l),
(40,0,l)
);
}
);
width = 813;
},
{
anchors = (
{
name = m.ring;
position = "{380, 698}";
},
{
name = m.uni02BC_1;
position = "{-26, 0}";
},
{
name = b.cedilla_2;
position = "{380, 0}";
},
{
name = b.ogonek_3;
position = "{-26, 0}";
}
);
hints = (
{
horizontal = 1;
place = (0,21);
target = up;
type = BottomGhost;
}
);
layerId = "E22AC71D-DB87-48BC-8161-A09275C341BE";
shapes = (
{
closed = 1;
nodes = (
(148,0,l),
(211,448,l),
(227,565,l),
(231,565,l),
(272,449,l),
(388,156,l),
(587,449,l),
(659,563,l),
(664,563,l),
(648,448,l),
(585,0,l),
(676,0,l),
(774,698,l),
(659,698,l),
(504,464,l),
(416,331,l),
(412,331,l),
(362,464,l),
(273,698,l),
(154,698,l),
(56,0,l)
);
}
);
width = 813;
},
{
anchors = (
{
name = m.ring;
position = "{382, 698}";
},
{
name = m.uni02BC_1;
position = "{-24, 0}";
},
{
name = b.cedilla_2;
position = "{382, 0}";
},
{
name = b.ogonek_3;
position = "{-24, 0}";
}
);
hints = (
{
horizontal = 1;
place = (0,21);
target = up;
type = BottomGhost;
},
{
horizontal = 1;
place = (673,25);
type = Stem;
}
);
layerId = "CC8B04B6-4F30-41C2-BC1D-B124A9E292F1";
shapes = (
{
closed = 1;
nodes = (
(102,0,l),
(173,504,l),
(197,673,l),
(200,673,l),
(277,504,l),
(399,236,l),
(596,504,l),
(721,673,l),
(724,673,l),
(700,504,l),
(629,0,l),
(650,0,l),
(748,698,l),
(716,698,l),
(524,438,l),
(407,278,l),
(404,278,l),
(330,438,l),
(212,698,l),
(180,698,l),
(82,0,l)
);
}
);
width = 813;
}
);
unicode = 77;
}
{
glyphname = P;
layers = (
{
anchors = (
{
name = m.ring;
position = "{259, 698}";
},
{
name = m.uni02BC_1;
position = "{-31, 0}";
},
{
name = b.cedilla_2;
position = "{259, 0}";
},
{
name = b.ogonek_3;
position = "{-31, 0}";
}
);
hints = (
{
horizontal = 1;
place = (0,21);
target = up;
type = BottomGhost;
},
{
horizontal = 1;
place = (252,132);
type = Stem;
},
{
horizontal = 1;
place = (566,132);
type = Stem;
}
);
layerId = "C5FC3DAF-4290-4CD4-AD90-77B56B79BFFD";
shapes = (
{
closed = 1;
nodes = (
(205,252,l),
(380,252,ls),
(465,252,o),
(533,292,o),
(577,359,cs),
(598,392,o),
(613,431,o),
(619,475,cs),
(631,563,o),
(606,633,o),
(549,670,cs),
(520,689,o),
(484,698,o),
(442,698,cs),
(119,698,l),
(21,0,l),
(170,0,l)
);
},
{
closed = 1;
nodes = (
(406,566,ls),
(436,566,o),
(456,555,o),
(465,535,cs),
(469,525,o),
(470,512,o),
(468,497,cs),
(462,453,ls),
(458,424,o),
(442,403,o),
(420,392,cs),
(409,387,o),
(396,384,o),
(381,384,cs),
(224,384,l),
(249,566,l)
);
}
);
width = 616;
},
{
anchors = (
{
name = m.ring;
position = "{261, 698}";
},
{
name = m.uni02BC_1;
position = "{-29, 0}";
},
{
name = b.cedilla_2;
position = "{261, 0}";
},
{
name = b.ogonek_3;
position = "{-29, 0}";
}
);
hints = (
{
horizontal = 1;
place = (0,21);
target = up;
type = BottomGhost;
},
{
horizontal = 1;
place = (289,85);
type = Stem;
},
{
horizontal = 1;
place = (613,85);
type = Stem;
}
);
layerId = "38727D70-1DA2-45B2-A346-FCEACAA78F51";
shapes = (
{
closed = 1;
nodes = (
(189,289,l),
(376,289,ls),
(458,289,o),
(522,325,o),
(561,386,cs),
(580,417,o),
(593,453,o),
(599,494,cs),
(611,577,o),
(589,640,o),
(536,673,cs),
(509,690,o),
(474,698,o),
(433,698,cs),
(151,698,l),
(53,0,l),
(148,0,l)
);
},
{
closed = 1;
nodes = (
(417,613,ls),
(459,613,o),
(486,598,o),
(498,570,c),
(503,556,o),
(504,539,o),
(501,519,cs),
(494,468,ls),
(488,428,o),
(469,400,o),
(438,385,cs),
(422,378,o),
(405,374,o),
(384,374,cs),
(201,374,l),
(234,613,l)
);
}
);
width = 616;
},
{
anchors = (
{
name = m.ring;
position = "{262, 698}";
},
{
name = m.uni02BC_1;
position = "{-28, 0}";
},
{
name = b.cedilla_2;
position = "{262, 0}";
},
{
name = b.ogonek_3;
position = "{-28, 0}";
}
);
hints = (
{
horizontal = 1;
place = (0,21);
target = up;
type = BottomGhost;
},
{
horizontal = 1;
place = (322,20);
type = Stem;
},
{
horizontal = 1;
place = (678,20);
type = Stem;
}
);
layerId = "7766A055-9583-43BA-9BBE-7DA8199C50F9";
shapes = (
{
closed = 1;
nodes = (
(147,322,l),
(388,322,ls),
(462,322,o),
(520,354,o),
(553,411,cs),
(570,439,o),
(580,472,o),
(585,510,cs),
(596,586,o),
(579,644,o),
(532,675,cs),
(509,690,o),
(478,698,o),
(441,698,cs),
(178,698,l),
(80,0,l),
(102,0,l)
);
},
{
closed = 1;
nodes = (
(438,678,ls),
(506,678,o),
(545,647,o),
(559,603,cs),
(567,580,o),
(569,556,o),
(565,531,cs),
(559,489,ls),
(552,438,o),
(524,391,o),
(477,363,cs),
(453,349,o),
(425,342,o),
(391,342,cs),
(150,342,l),
(197,678,l)
);
}
);
width = 616;
}
);
unicode = 80;
}
{
glyphname = Q;
layers = (
{
anchors = (
{
name = m.ring;
position = "{325, 698}";
},
{
name = m.uni02BC_1;
position = "{-29, 0}";
},
{
name = b.cedilla_2;
position = "{-29, 0}";
},
{
name = b.ogonek_3;
position = "{-29, 0}";
}
);
hints = (
{
horizontal = 1;
place = (-12,135);
type = Stem;
},
{
horizontal = 1;
place = (575,135);
type = Stem;
}
);
layerId = "0AD2E2E0-FC0D-4C67-836B-444215FA4DDA";
shapes = (
{
closed = 1;
nodes = (
(384,-60,l),
(537,-60,l),
(437,227,l),
(290,226,l)
);
},
{
closed = 1;
nodes = (
(435,-12,o),
(534,43,o),
(599,151,cs),
(631,204,o),
(654,270,o),
(665,349,cs),
(687,508,o),
(649,614,o),
(567,669,cs),
(526,696,o),
(475,710,o),
(414,710,cs),
(293,710,o),
(193,655,o),
(128,548,cs),
(96,495,o),
(74,428,o),
(63,349,cs),
(41,192,o),
(78,84,o),
(161,29,cs),
(202,2,o),
(253,-12,o),
(313,-12,cs)
);
},
{
closed = 1;
nodes = (
(273,123,o),
(233,151,o),
(218,203,cs),
(210,229,o),
(208,260,o),
(213,297,cs),
(228,401,ls),
(239,476,o),
(269,527,o),
(316,555,cs),
(339,568,o),
(366,575,o),
(395,575,cs),
(455,575,o),
(495,547,o),
(511,496,c),
(518,470,o),
(519,438,o),
(514,401,cs),
(499,297,ls),
(489,224,o),
(458,171,o),
(412,144,cs),
(388,130,o),
(362,123,o),
(332,123,cs)
);
}
);
width = 709;
},
{
anchors = (
{
name = m.ring;
position = "{326, 698}";
},
{
name = m.uni02BC_1;
position = "{-28, 0}";
},
{
name = b.cedilla_2;
position = "{-28, 0}";
},
{
name = b.ogonek_3;
position = "{-28, 0}";
}
);
hints = (
{
horizontal = 1;
place = (-12,86);
type = Stem;
},
{
horizontal = 1;
place = (624,86);
type = Stem;
}
);
layerId = "E22AC71D-DB87-48BC-8161-A09275C341BE";
shapes = (
{
closed = 1;
nodes = (
(421,-80,l),
(518,-80,l),
(407,231,l),
(315,231,l)
);
},
{
closed = 1;
nodes = (
(432,-12,o),
(530,44,o),
(593,152,cs),
(625,205,o),
(646,271,o),
(657,349,cs),
(679,505,o),
(643,613,o),
(564,669,c),
(524,696,o),
(475,710,o),
(416,710,cs),
(297,710,o),
(199,654,o),
(136,547,cs),
(104,493,o),
(83,427,o),
(72,349,cs),
(50,193,o),
(86,85,o),
(165,30,cs),
(205,2,o),
(254,-12,o),
(314,-12,cs)
);
},
{
closed = 1;
nodes = (
(251,74,o),
(197,112,o),
(174,177,cs),
(162,210,o),
(160,248,o),
(166,292,cs),
(182,406,ls),
(194,494,o),
(239,561,o),
(301,597,cs),
(332,615,o),
(366,624,o),
(404,624,cs),
(479,624,o),
(533,586,o),
(556,521,cs),
(567,488,o),
(569,450,o),
(563,406,cs),
(547,292,ls),
(535,204,o),
(492,137,o),
(430,101,cs),
(399,83,o),
(364,74,o),
(326,74,cs)
);
}
);
width = 709;
},
{
anchors = (
{
name = m.ring;
position = "{328, 698}";
},
{
name = m.uni02BC_1;
position = "{-26, 0}";
},
{
name = b.cedilla_2;
position = "{-26, 0}";
},
{
name = b.ogonek_3;
position = "{-26, 0}";
}
);
hints = (
{
horizontal = 1;
place = (-12,20);
type = Stem;
},
{
horizontal = 1;
place = (690,20);
type = Stem;
}
);
layerId = "CC8B04B6-4F30-41C2-BC1D-B124A9E292F1";
shapes = (
{
closed = 1;
nodes = (
(482,-100,l),
(507,-100,l),
(358,235,l),
(333,235,l)
);
},
{
closed = 1;
nodes = (
(427,-12,o),
(514,42,o),
(570,149,cs),
(598,202,o),
(618,269,o),
(629,349,cs),
(651,509,o),
(624,617,o),
(553,670,cs),
(518,697,o),
(472,710,o),
(415,710,cs),
(301,710,o),
(215,657,o),
(159,550,cs),
(131,496,o),
(110,429,o),
(99,349,cs),
(77,189,o),
(104,83,o),
(175,29,cs),
(210,2,o),
(256,-12,o),
(313,-12,cs)
);
},
{
closed = 1;
nodes = (
(217,8,o),
(150,56,o),
(125,152,cs),
(112,199,o),
(110,258,o),
(120,328,cs),
(126,370,ls),
(146,511,o),
(200,606,o),
(279,654,cs),
(319,678,o),
(362,690,o),
(412,690,cs),
(513,690,o),
(579,642,o),
(605,547,cs),
(617,500,o),
(618,441,o),
(608,370,cs),
(602,328,ls),
(582,188,o),
(529,92,o),
(451,44,cs),
(411,20,o),
(366,8,o),
(316,8,cs)
);
}
);
width = 709;
}
);
leftKerningGroup = C2;
rightKerningGroup = O;
unicode = 81;
}
{
glyphname = T;
layers = (
{
anchors = (
{
name = m.ring;
position = "{253, 698}";
},
{
name = m.uni02BC_1;
position = "{-33, 0}";
},
{
name = b.cedilla_2;
position = "{253, 0}";
},
{
name = b.ogonek_3;
position = "{-33, 0}";
}
);
hints = (
{
horizontal = 1;
place = (0,21);
target = up;
type = BottomGhost;
},
{
horizontal = 1;
place = (563,135);
type = Stem;
}
);
layerId = "0AD2E2E0-FC0D-4C67-836B-444215FA4DDA";
shapes = (
{
closed = 1;
nodes = (
(605,698,l),
(85,698,l),
(66,563,l),
(251,563,l),
(172,0,l),
(321,0,l),
(400,563,l),
(586,563,l)
);
}
);
width = 574;
},
{
anchors = (
{
name = m.ring;
position = "{253, 698}";
},
{
name = m.uni02BC_1;
position = "{-33, 0}";
},
{
name = b.cedilla_2;
position = "{253, 0}";
},
{
name = b.ogonek_3;
position = "{-33, 0}";
}
);
hints = (
{
horizontal = 1;
place = (0,21);
target = up;
type = BottomGhost;
},
{
horizontal = 1;
place = (612,86);
type = Stem;
}
);
layerId = "E22AC71D-DB87-48BC-8161-A09275C341BE";
shapes = (
{
closed = 1;
nodes = (
(603,698,l),
(86,698,l),
(74,612,l),
(286,612,l),
(200,0,l),
(295,0,l),
(381,612,l),
(591,612,l)
);
}
);
width = 574;
},
{
anchors = (
{
name = m.ring;
position = "{253, 698}";
},
{
name = m.uni02BC_1;
position = "{-33, 0}";
},
{
name = b.cedilla_2;
position = "{253, 0}";
},
{
name = b.ogonek_3;
position = "{-33, 0}";
}
);
hints = (
{
horizontal = 1;
place = (0,21);
target = up;
type = BottomGhost;
},
{
horizontal = 1;
place = (678,20);
type = Stem;
}
);
layerId = "CC8B04B6-4F30-41C2-BC1D-B124A9E292F1";
shapes = (
{
closed = 1;
nodes = (
(602,698,l),
(87,698,l),
(84,678,l),
(331,678,l),
(236,0,l),
(257,0,l),
(353,678,l),
(600,678,l)
);
}
);
width = 574;
}
);
leftKerningGroup = T2;
rightKerningGroup = T;
unicode = 84;
}
{
glyphname = U;
layers = (
{
anchors = (
{
name = m.ring;
position = "{309, 698}";
},
{
name = m.uni02BC_1;
position = "{-28, 0}";
},
{
name = b.cedilla_2;
position = "{309, 0}";
},
{
name = b.ogonek_3;
position = "{408, 0}";
}
);
hints = (
{
horizontal = 1;
place = (-12,135);
type = Stem;
}
);
layerId = "0AD2E2E0-FC0D-4C67-836B-444215FA4DDA";
shapes = (
{
closed = 1;
nodes = (
(72,286,ls),
(53,149,o),
(75,62,o),
(147,20,cs),
(183,-2,o),
(233,-12,o),
(299,-12,cs),
(429,-12,o),
(511,29,o),
(559,117,cs),
(583,161,o),
(599,217,o),
(609,286,cs),
(667,698,l),
(522,698,l),
(462,270,ls),
(453,205,o),
(430,162,o),
(392,140,cs),
(372,129,o),
(347,123,o),
(318,123,cs),
(259,123,o),
(225,145,o),
(216,189,c),
(210,210,o),
(210,237,o),
(215,270,cs),
(275,698,l),
(130,698,l)
);
}
);
width = 681;
},
{
anchors = (
{
name = m.ring;
position = "{310, 698}";
},
{
name = m.uni02BC_1;
position = "{-27, 0}";
},
{
name = b.cedilla_2;
position = "{310, 0}";
},
{
name = b.ogonek_3;
position = "{409, 0}";
}
);
hints = (
{
horizontal = 1;
place = (-12,86);
type = Stem;
}
);
layerId = "E22AC71D-DB87-48BC-8161-A09275C341BE";
shapes = (
{
closed = 1;
nodes = (
(91,286,ls),
(72,151,o),
(89,63,o),
(155,20,cs),
(188,-1,o),
(235,-12,o),
(297,-12,cs),
(419,-12,o),
(498,30,o),
(543,119,cs),
(566,163,o),
(582,219,o),
(591,286,cs),
(649,698,l),
(555,698,l),
(495,267,ls),
(483,183,o),
(456,125,o),
(406,96,cs),
(381,81,o),
(350,74,o),
(312,74,cs),
(235,74,o),
(195,104,o),
(183,161,c),
(176,190,o),
(176,225,o),
(182,267,cs),
(243,698,l),
(148,698,l)
);
}
);
width = 681;
},
{
anchors = (
{
name = m.ring;
position = "{312, 698}";
},
{
name = m.uni02BC_1;
position = "{-25, 0}";
},
{
name = b.cedilla_2;
position = "{312, 0}";
},
{
name = b.ogonek_3;
position = "{411, 0}";
}
);
hints = (
{
horizontal = 1;
place = (-12,20);
type = Stem;
}
);
layerId = "CC8B04B6-4F30-41C2-BC1D-B124A9E292F1";
shapes = (
{
closed = 1;
nodes = (
(117,270,ls),
(98,133,o),
(112,52,o),
(172,16,cs),
(202,-3,o),
(244,-12,o),
(299,-12,cs),
(409,-12,o),
(476,22,o),
(516,105,cs),
(535,146,o),
(550,201,o),
(560,270,cs),
(620,698,l),
(598,698,l),
(538,268,ls),
(520,141,o),
(489,68,o),
(426,34,cs),
(394,17,o),
(352,8,o),
(301,8,cs),
(199,8,o),
(148,40,o),
(135,116,cs),
(128,154,o),
(129,205,o),
(138,268,cs),
(198,698,l),
(177,698,l)
);
}
);
width = 681;
}
);
leftKerningGroup = U2;
rightKerningGroup = U;
unicode = 85;
}
{
glyphname = V;
layers = (
{
anchors = (
{
name = m.ring;
position = "{270, 698}";
},
{
name = m.uni02BC_1;
position = "{-34, 0}";
},
{
name = b.cedilla_2;
position = "{270, 0}";
},
{
name = b.ogonek_3;
position = "{-34, 0}";
}
);
hints = (
{
horizontal = 1;
place = (0,21);
target = up;
type = BottomGhost;
}
);
layerId = "C5FC3DAF-4290-4CD4-AD90-77B56B79BFFD";
shapes = (
{
closed = 1;
nodes = (
(671,698,l),
(525,698,l),
(376,363,l),
(293,144,l),
(290,144,l),
(267,363,l),
(212,698,l),
(61,698,l),
(184,0,l),
(350,0,l)
);
}
);
width = 617;
},
{
anchors = (
{
name = m.ring;
position = "{272, 698}";
},
{
name = m.uni02BC_1;
position = "{-32, 0}";
},
{
name = b.cedilla_2;
position = "{272, 0}";
},
{
name = b.ogonek_3;
position = "{-32, 0}";
}
);
hints = (
{
horizontal = 1;
place = (0,21);
target = up;
type = BottomGhost;
}
);
layerId = "38727D70-1DA2-45B2-A346-FCEACAA78F51";
shapes = (
{
closed = 1;
nodes = (
(651,698,l),
(554,698,l),
(393,349,l),
(285,95,l),
(281,95,l),
(245,349,l),
(183,698,l),
(83,698,l),
(212,0,l),
(323,0,l)
);
}
);
width = 617;
},
{
anchors = (
{
name = m.ring;
position = "{274, 698}";
},
{
name = m.uni02BC_1;
position = "{-30, 0}";
},
{
name = b.cedilla_2;
position = "{274, 0}";
},
{
name = b.ogonek_3;
position = "{-30, 0}";
}
);
hints = (
{
horizontal = 1;
place = (0,21);
target = up;
type = BottomGhost;
}
);
layerId = "7766A055-9583-43BA-9BBE-7DA8199C50F9";
shapes = (
{
closed = 1;
nodes = (
(616,698,l),
(594,698,l),
(377,242,l),
(274,25,l),
(271,25,l),
(229,242,l),
(140,698,l),
(116,698,l),
(253,0,l),
(283,0,l)
);
}
);
width = 617;
}
);
unicode = 86;
}
{
glyphname = X;
layers = (
{
anchors = (
{
name = m.ring;
position = "{273, 698}";
},
{
name = m.uni02BC_1;
position = "{-34, 0}";
},
{
name = b.cedilla_2;
position = "{273, 0}";
},
{
name = b.ogonek_3;
position = "{-34, 0}";
}
);
hints = (
{
horizontal = 1;
place = (0,21);
target = up;
type = BottomGhost;
}
);
layerId = "C5FC3DAF-4290-4CD4-AD90-77B56B79BFFD";
shapes = (
{
closed = 1;
nodes = (
(119,0,l),
(299,257,l),
(302,257,l),
(414,0,l),
(586,0,l),
(414,358,l),
(672,698,l),
(512,698,l),
(343,462,l),
(340,462,l),
(240,698,l),
(67,698,l),
(228,361,l),
(-42,0,l)
);
}
);
width = 624;
},
{
anchors = (
{
name = m.ring;
position = "{275, 698}";
},
{
name = m.uni02BC_1;
position = "{-32, 0}";
},
{
name = b.cedilla_2;
position = "{275, 0}";
},
{
name = b.ogonek_3;
position = "{-32, 0}";
}
);
hints = (
{
horizontal = 1;
place = (0,21);
target = up;
type = BottomGhost;
}
);
layerId = "38727D70-1DA2-45B2-A346-FCEACAA78F51";
shapes = (
{
closed = 1;
nodes = (
(95,0,l),
(308,286,l),
(310,286,l),
(444,0,l),
(556,0,l),
(381,358,l),
(648,698,l),
(541,698,l),
(335,428,l),
(332,428,l),
(207,698,l),
(93,698,l),
(261,356,l),
(-12,0,l)
);
}
);
width = 624;
},
{
anchors = (
{
name = m.ring;
position = "{278, 698}";
},
{
name = m.uni02BC_1;
position = "{-29, 0}";
},
{
name = b.cedilla_2;
position = "{278, 0}";
},
{
name = b.ogonek_3;
position = "{-29, 0}";
}
);
hints = (
{
horizontal = 1;
place = (0,21);
target = up;
type = BottomGhost;
}
);
layerId = "7766A055-9583-43BA-9BBE-7DA8199C50F9";
shapes = (
{
closed = 1;
nodes = (
(52,0,l),
(320,335,l),
(322,335,l),
(493,0,l),
(518,0,l),
(336,357,l),
(608,698,l),
(582,698,l),
(326,376,l),
(324,376,l),
(159,698,l),
(133,698,l),
(309,354,l),
(27,0,l)
);
}
);
width = 624;
}
);
unicode = 88;
}
{
glyphname = Z;
layers = (
{
anchors = (
{
name = m.ring;
position = "{265, 698}";
},
{
name = m.uni02BC_1;
position = "{-32, 0}";
},
{
name = b.cedilla_2;
position = "{265, 0}";
},
{
name = b.ogonek_3;
position = "{-32, 0}";
}
);
hints = (
{
horizontal = 1;
place = (0,134);
type = Stem;
},
{
horizontal = 1;
place = (564,134);
type = Stem;
}
);
layerId = "0AD2E2E0-FC0D-4C67-836B-444215FA4DDA";
shapes = (
{
closed = 1;
nodes = (
(184,134,l),
(583,563,l),
(602,698,l),
(108,698,l),
(89,564,l),
(411,564,l),
(12,135,l),
(-7,0,l),
(512,0,l),
(531,134,l)
);
}
);
width = 585;
},
{
anchors = (
{
name = m.ring;
position = "{265, 698}";
},
{
name = m.uni02BC_1;
position = "{-32, 0}";
},
{
name = b.cedilla_2;
position = "{265, 0}";
},
{
name = b.ogonek_3;
position = "{-32, 0}";
}
);
hints = (
{
horizontal = 1;
place = (0,85);
type = Stem;
},
{
horizontal = 1;
place = (613,85);
type = Stem;
}
);
layerId = "E22AC71D-DB87-48BC-8161-A09275C341BE";
shapes = (
{
closed = 1;
nodes = (
(117,85,l),
(577,611,l),
(589,698,l),
(119,698,l),
(107,613,l),
(472,613,l),
(14,87,l),
(2,0,l),
(503,0,l),
(515,85,l)
);
}
);
width = 585;
},
{
anchors = (
{
name = m.ring;
position = "{266, 698}";
},
{
name = m.uni02BC_1;
position = "{-31, 0}";
},
{
name = b.cedilla_2;
position = "{266, 0}";
},
{
name = b.ogonek_3;
position = "{-31, 0}";
}
);
hints = (
{
horizontal = 1;
place = (0,20);
type = Stem;
},
{
horizontal = 1;
place = (678,20);
type = Stem;
}
);
layerId = "CC8B04B6-4F30-41C2-BC1D-B124A9E292F1";
shapes = (
{
closed = 1;
nodes = (
(44,20,l),
(571,676,l),
(574,698,l),
(139,698,l),
(136,678,l),
(548,678,l),
(21,22,l),
(18,0,l),
(496,0,l),
(499,20,l)
);
}
);
width = 585;
}
);
leftKerningGroup = Z2;
rightKerningGroup = Z;
unicode = 90;
}
{
glyphname = bracketleft;
layers = (
{
hints = (
{
horizontal = 1;
place = (-138,104);
type = Stem;
},
{
horizontal = 1;
place = (656,104);
type = Stem;
},
{
place = (11,329);
type = Stem;
}
);
layerId = "C5FC3DAF-4290-4CD4-AD90-77B56B79BFFD";
shapes = (
{
closed = 1;
nodes = (
(229,-34,l),
(160,-34,l),
(257,656,l),
(326,656,l),
(340,760,l),
(138,760,l),
(11,-138,l),
(214,-138,l)
);
}
);
width = 320;
},
{
hints = (
{
horizontal = 1;
place = (-138,71);
type = Stem;
},
{
horizontal = 1;
place = (689,71);
type = Stem;
},
{
place = (31,294);
type = Stem;
}
);
layerId = "38727D70-1DA2-45B2-A346-FCEACAA78F51";
shapes = (
{
closed = 1;
nodes = (
(209,-67,l),
(121,-67,l),
(227,689,l),
(315,689,l),
(325,760,l),
(157,760,l),
(31,-138,l),
(199,-138,l)
);
}
);
width = 320;
},
{
hints = (
{
horizontal = 1;
place = (-138,18);
type = Stem;
},
{
horizontal = 1;
place = (742,18);
type = Stem;
},
{
place = (57,248);
type = Stem;
}
);
layerId = "7766A055-9583-43BA-9BBE-7DA8199C50F9";
shapes = (
{
closed = 1;
nodes = (
(181,-120,l),
(79,-120,l),
(200,742,l),
(302,742,l),
(305,760,l),
(183,760,l),
(57,-138,l),
(179,-138,l)
);
}
);
width = 320;
}
);
rightKerningGroup = braceleft;
unicode = 91;
}
{
glyphname = backslash;
layers = (
{
hints = (
{
place = (72,286);
type = Stem;
}
);
layerId = "C5FC3DAF-4290-4CD4-AD90-77B56B79BFFD";
shapes = (
{
closed = 1;
nodes = (
(191,740,l),
(72,740,l),
(238,-151,l),
(358,-151,l)
);
}
);
width = 398;
},
{
hints = (
{
place = (105,216);
type = Stem;
}
);
layerId = "38727D70-1DA2-45B2-A346-FCEACAA78F51";
shapes = (
{
closed = 1;
nodes = (
(186,740,l),
(105,740,l),
(242,-151,l),
(321,-151,l)
);
}
);
width = 398;
},
{
hints = (
{
place = (149,122);
type = Stem;
}
);
layerId = "7766A055-9583-43BA-9BBE-7DA8199C50F9";
shapes = (
{
closed = 1;
nodes = (
(168,740,l),
(149,740,l),
(252,-151,l),
(271,-151,l)
);
}
);
width = 398;
}
);
unicode = 92;
}
{
glyphname = bracketright;
layers = (
{
hints = (
{
horizontal = 1;
place = (-138,104);
type = Stem;
},
{
horizontal = 1;
place = (656,104);
type = Stem;
},
{
place = (-13,329);
type = Stem;
}
);
layerId = "C5FC3DAF-4290-4CD4-AD90-77B56B79BFFD";
shapes = (
{
closed = 1;
nodes = (
(98,656,l),
(167,656,l),
(70,-34,l),
(1,-34,l),
(-13,-138,l),
(190,-138,l),
(316,760,l),
(113,760,l)
);
}
);
width = 320;
},
{
hints = (
{
horizontal = 1;
place = (-138,71);
type = Stem;
},
{
horizontal = 1;
place = (689,71);
type = Stem;
},
{
place = (1,295);
type = Stem;
}
);
layerId = "38727D70-1DA2-45B2-A346-FCEACAA78F51";
shapes = (
{
closed = 1;
nodes = (
(118,689,l),
(206,689,l),
(100,-67,l),
(11,-67,l),
(1,-138,l),
(170,-138,l),
(296,760,l),
(128,760,l)
);
}
);
width = 320;
},
{
hints = (
{
horizontal = 1;
place = (-138,18);
type = Stem;
},
{
horizontal = 1;
place = (742,18);
type = Stem;
},
{
place = (22,247);
type = Stem;
}
);
layerId = "7766A055-9583-43BA-9BBE-7DA8199C50F9";
shapes = (
{
closed = 1;
nodes = (
(145,742,l),
(247,742,l),
(126,-120,l),
(24,-120,l),
(22,-138,l),
(143,-138,l),
(269,760,l),
(148,760,l)
);
}
);
width = 320;
}
);
leftKerningGroup = braceright;
unicode = 93;
}
{
glyphname = asciicircum;
layers = (
{
layerId = "C5FC3DAF-4290-4CD4-AD90-77B56B79BFFD";
shapes = (
{
closed = 1;
nodes = (
(419,698,l),
(301,698,l),
(54,334,l),
(156,277,l),
(330,537,l),
(336,537,l),
(436,277,l),
(561,334,l)
);
}
);
width = 600;
},
{
layerId = "38727D70-1DA2-45B2-A346-FCEACAA78F51";
shapes = (
{
closed = 1;
nodes = (
(404,698,l),
(313,698,l),
(59,329,l),
(123,292,l),
(342,607,l),
(347,607,l),
(477,292,l),
(553,329,l)
);
}
);
width = 600;
},
{
layerId = "7766A055-9583-43BA-9BBE-7DA8199C50F9";
shapes = (
{
closed = 1;
nodes = (
(369,698,l),
(348,698,l),
(80,332,l),
(96,322,l),
(354,676,l),
(356,676,l),
(515,322,l),
(534,332,l)
);
}
);
width = 600;
}
);
unicode = 94;
}
{
glyphname = underscore;
layers = (
{
hints = (
{
horizontal = 1;
place = (-190,123);
type = Stem;
}
);
layerId = "C5FC3DAF-4290-4CD4-AD90-77B56B79BFFD";
shapes = (
{
closed = 1;
nodes = (
(475,-67,l),
(-11,-67,l),
(-29,-190,l),
(457,-190,l)
);
}
);
width = 563;
},
{
hints = (
{
horizontal = 1;
place = (-170,80);
type = Stem;
}
);
layerId = "38727D70-1DA2-45B2-A346-FCEACAA78F51";
shapes = (
{
closed = 1;
nodes = (
(476,-90,l),
(-17,-90,l),
(-29,-170,l),
(464,-170,l)
);
}
);
width = 563;
},
{
hints = (
{
horizontal = 1;
place = (-141,18);
type = Stem;
}
);
layerId = "7766A055-9583-43BA-9BBE-7DA8199C50F9";
shapes = (
{
closed = 1;
nodes = (
(474,-123,l),
(-25,-123,l),
(-27,-141,l),
(472,-141,l)
);
}
);
width = 563;
}
);
unicode = 95;
}
{
glyphname = grave;
layers = (
{
anchors = (
{
name = _m.ring;
position = "{279, 540}";
}
);
hints = (
{
horizontal = 1;
place = (579,237);
type = Stem;
},
{
place = (222,198);
type = Stem;
}
);
layerId = "C5FC3DAF-4290-4CD4-AD90-77B56B79BFFD";
shapes = (
{
closed = 1;
nodes = (
(420,622,l),
(351,816,l),
(222,755,l),
(328,579,l)
);
}
);
width = 600;
},
{
anchors = (
{
name = _m.ring;
position = "{281, 540}";
}
);
hints = (
{
horizontal = 1;
place = (584,202);
type = Stem;
},
{
place = (250,147);
type = Stem;
}
);
layerId = "38727D70-1DA2-45B2-A346-FCEACAA78F51";
shapes = (
{
closed = 1;
nodes = (
(397,611,l),
(336,786,l),
(250,746,l),
(336,584,l)
);
}
);
width = 600;
},
{
anchors = (
{
name = _m.ring;
position = "{282, 540}";
}
);
hints = (
{
horizontal = 1;
place = (587,164);
type = Stem;
},
{
place = (270,107);
type = Stem;
}
);
layerId = "7766A055-9583-43BA-9BBE-7DA8199C50F9";
shapes = (
{
closed = 1;
nodes = (
(377,597,l),
(290,751,l),
(270,739,l),
(361,587,l)
);
}
);
width = 600;
}
);
unicode = 96;
}
{
glyphname = b;
layers = (
{
anchors = (
{
name = m.ring;
position = "{-29, 0}";
},
{
name = m.uni02BC_1;
position = "{-29, 0}";
},
{
name = b.cedilla_2;
position = "{278, 0}";
},
{
name = b.ogonek_3;
position = "{-29, 0}";
}
);
hints = (
{
horizontal = 1;
place = (-12,120);
type = Stem;
},
{
horizontal = 1;
place = (0,21);
target = up;
type = BottomGhost;
}
);
layerId = "C5FC3DAF-4290-4CD4-AD90-77B56B79BFFD";
shapes = (
{
closed = 1;
nodes = (
(167,0,l),
(180,88,l),
(185,88,l),
(188,59,o),
(201,36,o),
(224,17,c),
(246,-3,o),
(274,-12,o),
(307,-12,cs),
(393,-12,o),
(456,31,o),
(497,113,cs),
(517,154,o),
(532,204,o),
(540,263,cs),
(557,382,o),
(538,464,o),
(487,506,cs),
(461,527,o),
(427,537,o),
(384,537,cs),
(351,537,o),
(321,528,o),
(293,509,cs),
(264,490,o),
(245,466,o),
(234,437,c),
(229,437,l),
(271,740,l),
(128,740,l),
(24,0,l)
);
},
{
closed = 1;
nodes = (
(240,108,o),
(212,120,o),
(200,144,c),
(193,155,o),
(191,169,o),
(193,185,cs),
(215,340,ls),
(219,372,o),
(240,396,o),
(270,408,cs),
(285,414,o),
(301,417,o),
(319,417,cs),
(373,417,o),
(406,375,o),
(397,308,cs),
(384,217,ls),
(375,152,o),
(330,108,o),
(276,108,cs)
);
}
);
width = 585;
},
{
anchors = (
{
name = m.ring;
position = "{-27, 0}";
},
{
name = m.uni02BC_1;
position = "{-27, 0}";
},
{
name = b.cedilla_2;
position = "{280, 0}";
},
{
name = b.ogonek_3;
position = "{-27, 0}";
}
);
hints = (
{
horizontal = 1;
place = (-12,81);
type = Stem;
},
{
horizontal = 1;
place = (0,21);
target = up;
type = BottomGhost;
},
{
horizontal = 1;
place = (449,81);
type = Stem;
}
);
layerId = "38727D70-1DA2-45B2-A346-FCEACAA78F51";
shapes = (
{
closed = 1;
nodes = (
(139,0,l),
(151,85,l),
(155,85,l),
(164,54,o),
(179,30,o),
(201,13,cs),
(223,-4,o),
(250,-12,o),
(284,-12,cs),
(369,-12,o),
(436,33,o),
(479,115,cs),
(501,156,o),
(516,204,o),
(524,259,cs),
(540,371,o),
(519,453,o),
(465,497,cs),
(438,519,o),
(403,530,o),
(361,530,cs),
(327,530,o),
(297,522,o),
(270,506,cs),
(242,489,o),
(220,465,o),
(204,433,c),
(200,433,l),
(243,740,l),
(153,740,l),
(49,0,l)
);
},
{
closed = 1;
nodes = (
(226,69,o),
(189,86,o),
(171,116,c),
(163,131,o),
(160,148,o),
(163,169,cs),
(189,354,ls),
(194,391,o),
(221,420,o),
(261,437,cs),
(280,445,o),
(301,449,o),
(323,449,cs),
(404,449,o),
(446,391,o),
(434,303,cs),
(422,215,ls),
(410,127,o),
(350,69,o),
(269,69,cs)
);
}
);
width = 585;
},
{
anchors = (
{
name = m.ring;
position = "{-25, 0}";
},
{
name = m.uni02BC_1;
position = "{-25, 0}";
},
{
name = b.cedilla_2;
position = "{281, 0}";
},
{
name = b.ogonek_3;
position = "{-25, 0}";
}
);
hints = (
{
horizontal = 1;
place = (-12,19);
type = Stem;
},
{
horizontal = 1;
place = (0,21);
target = up;
type = BottomGhost;
},
{
horizontal = 1;
place = (499,19);
type = Stem;
}
);
layerId = "7766A055-9583-43BA-9BBE-7DA8199C50F9";
shapes = (
{
closed = 1;
nodes = (
(101,0,l),
(112,78,l),
(115,78,l),
(122,56,o),
(138,36,o),
(161,17,cs),
(184,-3,o),
(217,-12,o),
(260,-12,cs),
(345,-12,o),
(412,27,o),
(456,106,cs),
(478,145,o),
(493,194,o),
(501,253,cs),
(517,370,o),
(495,449,o),
(440,489,cs),
(413,508,o),
(377,518,o),
(334,518,cs),
(291,518,o),
(257,509,o),
(228,490,cs),
(199,471,o),
(178,450,o),
(164,428,c),
(161,428,l),
(205,740,l),
(185,740,l),
(81,0,l)
);
},
{
closed = 1;
nodes = (
(205,7,o),
(158,31,o),
(134,72,cs),
(122,93,o),
(117,116,o),
(121,143,cs),
(152,363,ls),
(160,418,o),
(198,459,o),
(250,482,cs),
(276,493,o),
(303,499,o),
(331,499,cs),
(447,499,o),
(501,414,o),
(482,277,cs),
(475,229,ls),
(456,92,o),
(378,7,o),
(262,7,cs)
);
}
);
width = 585;
}
);
leftKerningGroup = b2;
rightKerningGroup = b;
unicode = 98;
}
{
glyphname = c;
layers = (
{
anchors = (
{
name = m.ring;
position = "{246, 540}";
},
{
name = m.uni02BC_1;
position = "{-29, 0}";
},
{
name = b.cedilla_2;
position = "{246, 0}";
},
{
name = b.ogonek_3;
position = "{-29, 0}";
}
);
hints = (
{
horizontal = 1;
place = (-12,116);
type = Stem;
},
{
horizontal = 1;
place = (420,117);
type = Stem;
}
);
layerId = "C5FC3DAF-4290-4CD4-AD90-77B56B79BFFD";
shapes = (
{
closed = 1;
nodes = (
(332,-12,o),
(410,33,o),
(458,133,c),
(355,183,l),
(335,142,o),
(307,104,o),
(250,104,cs),
(192,104,o),
(169,148,o),
(178,213,cs),
(191,311,ls),
(200,378,o),
(236,420,o),
(294,420,cs),
(344,420,o),
(367,388,o),
(370,348,c),
(493,400,l),
(475,487,o),
(413,537,o),
(310,537,cs),
(234,537,o),
(172,512,o),
(125,463,cs),
(77,414,o),
(47,347,o),
(35,263,cs),
(23,179,o),
(34,112,o),
(69,63,c),
(102,13,o),
(157,-12,o),
(233,-12,cs)
);
}
);
width = 506;
},
{
anchors = (
{
name = m.ring;
position = "{245, 540}";
},
{
name = m.uni02BC_1;
position = "{-29, 0}";
},
{
name = b.cedilla_2;
position = "{245, 0}";
},
{
name = b.ogonek_3;
position = "{-29, 0}";
}
);
hints = (
{
horizontal = 1;
place = (-12,80);
type = Stem;
},
{
horizontal = 1;
place = (450,80);
type = Stem;
}
);
layerId = "38727D70-1DA2-45B2-A346-FCEACAA78F51";
shapes = (
{
closed = 1;
nodes = (
(329,-12,o),
(401,37,o),
(446,114,c),
(385,155,l),
(353,100,o),
(307,68,o),
(246,68,cs),
(162,68,o),
(126,129,o),
(138,214,cs),
(151,304,ls),
(163,389,o),
(216,450,o),
(300,450,cs),
(358,450,o),
(394,419,o),
(403,368,c),
(482,406,l),
(464,479,o),
(410,530,o),
(311,530,cs),
(240,530,o),
(181,506,o),
(135,457,cs),
(89,408,o),
(60,342,o),
(48,259,cs),
(36,176,o),
(46,111,o),
(79,62,cs),
(112,13,o),
(163,-12,o),
(234,-12,cs)
);
}
);
width = 506;
},
{
anchors = (
{
name = m.ring;
position = "{247, 540}";
},
{
name = m.uni02BC_1;
position = "{-27, 0}";
},
{
name = b.cedilla_2;
position = "{247, 0}";
},
{
name = b.ogonek_3;
position = "{-27, 0}";
}
);
hints = (
{
horizontal = 1;
place = (-12,19);
type = Stem;
},
{
horizontal = 1;
place = (499,19);
type = Stem;
}
);
layerId = "7766A055-9583-43BA-9BBE-7DA8199C50F9";
shapes = (
{
closed = 1;
nodes = (
(322,-12,o),
(377,27,o),
(417,84,c),
(404,95,l),
(366,40,o),
(316,7,o),
(240,7,cs),
(125,7,o),
(72,93,o),
(91,229,cs),
(98,277,ls),
(117,413,o),
(194,499,o),
(309,499,cs),
(378,499,o),
(415,468,o),
(437,409,c),
(456,418,l),
(435,478,o),
(388,518,o),
(311,518,cs),
(248,518,o),
(196,496,o),
(154,451,cs),
(112,406,o),
(84,340,o),
(72,253,cs),
(60,166,o),
(69,100,o),
(98,55,cs),
(127,10,o),
(174,-12,o),
(237,-12,cs)
);
}
);
width = 506;
}
);
leftKerningGroup = c2;
rightKerningGroup = c;
unicode = 99;
}
{
glyphname = d;
layers = (
{
anchors = (
{
name = m.ring;
position = "{-27, 0}";
},
{
name = m.uni02BC_1;
position = "{525, 740}";
},
{
name = b.cedilla_2;
position = "{245, 0}";
},
{
name = b.ogonek_3;
position = "{-27, 0}";
}
);
hints = (
{
horizontal = 1;
place = (0,21);
target = up;
type = BottomGhost;
},
{
horizontal = 1;
place = (417,120);
type = Stem;
}
);
layerId = "0AD2E2E0-FC0D-4C67-836B-444215FA4DDA";
shapes = (
{
closed = 1;
nodes = (
(480,0,l),
(584,740,l),
(441,740,l),
(398,437,l),
(393,437,l),
(390,466,o),
(377,490,o),
(355,509,cs),
(332,528,o),
(305,537,o),
(272,537,cs),
(187,537,o),
(122,494,o),
(81,413,cs),
(61,372,o),
(46,322,o),
(38,263,cs),
(21,144,o),
(40,62,o),
(92,20,cs),
(118,-2,o),
(152,-12,o),
(194,-12,cs),
(227,-12,o),
(257,-3,o),
(286,17,cs),
(314,36,o),
(333,59,o),
(344,88,c),
(349,88,l),
(337,0,l)
);
},
{
closed = 1;
nodes = (
(205,108,o),
(172,152,o),
(181,217,cs),
(194,308,ls),
(203,375,o),
(248,417,o),
(302,417,cs),
(338,417,o),
(366,405,o),
(379,382,cs),
(385,370,o),
(387,356,o),
(385,340,cs),
(363,185,ls),
(359,153,o),
(338,129,o),
(308,117,cs),
(293,111,o),
(277,108,o),
(259,108,cs)
);
}
);
width = 585;
},
{
anchors = (
{
name = m.ring;
position = "{-25, 0}";
},
{
name = m.uni02BC_1;
position = "{526, 740}";
},
{
name = b.cedilla_2;
position = "{246, 0}";
},
{
name = b.ogonek_3;
position = "{-25, 0}";
}
);
hints = (
{
horizontal = 1;
place = (-12,81);
type = Stem;
},
{
horizontal = 1;
place = (0,21);
target = up;
type = BottomGhost;
},
{
horizontal = 1;
place = (449,81);
type = Stem;
}
);
layerId = "E22AC71D-DB87-48BC-8161-A09275C341BE";
shapes = (
{
closed = 1;
nodes = (
(457,0,l),
(561,740,l),
(471,740,l),
(428,433,l),
(424,433,l),
(417,465,o),
(403,489,o),
(380,506,cs),
(357,522,o),
(328,530,o),
(294,530,cs),
(212,530,o),
(143,484,o),
(100,404,cs),
(78,363,o),
(64,315,o),
(56,259,cs),
(40,148,o),
(61,64,o),
(116,21,cs),
(143,-1,o),
(177,-12,o),
(218,-12,cs),
(252,-12,o),
(283,-4,o),
(309,13,cs),
(335,30,o),
(358,54,o),
(375,85,c),
(379,85,l),
(367,0,l)
);
},
{
closed = 1;
nodes = (
(176,69,o),
(134,127,o),
(146,215,cs),
(158,303,ls),
(170,391,o),
(229,449,o),
(309,449,cs),
(355,449,o),
(391,431,o),
(408,403,cs),
(417,389,o),
(420,373,o),
(417,354,cs),
(391,169,ls),
(385,128,o),
(359,97,o),
(320,81,cs),
(301,73,o),
(279,69,o),
(256,69,cs)
);
}
);
width = 585;
},
{
anchors = (
{
name = m.ring;
position = "{-24, 0}";
},
{
name = m.uni02BC_1;
position = "{527, 740}";
},
{
name = b.cedilla_2;
position = "{247, 0}";
},
{
name = b.ogonek_3;
position = "{-24, 0}";
}
);
hints = (
{
horizontal = 1;
place = (-12,19);
type = Stem;
},
{
horizontal = 1;
place = (0,21);
target = up;
type = BottomGhost;
},
{
horizontal = 1;
place = (499,19);
type = Stem;
}
);
layerId = "CC8B04B6-4F30-41C2-BC1D-B124A9E292F1";
shapes = (
{
closed = 1;
nodes = (
(425,0,l),
(529,740,l),
(509,740,l),
(465,428,l),
(462,428,l),
(455,450,o),
(440,471,o),
(417,490,cs),
(394,509,o),
(360,518,o),
(317,518,cs),
(232,518,o),
(166,479,o),
(122,400,cs),
(100,361,o),
(84,312,o),
(76,253,cs),
(60,136,o),
(82,57,o),
(138,18,c),
(165,-2,o),
(201,-12,o),
(243,-12,cs),
(286,-12,o),
(321,-3,o),
(350,17,cs),
(379,36,o),
(399,56,o),
(413,78,c),
(416,78,l),
(405,0,l)
);
},
{
closed = 1;
nodes = (
(129,7,o),
(76,92,o),
(95,229,cs),
(102,277,ls),
(121,414,o),
(199,499,o),
(315,499,cs),
(372,499,o),
(419,475,o),
(444,435,c),
(455,414,o),
(460,390,o),
(456,363,cs),
(425,143,ls),
(418,90,o),
(379,47,o),
(327,24,cs),
(301,13,o),
(273,7,o),
(245,7,cs)
);
}
);
width = 585;
}
);
leftKerningGroup = d;
unicode = 100;
}
{
glyphname = f;
layers = (
{
anchors = (
{
name = m.ring;
position = "{-34, 0}";
},
{
name = m.uni02BC_1;
position = "{-34, 0}";
},
{
name = b.cedilla_2;
position = "{119, 0}";
},
{
name = b.ogonek_3;
position = "{-34, 0}";
}
);
hints = (
{
horizontal = 1;
place = (0,21);
target = up;
type = BottomGhost;
},
{
horizontal = 1;
place = (410,115);
type = Stem;
},
{
horizontal = 1;
place = (625,115);
type = Stem;
}
);
layerId = "C5FC3DAF-4290-4CD4-AD90-77B56B79BFFD";
shapes = (
{
closed = 1;
nodes = (
(186,0,l),
(244,410,l),
(344,410,l),
(361,525,l),
(260,525,l),
(274,625,l),
(375,625,l),
(391,740,l),
(298,740,ls),
(200,740,o),
(139,688,o),
(125,587,cs),
(116,525,l),
(45,525,l),
(29,410,l),
(100,410,l),
(42,0,l)
);
}
);
width = 331;
},
{
anchors = (
{
name = m.ring;
position = "{-33, 0}";
},
{
name = m.uni02BC_1;
position = "{-33, 0}";
},
{
name = b.cedilla_2;
position = "{120, 0}";
},
{
name = b.ogonek_3;
position = "{-33, 0}";
}
);
hints = (
{
horizontal = 1;
place = (0,21);
target = up;
type = BottomGhost;
},
{
horizontal = 1;
place = (439,79);
type = Stem;
},
{
horizontal = 1;
place = (661,79);
type = Stem;
},
{
place = (53,317);
type = Stem;
}
);
layerId = "38727D70-1DA2-45B2-A346-FCEACAA78F51";
shapes = (
{
closed = 1;
nodes = (
(161,0,l),
(223,439,l),
(328,439,l),
(339,518,l),
(234,518,l),
(254,661,l),
(359,661,l),
(370,740,l),
(292,740,ls),
(214,740,o),
(169,690,o),
(158,614,cs),
(144,518,l),
(64,518,l),
(53,439,l),
(133,439,l),
(71,0,l)
);
}
);
width = 331;
},
{
anchors = (
{
name = m.ring;
position = "{-32, 0}";
},
{
name = m.uni02BC_1;
position = "{-32, 0}";
},
{
name = b.cedilla_2;
position = "{122, 0}";
},
{
name = b.ogonek_3;
position = "{-32, 0}";
}
);
hints = (
{
horizontal = 1;
place = (0,21);
target = up;
type = BottomGhost;
},
{
horizontal = 1;
place = (487,19);
type = Stem;
},
{
horizontal = 1;
place = (721,19);
type = Stem;
},
{
place = (86,256);
type = Stem;
}
);
layerId = "7766A055-9583-43BA-9BBE-7DA8199C50F9";
shapes = (
{
closed = 1;
nodes = (
(127,0,l),
(195,487,l),
(307,487,l),
(309,506,l),
(198,506,l),
(228,721,l),
(340,721,l),
(342,740,l),
(238,740,ls),
(219,740,o),
(209,731,o),
(206,711,cs),
(178,506,l),
(88,506,l),
(86,487,l),
(175,487,l),
(107,0,l)
);
}
);
width = 331;
}
);
leftKerningGroup = f;
unicode = 102;
}
{
glyphname = i;
layers = (
{
anchors = (
{
name = m.ring;
position = "{-34, 0}";
},
{
name = m.uni02BC_1;
position = "{-34, 0}";
},
{
name = b.cedilla_2;
position = "{91, 0}";
},
{
name = b.ogonek_3;
position = "{131, 0}";
}
);
hints = (
{
horizontal = 1;
place = (0,21);
target = up;
type = BottomGhost;
},
{
horizontal = 1;
place = (581,168);
type = Stem;
},
{
place = (96,167);
type = Stem;
}
);
layerId = "C5FC3DAF-4290-4CD4-AD90-77B56B79BFFD";
shapes = (
{
closed = 1;
nodes = (
(227,581,o),
(257,613,o),
(263,654,cs),
(266,676,ls),
(272,719,o),
(251,749,o),
(193,749,cs),
(135,749,o),
(105,719,o),
(99,676,cs),
(96,654,ls),
(90,613,o),
(111,581,o),
(169,581,cs)
);
},
{
closed = 1;
nodes = (
(159,0,l),
(233,525,l),
(90,525,l),
(16,0,l)
);
}
);
width = 257;
},
{
anchors = (
{
name = m.ring;
position = "{-32, 0}";
},
{
name = m.uni02BC_1;
position = "{-32, 0}";
},
{
name = b.cedilla_2;
position = "{93, 0}";
},
{
name = b.ogonek_3;
position = "{133, 0}";
}
);
hints = (
{
horizontal = 1;
place = (0,21);
target = up;
type = BottomGhost;
},
{
horizontal = 1;
place = (626,116);
type = Stem;
},
{
place = (43,196);
type = Stem;
}
);
layerId = "38727D70-1DA2-45B2-A346-FCEACAA78F51";
shapes = (
{
closed = 1;
nodes = (
(215,626,o),
(233,648,o),
(237,677,cs),
(239,691,ls),
(243,722,o),
(231,742,o),
(192,742,cs),
(156,742,o),
(135,722,o),
(131,691,cs),
(129,677,ls),
(125,648,o),
(140,626,o),
(176,626,cs)
);
},
{
closed = 1;
nodes = (
(133,0,l),
(206,518,l),
(116,518,l),
(43,0,l)
);
}
);
width = 257;
},
{
anchors = (
{
name = m.ring;
position = "{-30, 0}";
},
{
name = m.uni02BC_1;
position = "{-30, 0}";
},
{
name = b.cedilla_2;
position = "{95, 0}";
},
{
name = b.ogonek_3;
position = "{135, 0}";
}
);
hints = (
{
horizontal = 1;
place = (0,21);
target = up;
type = BottomGhost;
},
{
horizontal = 1;
place = (673,49);
type = Stem;
},
{
place = (163,45);
type = Stem;
}
);
layerId = "7766A055-9583-43BA-9BBE-7DA8199C50F9";
shapes = (
{
closed = 1;
nodes = (
(198,673,o),
(206,683,o),
(208,694,cs),
(209,701,ls),
(211,712,o),
(205,722,o),
(189,722,cs),
(173,722,o),
(166,712,o),
(164,701,cs),
(163,694,ls),
(161,683,o),
(166,673,o),
(182,673,cs)
);
},
{
closed = 1;
nodes = (
(99,0,l),
(170,506,l),
(149,506,l),
(78,0,l)
);
}
);
width = 257;
}
);
leftKerningGroup = i2;
rightKerningGroup = i;
unicode = 105;
}
{
glyphname = j;
layers = (
{
hints = (
{
horizontal = 1;
place = (-200,115);
type = Stem;
},
{
horizontal = 1;
place = (581,168);
type = Stem;
}
);
layerId = "C5FC3DAF-4290-4CD4-AD90-77B56B79BFFD";
shapes = (
{
closed = 1;
nodes = (
(-69,-85,l),
(-85,-200,l),
(-10,-200,ls),
(90,-200,o),
(141,-149,o),
(154,-56,cs),
(236,525,l),
(92,525,l),
(6,-85,l)
);
},
{
closed = 1;
nodes = (
(230,581,o),
(259,613,o),
(265,654,cs),
(268,676,ls),
(274,719,o),
(253,749,o),
(195,749,cs),
(137,749,o),
(108,719,o),
(102,676,c),
(98,654,l),
(92,613,o),
(114,581,o),
(172,581,cs)
);
}
);
width = 257;
},
{
hints = (
{
horizontal = 1;
place = (-200,79);
type = Stem;
},
{
horizontal = 1;
place = (626,116);
type = Stem;
},
{
place = (-63,304);
type = Stem;
}
);
layerId = "38727D70-1DA2-45B2-A346-FCEACAA78F51";
shapes = (
{
closed = 1;
nodes = (
(-52,-121,l),
(-63,-200,l),
(-8,-200,ls),
(72,-200,o),
(114,-151,o),
(125,-75,cs),
(208,518,l),
(118,518,l),
(28,-121,l)
);
},
{
closed = 1;
nodes = (
(216,626,o),
(235,648,o),
(239,677,cs),
(241,691,ls),
(245,722,o),
(233,742,o),
(194,742,cs),
(158,742,o),
(136,722,o),
(132,691,cs),
(130,677,ls),
(126,648,o),
(141,626,o),
(177,626,cs)
);
}
);
width = 257;
},
{
hints = (
{
horizontal = 1;
place = (-200,19);
type = Stem;
},
{
horizontal = 1;
place = (673,49);
type = Stem;
},
{
place = (166,43);
type = Stem;
}
);
layerId = "7766A055-9583-43BA-9BBE-7DA8199C50F9";
shapes = (
{
closed = 1;
nodes = (
(-27,-181,l),
(-30,-200,l),
(44,-200,ls),
(63,-200,o),
(73,-191,o),
(76,-171,cs),
(171,506,l),
(151,506,l),
(54,-181,l)
);
},
{
closed = 1;
nodes = (
(200,673,o),
(207,683,o),
(209,694,cs),
(210,701,ls),
(212,712,o),
(207,722,o),
(191,722,cs),
(175,722,o),
(168,712,o),
(166,701,cs),
(165,694,ls),
(163,683,o),
(168,673,o),
(184,673,cs)
);
}
);
width = 257;
}
);
leftKerningGroup = j2;
rightKerningGroup = j;
unicode = 106;
}
{
glyphname = k;
layers = (
{
anchors = (
{
name = m.ring;
position = "{-29, 0}";
},
{
name = m.uni02BC_1;
position = "{-29, 0}";
},
{
name = b.cedilla_2;
position = "{261, 0}";
},
{
name = b.ogonek_3;
position = "{-29, 0}";
}
);
hints = (
{
horizontal = 1;
place = (0,21);
target = up;
type = BottomGhost;
}
);
layerId = "C5FC3DAF-4290-4CD4-AD90-77B56B79BFFD";
shapes = (
{
closed = 1;
nodes = (
(159,0,l),
(180,148,l),
(254,222,l),
(336,0,l),
(505,0,l),
(363,324,l),
(559,525,l),
(402,525,l),
(284,400,l),
(207,303,l),
(202,303,l),
(217,415,l),
(263,740,l),
(120,740,l),
(16,0,l)
);
}
);
width = 537;
},
{
anchors = (
{
name = m.ring;
position = "{-28, 0}";
},
{
name = m.uni02BC_1;
position = "{-28, 0}";
},
{
name = b.cedilla_2;
position = "{263, 0}";
},
{
name = b.ogonek_3;
position = "{-28, 0}";
}
);
hints = (
{
horizontal = 1;
place = (0,21);
target = up;
type = BottomGhost;
}
);
layerId = "38727D70-1DA2-45B2-A346-FCEACAA78F51";
shapes = (
{
closed = 1;
nodes = (
(138,0,l),
(163,177,l),
(246,255,l),
(364,0,l),
(472,0,l),
(317,314,l),
(526,518,l),
(421,518,l),
(267,367,l),
(181,277,l),
(177,277,l),
(190,373,l),
(242,740,l),
(152,740,l),
(48,0,l)
);
}
);
width = 537;
},
{
anchors = (
{
name = m.ring;
position = "{-26, 0}";
},
{
name = m.uni02BC_1;
position = "{-26, 0}";
},
{
name = b.cedilla_2;
position = "{264, 0}";
},
{
name = b.ogonek_3;
position = "{-26, 0}";
}
);
hints = (
{
horizontal = 1;
place = (0,21);
target = up;
type = BottomGhost;
}
);
layerId = "7766A055-9583-43BA-9BBE-7DA8199C50F9";
shapes = (
{
closed = 1;
nodes = (
(112,0,l),
(139,190,l),
(235,277,l),
(418,0,l),
(443,0,l),
(252,292,l),
(488,506,l),
(461,506,l),
(234,299,l),
(146,220,l),
(143,220,l),
(154,299,l),
(216,740,l),
(195,740,l),
(91,0,l)
);
}
);
width = 537;
}
);
leftKerningGroup = b2;
rightKerningGroup = k;
unicode = 107;
}
{
glyphname = l;
layers = (
{
anchors = (
{
name = m.ring;
position = "{90, 740}";
},
{
name = m.uni02BC_1;
position = "{189, 740}";
},
{
name = b.cedilla_2;
position = "{129, 0}";
},
{
name = b.ogonek_3;
position = "{-35, 0}";
}
);
hints = (
{
horizontal = 1;
place = (0,115);
type = Stem;
},
{
place = (37,228);
type = Stem;
}
);
layerId = "0AD2E2E0-FC0D-4C67-836B-444215FA4DDA";
shapes = (
{
closed = 1;
nodes = (
(240,115,l),
(177,115,l),
(265,740,l),
(121,740,l),
(37,144,ls),
(24,51,o),
(61,0,o),
(159,0,cs),
(224,0,l)
);
}
);
width = 278;
},
{
anchors = (
{
name = m.ring;
position = "{92, 740}";
},
{
name = m.uni02BC_1;
position = "{191, 740}";
},
{
name = b.cedilla_2;
position = "{131, 0}";
},
{
name = b.ogonek_3;
position = "{-33, 0}";
}
);
hints = (
{
horizontal = 1;
place = (0,79);
type = Stem;
},
{
place = (56,181);
type = Stem;
}
);
layerId = "E22AC71D-DB87-48BC-8161-A09275C341BE";
shapes = (
{
closed = 1;
nodes = (
(215,79,l),
(144,79,l),
(237,740,l),
(147,740,l),
(56,95,ls),
(48,38,o),
(74,0,o),
(136,0,cs),
(204,0,l)
);
}
);
width = 278;
},
{
anchors = (
{
name = m.ring;
position = "{94, 740}";
},
{
name = m.uni02BC_1;
position = "{192, 740}";
},
{
name = b.cedilla_2;
position = "{133, 0}";
},
{
name = b.ogonek_3;
position = "{-31, 0}";
}
);
hints = (
{
horizontal = 1;
place = (0,19);
type = Stem;
},
{
place = (81,121);
type = Stem;
}
);
layerId = "CC8B04B6-4F30-41C2-BC1D-B124A9E292F1";
shapes = (
{
closed = 1;
nodes = (
(182,19,l),
(100,19,l),
(202,740,l),
(181,740,l),
(81,29,ls),
(78,9,o),
(86,0,o),
(105,0,cs),
(179,0,l)
);
}
);
width = 278;
}
);
leftKerningGroup = l2;
rightKerningGroup = l;
unicode = 108;
}
{
glyphname = m;
layers = (
{
anchors = (
{
name = m.ring;
position = "{414, 540}";
},
{
name = m.uni02BC_1;
position = "{-23, 0}";
},
{
name = b.cedilla_2;
position = "{414, 0}";
},
{
name = b.ogonek_3;
position = "{-23, 0}";
}
);
hints = (
{
horizontal = 1;
place = (0,21);
target = up;
type = BottomGhost;
}
);
layerId = "0AD2E2E0-FC0D-4C67-836B-444215FA4DDA";
shapes = (
{
closed = 1;
nodes = (
(224,340,ls),
(229,375,o),
(250,397,o),
(278,409,cs),
(291,414,o),
(305,417,o),
(318,417,cs),
(364,417,o),
(383,385,o),
(373,317,cs),
(329,0,l),
(472,0,l),
(520,340,ls),
(525,375,o),
(545,397,o),
(573,409,cs),
(586,414,o),
(600,417,o),
(614,417,cs),
(661,417,o),
(680,385,o),
(670,317,cs),
(625,0,l),
(769,0,l),
(815,329,ls),
(834,461,o),
(790,537,o),
(693,537,cs),
(616,537,o),
(550,490,o),
(523,431,c),
(520,431,l),
(508,500,o),
(462,537,o),
(393,537,cs),
(319,537,o),
(269,492,o),
(243,436,c),
(237,436,l),
(250,525,l),
(106,525,l),
(33,0,l),
(176,0,l)
);
}
);
width = 877;
},
{
anchors = (
{
name = m.ring;
position = "{415, 540}";
},
{
name = m.uni02BC_1;
position = "{-21, 0}";
},
{
name = b.cedilla_2;
position = "{415, 0}";
},
{
name = b.ogonek_3;
position = "{-21, 0}";
}
);
hints = (
{
horizontal = 1;
place = (0,21);
target = up;
type = BottomGhost;
},
{
horizontal = 1;
place = (449,81);
type = Stem;
}
);
layerId = "E22AC71D-DB87-48BC-8161-A09275C341BE";
shapes = (
{
closed = 1;
nodes = (
(195,355,ls),
(201,396,o),
(227,425,o),
(264,439,cs),
(282,446,o),
(301,449,o),
(319,449,cs),
(387,449,o),
(413,405,o),
(401,317,cs),
(356,0,l),
(446,0,l),
(496,355,ls),
(502,396,o),
(528,425,o),
(565,439,cs),
(582,446,o),
(601,449,o),
(619,449,cs),
(689,449,o),
(713,404,o),
(701,317,cs),
(656,0,l),
(747,0,l),
(793,331,ls),
(811,458,o),
(762,530,o),
(661,530,cs),
(577,530,o),
(521,481,o),
(495,425,c),
(493,425,l),
(476,498,o),
(423,530,o),
(358,530,cs),
(281,530,o),
(240,486,o),
(210,433,c),
(206,433,l),
(218,518,l),
(127,518,l),
(55,0,l),
(145,0,l)
);
}
);
width = 877;
},
{
anchors = (
{
name = m.ring;
position = "{416, 540}";
},
{
name = m.uni02BC_1;
position = "{-19, 0}";
},
{
name = b.cedilla_2;
position = "{416, 0}";
},
{
name = b.ogonek_3;
position = "{-19, 0}";
}
);
hints = (
{
horizontal = 1;
place = (0,21);
target = up;
type = BottomGhost;
},
{
horizontal = 1;
place = (499,19);
type = Stem;
}
);
layerId = "CC8B04B6-4F30-41C2-BC1D-B124A9E292F1";
shapes = (
{
closed = 1;
nodes = (
(148,362,ls),
(157,423,o),
(192,464,o),
(241,484,cs),
(264,494,o),
(289,499,o),
(315,499,cs),
(410,499,o),
(455,445,o),
(438,322,cs),
(393,0,l),
(413,0,l),
(464,360,ls),
(473,423,o),
(508,463,o),
(556,484,cs),
(579,494,o),
(605,499,o),
(631,499,cs),
(727,499,o),
(771,445,o),
(754,322,cs),
(709,0,l),
(729,0,l),
(775,325,ls),
(793,452,o),
(745,518,o),
(636,518,cs),
(547,518,o),
(487,471,o),
(460,406,c),
(457,406,l),
(448,479,o),
(400,518,o),
(320,518,cs),
(235,518,o),
(185,475,o),
(160,430,c),
(157,430,l),
(168,506,l),
(148,506,l),
(77,0,l),
(97,0,l)
);
}
);
width = 877;
}
);
leftKerningGroup = m;
rightKerningGroup = h;
unicode = 109;
}
{
glyphname = n;
layers = (
{
anchors = (
{
name = m.ring;
position = "{260, 540}";
},
{
name = m.uni02BC_1;
position = "{-28, 0}";
},
{
name = b.cedilla_2;
position = "{259, 0}";
},
{
name = b.ogonek_3;
position = "{-28, 0}";
}
);
hints = (
{
horizontal = 1;
place = (0,21);
target = up;
type = BottomGhost;
}
);
layerId = "C5FC3DAF-4290-4CD4-AD90-77B56B79BFFD";
shapes = (
{
closed = 1;
nodes = (
(216,340,ls),
(221,375,o),
(244,397,o),
(274,409,cs),
(288,414,o),
(303,417,o),
(318,417,cs),
(371,417,o),
(383,384,o),
(374,317,cs),
(330,0,l),
(473,0,l),
(520,329,ls),
(539,461,o),
(494,537,o),
(391,537,cs),
(311,537,o),
(261,491,o),
(235,436,c),
(230,436,l),
(242,525,l),
(99,525,l),
(25,0,l),
(168,0,l)
);
}
);
width = 573;
},
{
anchors = (
{
name = m.ring;
position = "{260, 540}";
},
{
name = m.uni02BC_1;
position = "{-27, 0}";
},
{
name = b.cedilla_2;
position = "{259, 0}";
},
{
name = b.ogonek_3;
position = "{-27, 0}";
}
);
hints = (
{
horizontal = 1;
place = (0,21);
target = up;
type = BottomGhost;
},
{
horizontal = 1;
place = (449,81);
type = Stem;
}
);
layerId = "38727D70-1DA2-45B2-A346-FCEACAA78F51";
shapes = (
{
closed = 1;
nodes = (
(189,355,ls),
(195,396,o),
(223,425,o),
(260,439,cs),
(279,446,o),
(298,449,o),
(317,449,cs),
(387,449,o),
(415,404,o),
(403,317,cs),
(359,0,l),
(449,0,l),
(495,331,ls),
(513,458,o),
(461,530,o),
(358,530,cs),
(284,530,o),
(235,490,o),
(204,433,c),
(200,433,l),
(212,518,l),
(121,518,l),
(49,0,l),
(139,0,l)
);
}
);
width = 573;
},
{
anchors = (
{
name = m.ring;
position = "{262, 540}";
},
{
name = m.uni02BC_1;
position = "{-24, 0}";
},
{
name = b.cedilla_2;
position = "{261, 0}";
},
{
name = b.ogonek_3;
position = "{-24, 0}";
}
);
hints = (
{
horizontal = 1;
place = (0,21);
target = up;
type = BottomGhost;
},
{
horizontal = 1;
place = (499,19);
type = Stem;
}
);
layerId = "7766A055-9583-43BA-9BBE-7DA8199C50F9";
shapes = (
{
closed = 1;
nodes = (
(151,362,ls),
(160,423,o),
(197,464,o),
(246,484,cs),
(270,494,o),
(296,499,o),
(323,499,cs),
(418,499,o),
(464,444,o),
(447,321,cs),
(402,0,l),
(422,0,l),
(468,325,ls),
(486,452,o),
(437,518,o),
(328,518,cs),
(241,518,o),
(189,475,o),
(164,430,c),
(161,430,l),
(171,506,l),
(151,506,l),
(80,0,l),
(100,0,l)
);
}
);
width = 573;
}
);
leftKerningGroup = m;
rightKerningGroup = h;
unicode = 110;
}
{
glyphname = o;
layers = (
{
anchors = (
{
name = m.ring;
position = "{251, 540}";
},
{
name = m.uni02BC_1;
position = "{-28, 0}";
},
{
name = b.cedilla_2;
position = "{251, 0}";
},
{
name = b.ogonek_3;
position = "{-28, 0}";
}
);
hints = (
{
horizontal = 1;
place = (-12,117);
type = Stem;
},
{
horizontal = 1;
place = (420,117);
type = Stem;
}
);
layerId = "C5FC3DAF-4290-4CD4-AD90-77B56B79BFFD";
shapes = (
{
closed = 1;
nodes = (
(339,-12,o),
(417,34,o),
(467,117,cs),
(491,158,o),
(507,207,o),
(515,263,cs),
(531,376,o),
(503,459,o),
(439,504,cs),
(406,526,o),
(365,537,o),
(316,537,cs),
(216,537,o),
(138,490,o),
(89,409,cs),
(64,368,o),
(48,320,o),
(40,263,cs),
(24,151,o),
(52,66,o),
(116,22,cs),
(149,-1,o),
(190,-12,o),
(239,-12,cs)
);
},
{
closed = 1;
nodes = (
(200,105,o),
(173,144,o),
(182,209,cs),
(197,316,ls),
(206,383,o),
(245,420,o),
(300,420,cs),
(357,420,o),
(382,383,o),
(373,316,cs),
(358,209,ls),
(349,144,o),
(312,105,o),
(255,105,cs)
);
}
);
width = 561;
},
{
anchors = (
{
name = m.ring;
position = "{250, 540}";
},
{
name = m.uni02BC_1;
position = "{-28, 0}";
},
{
name = b.cedilla_2;
position = "{250, 0}";
},
{
name = b.ogonek_3;
position = "{-28, 0}";
}
);
hints = (
{
horizontal = 1;
place = (-12,80);
type = Stem;
},
{
horizontal = 1;
place = (450,80);
type = Stem;
}
);
layerId = "38727D70-1DA2-45B2-A346-FCEACAA78F51";
shapes = (
{
closed = 1;
nodes = (
(330,-12,o),
(405,35,o),
(455,116,c),
(479,157,o),
(495,204,o),
(503,259,cs),
(519,370,o),
(491,452,o),
(429,497,cs),
(398,519,o),
(359,530,o),
(314,530,cs),
(224,530,o),
(148,483,o),
(99,403,cs),
(74,362,o),
(57,314,o),
(49,259,cs),
(34,150,o),
(62,66,o),
(124,22,cs),
(155,-1,o),
(193,-12,o),
(238,-12,cs)
);
},
{
closed = 1;
nodes = (
(172,68,o),
(126,118,o),
(140,219,cs),
(151,299,ls),
(165,400,o),
(226,450,o),
(303,450,cs),
(381,450,o),
(427,400,o),
(413,299,cs),
(402,219,ls),
(388,118,o),
(327,68,o),
(249,68,cs)
);
}
);
width = 561;
},
{
anchors = (
{
name = m.ring;
position = "{252, 540}";
},
{
name = m.uni02BC_1;
position = "{-26, 0}";
},
{
name = b.cedilla_2;
position = "{252, 0}";
},
{
name = b.ogonek_3;
position = "{-26, 0}";
}
);
hints = (
{
horizontal = 1;
place = (-12,19);
type = Stem;
},
{
horizontal = 1;
place = (499,19);
type = Stem;
}
);
layerId = "7766A055-9583-43BA-9BBE-7DA8199C50F9";
shapes = (
{
closed = 1;
nodes = (
(324,-12,o),
(390,28,o),
(433,107,cs),
(455,146,o),
(470,195,o),
(478,253,cs),
(494,370,o),
(473,448,o),
(418,488,cs),
(391,508,o),
(355,518,o),
(313,518,cs),
(228,518,o),
(162,478,o),
(119,400,cs),
(97,361,o),
(82,312,o),
(74,253,cs),
(58,137,o),
(79,58,o),
(134,18,cs),
(161,-2,o),
(197,-12,o),
(239,-12,cs)
);
},
{
closed = 1;
nodes = (
(127,7,o),
(74,93,o),
(93,229,cs),
(100,277,ls),
(119,413,o),
(196,499,o),
(311,499,cs),
(426,499,o),
(478,413,o),
(459,277,cs),
(452,229,ls),
(433,93,o),
(357,7,o),
(242,7,cs)
);
}
);
width = 561;
}
);
leftKerningGroup = c2;
rightKerningGroup = o;
unicode = 111;
}
{
glyphname = r;
layers = (
{
anchors = (
{
name = m.ring;
position = "{187, 540}";
},
{
name = m.uni02BC_1;
position = "{-32, 0}";
},
{
name = b.cedilla_2;
position = "{95, 0}";
},
{
name = b.ogonek_3;
position = "{-32, 0}";
}
);
hints = (
{
horizontal = 1;
place = (0,21);
target = up;
type = BottomGhost;
}
);
layerId = "C5FC3DAF-4290-4CD4-AD90-77B56B79BFFD";
shapes = (
{
closed = 1;
nodes = (
(205,307,ls),
(211,348,o),
(232,370,o),
(270,380,cs),
(289,385,o),
(311,387,o),
(339,387,cs),
(349,387,o),
(360,383,o),
(373,377,c),
(446,502,l),
(420,517,o),
(393,525,o),
(369,525,cs),
(316,525,o),
(278,501,o),
(253,466,cs),
(240,449,o),
(231,430,o),
(224,411,c),
(219,411,l),
(235,525,l),
(92,525,l),
(18,0,l),
(162,0,l)
);
}
);
width = 414;
},
{
anchors = (
{
name = m.ring;
position = "{188, 540}";
},
{
name = m.uni02BC_1;
position = "{-31, 0}";
},
{
name = b.cedilla_2;
position = "{96, 0}";
},
{
name = b.ogonek_3;
position = "{-31, 0}";
}
);
hints = (
{
horizontal = 1;
place = (0,21);
target = up;
type = BottomGhost;
},
{
horizontal = 1;
place = (427,91);
type = Stem;
}
);
layerId = "38727D70-1DA2-45B2-A346-FCEACAA78F51";
shapes = (
{
closed = 1;
nodes = (
(183,342,ls),
(188,377,o),
(213,401,o),
(254,416,cs),
(274,423,o),
(297,427,o),
(325,427,cs),
(339,427,o),
(354,424,o),
(367,418,c),
(413,502,l),
(395,511,o),
(370,518,o),
(353,518,cs),
(299,518,o),
(258,498,o),
(231,468,c),
(216,453,o),
(206,436,o),
(199,419,c),
(194,419,l),
(208,518,l),
(117,518,l),
(45,0,l),
(135,0,l)
);
}
);
width = 414;
},
{
anchors = (
{
name = m.ring;
position = "{190, 540}";
},
{
name = m.uni02BC_1;
position = "{-28, 0}";
},
{
name = b.cedilla_2;
position = "{99, 0}";
},
{
name = b.ogonek_3;
position = "{-28, 0}";
}
);
hints = (
{
horizontal = 1;
place = (0,21);
target = up;
type = BottomGhost;
},
{
horizontal = 1;
place = (487,19);
type = Stem;
},
{
place = (83,290);
type = Stem;
}
);
layerId = "7766A055-9583-43BA-9BBE-7DA8199C50F9";
shapes = (
{
closed = 1;
nodes = (
(153,349,ls),
(162,412,o),
(199,452,o),
(248,472,cs),
(272,482,o),
(298,487,o),
(324,487,cs),
(338,487,o),
(352,484,o),
(365,479,c),
(373,497,l),
(361,502,o),
(342,506,o),
(329,506,cs),
(270,506,o),
(229,489,o),
(201,463,cs),
(187,450,o),
(175,435,o),
(165,419,c),
(162,419,l),
(175,506,l),
(154,506,l),
(83,0,l),
(103,0,l)
);
}
);
width = 414;
}
);
leftKerningGroup = m;
rightKerningGroup = r;
unicode = 114;
}
{
glyphname = t;
layers = (
{
anchors = (
{
name = m.ring;
position = "{-33, 0}";
},
{
name = m.uni02BC_1;
position = "{229, 751}";
},
{
name = b.cedilla_2;
position = "{179, 0}";
},
{
name = b.ogonek_3;
position = "{-33, 0}";
}
);
hints = (
{
horizontal = 1;
place = (0,115);
type = Stem;
},
{
horizontal = 1;
place = (410,115);
type = Stem;
},
{
place = (34,330);
type = Stem;
}
);
layerId = "C5FC3DAF-4290-4CD4-AD90-77B56B79BFFD";
shapes = (
{
closed = 1;
nodes = (
(299,115,l),
(207,115,l),
(248,410,l),
(348,410,l),
(364,525,l),
(264,525,l),
(284,667,l),
(155,667,l),
(143,581,ls),
(138,545,o),
(123,525,o),
(85,525,cs),
(50,525,l),
(34,410,l),
(105,410,l),
(69,153,ls),
(55,53,o),
(100,0,o),
(198,0,cs),
(283,0,l)
);
}
);
width = 357;
},
{
anchors = (
{
name = m.ring;
position = "{-32, 0}";
},
{
name = m.uni02BC_1;
position = "{229, 751}";
},
{
name = b.cedilla_2;
position = "{180, 0}";
},
{
name = b.ogonek_3;
position = "{-32, 0}";
}
);
hints = (
{
horizontal = 1;
place = (0,79);
type = Stem;
},
{
horizontal = 1;
place = (439,79);
type = Stem;
},
{
place = (55,288);
type = Stem;
}
);
layerId = "38727D70-1DA2-45B2-A346-FCEACAA78F51";
shapes = (
{
closed = 1;
nodes = (
(273,79,l),
(174,79,l),
(225,439,l),
(332,439,l),
(343,518,l),
(236,518,l),
(256,661,l),
(175,661,l),
(161,566,ls),
(156,531,o),
(145,518,o),
(110,518,cs),
(66,518,l),
(55,439,l),
(135,439,l),
(87,98,ls),
(79,39,o),
(107,0,o),
(168,0,cs),
(262,0,l)
);
}
);
width = 357;
},
{
anchors = (
{
name = m.ring;
position = "{-31, 0}";
},
{
name = m.uni02BC_1;
position = "{230, 751}";
},
{
name = b.cedilla_2;
position = "{181, 0}";
},
{
name = b.ogonek_3;
position = "{-31, 0}";
}
);
hints = (
{
horizontal = 1;
place = (0,19);
type = Stem;
},
{
horizontal = 1;
place = (487,19);
type = Stem;
},
{
place = (87,230);
type = Stem;
}
);
layerId = "7766A055-9583-43BA-9BBE-7DA8199C50F9";
shapes = (
{
closed = 1;
nodes = (
(241,19,l),
(132,19,l),
(198,487,l),
(314,487,l),
(317,506,l),
(201,506,l),
(221,650,l),
(201,650,l),
(184,531,ls),
(182,514,o),
(176,506,o),
(158,506,cs),
(89,506,l),
(87,487,l),
(178,487,l),
(114,29,ls),
(111,9,o),
(118,0,o),
(137,0,cs),
(238,0,l)
);
}
);
width = 357;
}
);
leftKerningGroup = t2;
rightKerningGroup = t;
unicode = 116;
}
{
glyphname = u;
layers = (
{
anchors = (
{
name = m.ring;
position = "{254, 540}";
},
{
name = m.uni02BC_1;
position = "{-28, 0}";
},
{
name = b.cedilla_2;
position = "{250, 0}";
},
{
name = b.ogonek_3;
position = "{454, 0}";
}
);
hints = (
{
horizontal = 1;
place = (0,21);
target = up;
type = BottomGhost;
}
);
layerId = "0AD2E2E0-FC0D-4C67-836B-444215FA4DDA";
shapes = (
{
closed = 1;
nodes = (
(468,0,l),
(542,525,l),
(398,525,l),
(350,184,ls),
(345,151,o),
(323,128,o),
(295,117,cs),
(280,111,o),
(264,108,o),
(250,108,cs),
(199,108,o),
(183,144,o),
(192,208,cs),
(237,525,l),
(93,525,l),
(47,195,ls),
(28,63,o),
(73,-12,o),
(176,-12,cs),
(217,-12,o),
(252,-2,o),
(277,18,cs),
(302,38,o),
(320,61,o),
(332,88,c),
(337,88,l),
(324,0,l)
);
}
);
width = 573;
},
{
anchors = (
{
name = m.ring;
position = "{255, 540}";
},
{
name = m.uni02BC_1;
position = "{-26, 0}";
},
{
name = b.cedilla_2;
position = "{251, 0}";
},
{
name = b.ogonek_3;
position = "{455, 0}";
}
);
hints = (
{
horizontal = 1;
place = (-12,81);
type = Stem;
},
{
horizontal = 1;
place = (0,21);
target = up;
type = BottomGhost;
}
);
layerId = "E22AC71D-DB87-48BC-8161-A09275C341BE";
shapes = (
{
closed = 1;
nodes = (
(444,0,l),
(517,518,l),
(427,518,l),
(377,164,ls),
(371,120,o),
(343,92,o),
(307,79,cs),
(289,72,o),
(270,69,o),
(251,69,cs),
(181,69,o),
(152,114,o),
(164,201,cs),
(208,518,l),
(118,518,l),
(71,187,ls),
(53,60,o),
(108,-12,o),
(209,-12,cs),
(250,-12,o),
(284,-2,o),
(308,18,cs),
(332,37,o),
(350,60,o),
(362,85,c),
(366,85,l),
(354,0,l)
);
}
);
width = 573;
},
{
anchors = (
{
name = m.ring;
position = "{256, 540}";
},
{
name = m.uni02BC_1;
position = "{-24, 0}";
},
{
name = b.cedilla_2;
position = "{252, 0}";
},
{
name = b.ogonek_3;
position = "{456, 0}";
}
);
hints = (
{
horizontal = 1;
place = (-12,19);
type = Stem;
},
{
horizontal = 1;
place = (0,21);
target = up;
type = BottomGhost;
}
);
layerId = "CC8B04B6-4F30-41C2-BC1D-B124A9E292F1";
shapes = (
{
closed = 1;
nodes = (
(413,0,l),
(484,506,l),
(464,506,l),
(413,144,ls),
(404,83,o),
(367,42,o),
(318,22,cs),
(294,12,o),
(268,7,o),
(241,7,cs),
(146,7,o),
(100,62,o),
(117,185,cs),
(162,506,l),
(142,506,l),
(96,181,ls),
(78,56,o),
(127,-12,o),
(236,-12,cs),
(279,-12,o),
(315,-3,o),
(343,15,cs),
(370,33,o),
(388,53,o),
(400,76,c),
(403,76,l),
(393,0,l)
);
}
);
width = 573;
}
);
leftKerningGroup = u2;
rightKerningGroup = u;
unicode = 117;
}
{
glyphname = v;
layers = (
{
anchors = (
{
name = m.ring;
position = "{213, 540}";
},
{
name = m.uni02BC_1;
position = "{-30, 0}";
},
{
name = b.cedilla_2;
position = "{213, 0}";
},
{
name = b.ogonek_3;
position = "{-30, 0}";
}
);
hints = (
{
horizontal = 1;
place = (0,21);
target = up;
type = BottomGhost;
}
);
layerId = "0AD2E2E0-FC0D-4C67-836B-444215FA4DDA";
shapes = (
{
closed = 1;
nodes = (
(534,525,l),
(399,525,l),
(309,313,l),
(235,123,l),
(228,123,l),
(207,313,l),
(175,525,l),
(35,525,l),
(126,0,l),
(295,0,l)
);
}
);
width = 501;
},
{
anchors = (
{
name = m.ring;
position = "{214, 540}";
},
{
name = m.uni02BC_1;
position = "{-29, 0}";
},
{
name = b.cedilla_2;
position = "{214, 0}";
},
{
name = b.ogonek_3;
position = "{-29, 0}";
}
);
hints = (
{
horizontal = 1;
place = (0,21);
target = up;
type = BottomGhost;
}
);
layerId = "E22AC71D-DB87-48BC-8161-A09275C341BE";
shapes = (
{
closed = 1;
nodes = (
(508,518,l),
(422,518,l),
(305,270,l),
(227,91,l),
(222,91,l),
(194,270,l),
(148,518,l),
(58,518,l),
(158,0,l),
(262,0,l)
);
}
);
width = 501;
},
{
anchors = (
{
name = m.ring;
position = "{215, 540}";
},
{
name = m.uni02BC_1;
position = "{-28, 0}";
},
{
name = b.cedilla_2;
position = "{215, 0}";
},
{
name = b.ogonek_3;
position = "{-28, 0}";
}
);
hints = (
{
horizontal = 1;
place = (0,21);
target = up;
type = BottomGhost;
}
);
layerId = "CC8B04B6-4F30-41C2-BC1D-B124A9E292F1";
shapes = (
{
closed = 1;
nodes = (
(474,506,l),
(453,506,l),
(297,189,l),
(215,24,l),
(212,24,l),
(177,189,l),
(109,506,l),
(88,506,l),
(197,0,l),
(222,0,l)
);
}
);
width = 501;
}
);
unicode = 118;
}
{
glyphname = w;
layers = (
{
anchors = (
{
name = m.ring;
position = "{355, 540}";
},
{
name = m.uni02BC_1;
position = "{-25, 0}";
},
{
name = b.cedilla_2;
position = "{355, 0}";
},
{
name = b.ogonek_3;
position = "{-25, 0}";
}
);
hints = (
{
horizontal = 1;
place = (0,21);
target = up;
type = BottomGhost;
}
);
layerId = "0AD2E2E0-FC0D-4C67-836B-444215FA4DDA";
shapes = (
{
closed = 1;
nodes = (
(252,0,l),
(345,222,l),
(398,358,l),
(401,358,l),
(418,222,l),
(448,0,l),
(597,0,l),
(810,525,l),
(678,525,l),
(599,313,l),
(542,153,l),
(538,153,l),
(520,313,l),
(491,525,l),
(361,525,l),
(274,313,l),
(211,153,l),
(207,153,l),
(195,313,l),
(176,525,l),
(39,525,l),
(106,0,l)
);
}
);
width = 782;
},
{
anchors = (
{
name = m.ring;
position = "{357, 540}";
},
{
name = m.uni02BC_1;
position = "{-23, 0}";
},
{
name = b.cedilla_2;
position = "{357, 0}";
},
{
name = b.ogonek_3;
position = "{-23, 0}";
}
);
hints = (
{
horizontal = 1;
place = (0,21);
target = up;
type = BottomGhost;
}
);
layerId = "E22AC71D-DB87-48BC-8161-A09275C341BE";
shapes = (
{
closed = 1;
nodes = (
(241,0,l),
(342,243,l),
(405,396,l),
(407,396,l),
(427,243,l),
(460,0,l),
(566,0,l),
(771,518,l),
(688,518,l),
(604,297,l),
(527,83,l),
(524,83,l),
(496,297,l),
(464,518,l),
(384,518,l),
(292,297,l),
(205,83,l),
(203,83,l),
(183,297,l),
(163,518,l),
(76,518,l),
(137,0,l)
);
}
);
width = 782;
},
{
anchors = (
{
name = m.ring;
position = "{359, 540}";
},
{
name = m.uni02BC_1;
position = "{-22, 0}";
},
{
name = b.cedilla_2;
position = "{359, 0}";
},
{
name = b.ogonek_3;
position = "{-22, 0}";
}
);
hints = (
{
horizontal = 1;
place = (0,27);
type = Stem;
}
);
layerId = "CC8B04B6-4F30-41C2-BC1D-B124A9E292F1";
shapes = (
{
closed = 1;
nodes = (
(209,0,l),
(344,308,l),
(416,472,l),
(419,472,l),
(444,308,l),
(492,0,l),
(517,0,l),
(736,506,l),
(716,506,l),
(581,191,l),
(511,27,l),
(508,27,l),
(482,191,l),
(433,506,l),
(412,506,l),
(274,191,l),
(202,27,l),
(199,27,l),
(175,191,l),
(129,506,l),
(107,506,l),
(184,0,l)
);
}
);
width = 782;
}
);
leftKerningGroup = w2;
rightKerningGroup = w;
unicode = 119;
}
{
glyphname = x;
layers = (
{
anchors = (
{
name = m.ring;
position = "{221, 540}";
},
{
name = m.uni02BC_1;
position = "{-30, 0}";
},
{
name = b.cedilla_2;
position = "{221, 0}";
},
{
name = b.ogonek_3;
position = "{-30, 0}";
}
);
hints = (
{
horizontal = 1;
place = (0,21);
target = up;
type = BottomGhost;
}
);
layerId = "0AD2E2E0-FC0D-4C67-836B-444215FA4DDA";
shapes = (
{
closed = 1;
nodes = (
(114,0,l),
(231,171,l),
(235,171,l),
(308,0,l),
(469,0,l),
(338,262,l),
(542,525,l),
(392,525,l),
(278,360,l),
(274,360,l),
(203,525,l),
(42,525,l),
(170,267,l),
(-34,0,l)
);
}
);
width = 517;
},
{
anchors = (
{
name = m.ring;
position = "{222, 540}";
},
{
name = m.uni02BC_1;
position = "{-29, 0}";
},
{
name = b.cedilla_2;
position = "{222, 0}";
},
{
name = b.ogonek_3;
position = "{-29, 0}";
}
);
hints = (
{
horizontal = 1;
place = (0,21);
target = up;
type = BottomGhost;
}
);
layerId = "E22AC71D-DB87-48BC-8161-A09275C341BE";
shapes = (
{
closed = 1;
nodes = (
(87,0,l),
(245,196,l),
(248,196,l),
(343,0,l),
(447,0,l),
(308,265,l),
(516,518,l),
(418,518,l),
(269,331,l),
(266,331,l),
(172,518,l),
(69,518,l),
(206,261,l),
(-11,0,l)
);
}
);
width = 517;
},
{
anchors = (
{
name = m.ring;
position = "{224, 540}";
},
{
name = m.uni02BC_1;
position = "{-28, 0}";
},
{
name = b.cedilla_2;
position = "{224, 0}";
},
{
name = b.ogonek_3;
position = "{-28, 0}";
}
);
hints = (
{
horizontal = 1;
place = (0,21);
target = up;
type = BottomGhost;
}
);
layerId = "CC8B04B6-4F30-41C2-BC1D-B124A9E292F1";
shapes = (
{
closed = 1;
nodes = (
(48,0,l),
(250,239,l),
(252,239,l),
(388,0,l),
(411,0,l),
(266,255,l),
(477,506,l),
(454,506,l),
(257,271,l),
(255,271,l),
(124,506,l),
(101,506,l),
(241,255,l),
(25,0,l)
);
}
);
width = 517;
}
);
unicode = 120;
}
{
glyphname = y;
layers = (
{
anchors = (
{
name = m.ring;
position = "{217, 540}";
},
{
name = m.uni02BC_1;
position = "{-30, 0}";
},
{
name = b.cedilla_2;
position = "{358, 0}";
},
{
name = b.ogonek_3;
position = "{-30, 0}";
}
);
hints = (
{
horizontal = 1;
place = (-200,115);
type = Stem;
}
);
layerId = "C5FC3DAF-4290-4CD4-AD90-77B56B79BFFD";
shapes = (
{
closed = 1;
nodes = (
(238,128,l),
(232,128,l),
(217,280,l),
(178,525,l),
(37,525,l),
(136,-27,l),
(110,-85,l),
(15,-85,l),
(-1,-200,l),
(87,-200,ls),
(145,-200,o),
(185,-183,o),
(217,-148,c),
(232,-130,o),
(247,-108,o),
(259,-81,cs),
(538,525,l),
(405,525,l),
(297,280,l)
);
}
);
width = 506;
},
{
anchors = (
{
name = m.ring;
position = "{218, 540}";
},
{
name = m.uni02BC_1;
position = "{-29, 0}";
},
{
name = b.cedilla_2;
position = "{359, 0}";
},
{
name = b.ogonek_3;
position = "{-29, 0}";
}
);
hints = (
{
horizontal = 1;
place = (-200,79);
type = Stem;
}
);
layerId = "38727D70-1DA2-45B2-A346-FCEACAA78F51";
shapes = (
{
closed = 1;
nodes = (
(228,90,l),
(222,90,l),
(211,187,l),
(147,518,l),
(57,518,l),
(165,-21,l),
(117,-121,l),
(37,-121,l),
(26,-200,l),
(74,-200,ls),
(125,-200,o),
(154,-191,o),
(177,-165,cs),
(188,-152,o),
(199,-134,o),
(209,-113,cs),
(514,518,l),
(428,518,l),
(270,187,l)
);
}
);
width = 506;
},
{
anchors = (
{
name = m.ring;
position = "{220, 540}";
},
{
name = m.uni02BC_1;
position = "{-28, 0}";
},
{
name = b.cedilla_2;
position = "{361, 0}";
},
{
name = b.ogonek_3;
position = "{-28, 0}";
}
);
hints = (
{
horizontal = 1;
place = (-200,19);
type = Stem;
}
);
layerId = "7766A055-9583-43BA-9BBE-7DA8199C50F9";
shapes = (
{
closed = 1;
nodes = (
(219,24,l),
(216,24,l),
(179,194,l),
(113,506,l),
(91,506,l),
(203,-7,l),
(115,-181,l),
(26,-181,l),
(23,-200,l),
(104,-200,ls),
(115,-200,o),
(122,-198,o),
(129,-192,cs),
(132,-189,o),
(134,-185,o),
(136,-181,cs),
(477,506,l),
(457,506,l),
(303,194,l)
);
}
);
width = 506;
}
);
leftKerningGroup = y2;
rightKerningGroup = y;
unicode = 121;
}
{
glyphname = z;
layers = (
{
anchors = (
{
name = m.ring;
position = "{200, 540}";
},
{
name = m.uni02BC_1;
position = "{-30, 0}";
},
{
name = b.cedilla_2;
position = "{200, 0}";
},
{
name = b.ogonek_3;
position = "{-30, 0}";
}
);
hints = (
{
horizontal = 1;
place = (0,115);
type = Stem;
},
{
horizontal = 1;
place = (410,115);
type = Stem;
}
);
layerId = "C5FC3DAF-4290-4CD4-AD90-77B56B79BFFD";
shapes = (
{
closed = 1;
nodes = (
(424,115,l),
(166,115,l),
(459,409,l),
(475,525,l),
(68,525,l),
(52,410,l),
(294,410,l),
(2,117,l),
(-15,0,l),
(408,0,l)
);
}
);
width = 474;
},
{
anchors = (
{
name = m.ring;
position = "{201, 540}";
},
{
name = m.uni02BC_1;
position = "{-29, 0}";
},
{
name = b.cedilla_2;
position = "{201, 0}";
},
{
name = b.ogonek_3;
position = "{-29, 0}";
}
);
hints = (
{
horizontal = 1;
place = (0,79);
type = Stem;
},
{
horizontal = 1;
place = (439,79);
type = Stem;
}
);
layerId = "38727D70-1DA2-45B2-A346-FCEACAA78F51";
shapes = (
{
closed = 1;
nodes = (
(403,79,l),
(115,79,l),
(447,447,l),
(457,518,l),
(83,518,l),
(72,439,l),
(339,439,l),
(13,77,l),
(2,0,l),
(392,0,l)
);
}
);
width = 474;
},
{
anchors = (
{
name = m.ring;
position = "{202, 540}";
},
{
name = m.uni02BC_1;
position = "{-29, 0}";
},
{
name = b.cedilla_2;
position = "{202, 0}";
},
{
name = b.ogonek_3;
position = "{-29, 0}";
}
);
hints = (
{
horizontal = 1;
place = (0,19);
type = Stem;
},
{
horizontal = 1;
place = (487,19);
type = Stem;
}
);
layerId = "7766A055-9583-43BA-9BBE-7DA8199C50F9";
shapes = (
{
closed = 1;
nodes = (
(379,19,l),
(46,19,l),
(435,485,l),
(438,506,l),
(103,506,l),
(100,487,l),
(414,487,l),
(25,21,l),
(22,0,l),
(376,0,l)
);
}
);
width = 474;
}
);
leftKerningGroup = z2;
rightKerningGroup = z;
unicode = 122;
}
{
glyphname = braceleft;
layers = (
{
hints = (
{
horizontal = 1;
place = (-138,104);
type = Stem;
},
{
horizontal = 1;
place = (255,113);
type = Stem;
},
{
horizontal = 1;
place = (656,104);
type = Stem;
}
);
layerId = "0AD2E2E0-FC0D-4C67-836B-444215FA4DDA";
shapes = (
{
closed = 1;
nodes = (
(264,-34,l),
(196,-34,l),
(226,181,ls),
(232,225,o),
(217,262,o),
(190,286,cs),
(176,298,o),
(160,306,o),
(142,309,c),
(143,313,l),
(180,321,o),
(216,346,o),
(241,382,c),
(252,400,o),
(260,420,o),
(263,441,cs),
(293,656,l),
(361,656,l),
(375,760,l),
(268,760,ls),
(216,760,o),
(168,724,o),
(159,659,cs),
(131,457,ls),
(123,400,o),
(78,368,o),
(23,368,c),
(7,255,l),
(62,255,o),
(98,225,o),
(90,166,cs),
(61,-37,ls),
(52,-102,o),
(90,-138,o),
(142,-138,cs),
(249,-138,l)
);
}
);
width = 349;
},
{
hints = (
{
horizontal = 1;
place = (-138,71);
type = Stem;
},
{
horizontal = 1;
place = (269,84);
type = Stem;
},
{
horizontal = 1;
place = (689,71);
type = Stem;
}
);
layerId = "E22AC71D-DB87-48BC-8161-A09275C341BE";
shapes = (
{
closed = 1;
nodes = (
(239,-67,l),
(151,-67,l),
(185,176,ls),
(191,219,o),
(179,256,o),
(155,281,c),
(142,293,o),
(127,301,o),
(109,304,c),
(111,318,l),
(148,326,o),
(181,351,o),
(203,388,cs),
(213,406,o),
(220,425,o),
(223,446,cs),
(257,689,l),
(346,689,l),
(356,760,l),
(269,760,ls),
(217,760,o),
(182,725,o),
(175,674,cs),
(142,442,ls),
(134,385,o),
(90,353,o),
(35,353,c),
(23,269,l),
(78,269,o),
(114,238,o),
(106,181,cs),
(73,-52,ls),
(66,-101,o),
(91,-138,o),
(143,-138,cs),
(229,-138,l)
);
}
);
width = 349;
},
{
hints = (
{
horizontal = 1;
place = (-138,18);
type = Stem;
},
{
horizontal = 1;
place = (287,16);
type = Stem;
},
{
horizontal = 1;
place = (319,16);
type = Stem;
},
{
horizontal = 1;
place = (742,18);
type = Stem;
},
{
place = (47,284);
type = Stem;
}
);
layerId = "CC8B04B6-4F30-41C2-BC1D-B124A9E292F1";
shapes = (
{
closed = 1;
nodes = (
(207,-120,l),
(104,-120,l),
(149,201,ls),
(155,242,o),
(144,274,o),
(117,291,cs),
(103,299,o),
(86,303,o),
(66,303,c),
(69,319,l),
(108,319,o),
(141,336,o),
(161,367,cs),
(171,382,o),
(177,400,o),
(180,421,cs),
(225,742,l),
(328,742,l),
(331,760,l),
(233,760,ls),
(216,760,o),
(207,753,o),
(204,734,cs),
(160,421,ls),
(152,361,o),
(112,335,o),
(53,335,c),
(47,287,l),
(106,287,o),
(138,261,o),
(130,201,cs),
(86,-112,ls),
(83,-131,o),
(89,-138,o),
(106,-138,cs),
(204,-138,l)
);
}
);
width = 349;
}
);
rightKerningGroup = braceleft;
unicode = 123;
}
{
glyphname = bar;
layers = (
{
hints = (
{
place = (43,250);
type = Stem;
}
);
layerId = "C5FC3DAF-4290-4CD4-AD90-77B56B79BFFD";
shapes = (
{
closed = 1;
nodes = (
(293,760,l),
(170,760,l),
(43,-138,l),
(167,-138,l)
);
}
);
width = 331;
},
{
hints = (
{
place = (67,204);
type = Stem;
}
);
layerId = "38727D70-1DA2-45B2-A346-FCEACAA78F51";
shapes = (
{
closed = 1;
nodes = (
(271,760,l),
(193,760,l),
(67,-138,l),
(145,-138,l)
);
}
);
width = 331;
},
{
hints = (
{
place = (96,145);
type = Stem;
}
);
layerId = "7766A055-9583-43BA-9BBE-7DA8199C50F9";
shapes = (
{
closed = 1;
nodes = (
(241,760,l),
(222,760,l),
(96,-138,l),
(115,-138,l)
);
}
);
width = 331;
}
);
unicode = 124;
}
{
glyphname = braceright;
layers = (
{
hints = (
{
horizontal = 1;
place = (-138,104);
type = Stem;
},
{
horizontal = 1;
place = (656,104);
type = Stem;
}
);
layerId = "0AD2E2E0-FC0D-4C67-836B-444215FA4DDA";
shapes = (
{
closed = 1;
nodes = (
(92,656,l),
(159,656,l),
(129,442,ls),
(123,399,o),
(139,362,o),
(167,338,cs),
(180,326,o),
(195,318,o),
(213,314,c),
(213,310,l),
(176,303,o),
(140,278,o),
(116,242,cs),
(104,224,o),
(96,204,o),
(93,182,cs),
(62,-34,l),
(-5,-34,l),
(-20,-138,l),
(87,-138,ls),
(141,-138,o),
(187,-102,o),
(196,-37,cs),
(225,166,ls),
(233,225,o),
(277,255,o),
(332,255,c),
(348,368,l),
(293,368,o),
(258,400,o),
(266,457,cs),
(294,659,ls),
(303,724,o),
(267,760,o),
(213,760,cs),
(106,760,l)
);
}
);
width = 349;
},
{
hints = (
{
horizontal = 1;
place = (-138,71);
type = Stem;
},
{
horizontal = 1;
place = (269,84);
type = Stem;
},
{
horizontal = 1;
place = (689,71);
type = Stem;
}
);
layerId = "E22AC71D-DB87-48BC-8161-A09275C341BE";
shapes = (
{
closed = 1;
nodes = (
(116,689,l),
(204,689,l),
(170,446,ls),
(164,405,o),
(176,366,o),
(201,342,cs),
(214,330,o),
(229,322,o),
(247,318,c),
(245,304,l),
(208,297,o),
(174,272,o),
(153,236,cs),
(142,218,o),
(135,198,o),
(132,176,cs),
(98,-67,l),
(9,-67,l),
(-1,-138,l),
(87,-138,ls),
(139,-138,o),
(173,-101,o),
(180,-52,cs),
(213,181,ls),
(221,238,o),
(265,269,o),
(320,269,c),
(332,353,l),
(277,353,o),
(241,385,o),
(249,442,cs),
(282,674,ls),
(289,725,o),
(265,760,o),
(213,760,cs),
(126,760,l)
);
}
);
width = 349;
},
{
hints = (
{
horizontal = 1;
place = (-138,18);
type = Stem;
},
{
horizontal = 1;
place = (287,16);
type = Stem;
},
{
horizontal = 1;
place = (319,16);
type = Stem;
},
{
horizontal = 1;
place = (742,18);
type = Stem;
},
{
place = (26,284);
type = Stem;
}
);
layerId = "CC8B04B6-4F30-41C2-BC1D-B124A9E292F1";
shapes = (
{
closed = 1;
nodes = (
(150,742,l),
(253,742,l),
(207,421,ls),
(201,380,o),
(215,348,o),
(241,332,cs),
(254,323,o),
(270,319,o),
(290,319,c),
(288,303,l),
(249,303,o),
(217,286,o),
(197,255,c),
(186,240,o),
(179,222,o),
(176,201,cs),
(131,-120,l),
(28,-120,l),
(26,-138,l),
(124,-138,ls),
(141,-138,o),
(149,-131,o),
(152,-112,cs),
(196,201,ls),
(204,261,o),
(244,287,o),
(303,287,c),
(310,335,l),
(251,335,o),
(219,361,o),
(227,421,cs),
(271,734,ls),
(274,753,o),
(267,760,o),
(250,760,cs),
(152,760,l)
);
}
);
width = 349;
}
);
leftKerningGroup = braceright;
unicode = 125;
}
{
glyphname = asciitilde;
layers = (
{
hints = (
{
horizontal = 1;
place = (212,119);
type = Stem;
},
{
horizontal = 1;
place = (281,119);
type = Stem;
}
);
layerId = "0AD2E2E0-FC0D-4C67-836B-444215FA4DDA";
shapes = (
{
closed = 1;
nodes = (
(468,212,o),
(513,241,o),
(541,274,c),
(505,358,l),
(474,339,o),
(454,331,o),
(424,331,cs),
(403,331,o),
(386,334,o),
(370,341,cs),
(354,348,o),
(337,355,o),
(321,364,cs),
(281,387,o),
(251,400,o),
(203,400,cs),
(139,400,o),
(94,373,o),
(66,338,c),
(102,254,l),
(133,273,o),
(154,281,o),
(182,281,cs),
(222,281,o),
(252,267,o),
(285,248,c),
(325,227,o),
(356,212,o),
(404,212,cs)
);
}
);
width = 600;
},
{
hints = (
{
horizontal = 1;
place = (231,77);
type = Stem;
},
{
horizontal = 1;
place = (302,77);
type = Stem;
}
);
layerId = "E22AC71D-DB87-48BC-8161-A09275C341BE";
shapes = (
{
closed = 1;
nodes = (
(468,231,o),
(506,255,o),
(537,288,c),
(507,339,l),
(476,319,o),
(455,308,o),
(423,308,cs),
(402,308,o),
(384,312,o),
(368,319,cs),
(351,326,o),
(335,333,o),
(318,342,cs),
(277,365,o),
(245,379,o),
(197,379,cs),
(137,379,o),
(100,356,o),
(69,323,c),
(98,271,l),
(129,292,o),
(151,302,o),
(183,302,cs),
(223,302,o),
(254,287,o),
(288,268,c),
(331,247,o),
(360,231,o),
(408,231,cs)
);
}
);
width = 600;
},
{
hints = (
{
horizontal = 1;
place = (256,20);
type = Stem;
},
{
horizontal = 1;
place = (332,20);
type = Stem;
}
);
layerId = "CC8B04B6-4F30-41C2-BC1D-B124A9E292F1";
shapes = (
{
closed = 1;
nodes = (
(461,256,o),
(496,271,o),
(533,304,c),
(523,318,l),
(488,289,o),
(460,276,o),
(422,276,cs),
(404,276,o),
(388,279,o),
(373,285,cs),
(358,291,o),
(337,300,o),
(310,313,cs),
(254,341,o),
(226,352,o),
(188,352,cs),
(145,352,o),
(112,337,o),
(73,304,c),
(84,290,l),
(120,321,o),
(147,332,o),
(185,332,cs),
(220,332,o),
(244,322,o),
(296,295,c),
(354,267,o),
(382,256,o),
(418,256,cs)
);
}
);
width = 600;
}
);
unicode = 126;
}
{
glyphname = exclamdown;
layers = (
{
hints = (
{
horizontal = 1;
place = (361,176);
type = Stem;
},
{
place = (117,61);
type = Stem;
}
);
layerId = "C5FC3DAF-4290-4CD4-AD90-77B56B79BFFD";
shapes = (
{
closed = 1;
nodes = (
(185,21,l),
(178,305,l),
(117,305,l),
(32,21,l),
(4,-173,l),
(157,-173,l)
);
},
{
closed = 1;
nodes = (
(218,361,o),
(248,394,o),
(254,437,cs),
(257,461,ls),
(263,504,o),
(243,537,o),
(181,537,cs),
(119,537,o),
(89,504,o),
(83,461,c),
(79,437,l),
(73,394,o),
(94,361,o),
(156,361,cs)
);
}
);
width = 291;
},
{
hints = (
{
horizontal = 1;
place = (392,138);
type = Stem;
},
{
place = (104,130);
type = Stem;
},
{
place = (128,44);
type = Stem;
}
);
layerId = "38727D70-1DA2-45B2-A346-FCEACAA78F51";
shapes = (
{
closed = 1;
nodes = (
(157,21,l),
(172,326,l),
(128,326,l),
(58,21,l),
(29,-180,l),
(128,-180,l)
);
},
{
closed = 1;
nodes = (
(206,392,o),
(229,417,o),
(234,453,cs),
(236,468,ls),
(241,504,o),
(225,530,o),
(179,530,cs),
(135,530,o),
(111,504,o),
(106,468,cs),
(104,453,ls),
(99,417,o),
(116,392,o),
(160,392,cs)
);
}
);
width = 291;
},
{
hints = (
{
horizontal = 1;
place = (453,58);
type = Stem;
},
{
place = (145,12);
type = Stem;
},
{
place = (146,52);
type = Stem;
}
);
layerId = "7766A055-9583-43BA-9BBE-7DA8199C50F9";
shapes = (
{
closed = 1;
nodes = (
(128,91,l),
(157,330,l),
(145,330,l),
(107,91,l),
(67,-192,l),
(89,-192,l)
);
},
{
closed = 1;
nodes = (
(188,453,o),
(196,462,o),
(198,478,c),
(200,486,l),
(202,502,o),
(194,511,o),
(177,511,cs),
(160,511,o),
(149,502,o),
(147,486,cs),
(146,478,ls),
(144,462,o),
(152,453,o),
(169,453,cs)
);
}
);
width = 291;
}
);
unicode = 161;
}
{
glyphname = cent;
layers = (
{
layerId = "0AD2E2E0-FC0D-4C67-836B-444215FA4DDA";
shapes = (
{
closed = 1;
nodes = (
(289,-8,l),
(373,4,o),
(434,51,o),
(471,114,c),
(377,173,l),
(357,144,o),
(331,116,o),
(295,104,c),
(339,411,l),
(368,399,o),
(383,373,o),
(392,344,c),
(504,402,l),
(484,465,o),
(441,511,o),
(363,524,c),
(378,630,l),
(270,630,l),
(255,523,l),
(131,500,o),
(46,403,o),
(26,258,cs),
(6,113,o),
(63,17,o),
(181,-7,c),
(166,-114,l),
(274,-114,l)
);
},
{
closed = 1;
nodes = (
(170,300,ls),
(177,353,o),
(206,393,o),
(249,410,c),
(207,106,l),
(167,123,o),
(151,163,o),
(158,216,cs)
);
}
);
width = 521;
},
{
hints = (
{
horizontal = 1;
place = (-9,80);
type = Stem;
},
{
horizontal = 1;
place = (447,79);
type = Stem;
}
);
layerId = "E22AC71D-DB87-48BC-8161-A09275C341BE";
shapes = (
{
closed = 1;
nodes = (
(271,-10,l),
(354,-3,o),
(418,45,o),
(456,110,c),
(396,153,l),
(367,105,o),
(328,76,o),
(279,68,c),
(332,447,l),
(377,440,o),
(404,412,o),
(413,368,c),
(490,408,l),
(471,471,o),
(426,518,o),
(346,526,c),
(361,630,l),
(285,630,l),
(270,525,l),
(151,506,o),
(68,407,o),
(47,258,cs),
(26,110,o),
(80,10,o),
(195,-9,c),
(180,-114,l),
(256,-114,l)
);
},
{
closed = 1;
nodes = (
(147,302,ls),
(157,374,o),
(198,430,o),
(262,445,c),
(209,71,l),
(150,87,o),
(125,143,o),
(135,214,cs)
);
}
);
width = 521;
},
{
hints = (
{
horizontal = 1;
place = (-11,19);
type = Stem;
},
{
horizontal = 1;
place = (498,19);
type = Stem;
}
);
layerId = "CC8B04B6-4F30-41C2-BC1D-B124A9E292F1";
shapes = (
{
closed = 1;
nodes = (
(244,-12,l),
(327,-12,o),
(385,27,o),
(425,84,c),
(411,95,l),
(372,42,o),
(321,8,o),
(246,7,c),
(315,499,l),
(383,499,o),
(421,468,o),
(444,409,c),
(463,418,l),
(441,477,o),
(395,517,o),
(318,518,c),
(332,620,l),
(313,620,l),
(298,517,l),
(178,510,o),
(95,420,o),
(72,253,cs),
(49,86,o),
(106,-4,o),
(224,-11,c),
(210,-114,l),
(229,-114,l)
);
},
{
closed = 1;
nodes = (
(98,277,ls),
(116,406,o),
(188,491,o),
(296,498,c),
(227,8,l),
(121,15,o),
(73,100,o),
(91,229,cs)
);
}
);
width = 521;
}
);
unicode = 162;
}
{
glyphname = sterling;
layers = (
{
hints = (
{
horizontal = 1;
place = (0,128);
type = Stem;
},
{
horizontal = 1;
place = (291,120);
type = Stem;
},
{
horizontal = 1;
place = (579,131);
type = Stem;
},
{
place = (126,146);
type = Stem;
},
{
place = (152,146);
type = Stem;
}
);
layerId = "C5FC3DAF-4290-4CD4-AD90-77B56B79BFFD";
shapes = (
{
closed = 1;
nodes = (
(531,128,l),
(204,128,l),
(205,137,l),
(223,146,o),
(243,161,o),
(262,181,cs),
(281,201,o),
(293,228,o),
(298,263,cs),
(300,274,o),
(300,282,o),
(300,291,c),
(447,291,l),
(464,411,l),
(272,411,l),
(267,434,o),
(264,456,o),
(268,481,cs),
(272,512,o),
(285,537,o),
(304,554,cs),
(323,571,o),
(349,579,o),
(381,579,cs),
(428,579,o),
(461,560,o),
(491,512,c),
(610,589,l),
(569,669,o),
(501,710,o),
(395,710,cs),
(296,710,o),
(216,674,o),
(167,613,cs),
(142,582,o),
(128,546,o),
(122,505,cs),
(117,470,o),
(121,439,o),
(126,411,c),
(61,411,l),
(44,291,l),
(153,291,l),
(154,280,o),
(154,269,o),
(152,258,cs),
(144,201,o),
(107,159,o),
(54,136,c),
(35,0,l),
(513,0,l)
);
}
);
width = 593;
},
{
hints = (
{
horizontal = 1;
place = (0,85);
type = Stem;
},
{
horizontal = 1;
place = (287,79);
type = Stem;
},
{
horizontal = 1;
place = (625,85);
type = Stem;
},
{
place = (130,96);
type = Stem;
},
{
place = (149,94);
type = Stem;
}
);
layerId = "38727D70-1DA2-45B2-A346-FCEACAA78F51";
shapes = (
{
closed = 1;
nodes = (
(497,85,l),
(146,85,l),
(146,91,l),
(166,104,o),
(187,124,o),
(207,152,cs),
(226,180,o),
(238,212,o),
(243,249,cs),
(245,264,o),
(247,275,o),
(246,287,c),
(431,287,l),
(442,366,l),
(233,366,l),
(227,406,o),
(220,444,o),
(226,489,cs),
(232,534,o),
(249,568,o),
(276,591,cs),
(303,614,o),
(335,625,o),
(375,625,cs),
(442,625,o),
(482,595,o),
(509,543,c),
(587,595,l),
(550,667,o),
(490,710,o),
(388,710,cs),
(294,710,o),
(218,673,o),
(173,610,cs),
(150,578,o),
(136,541,o),
(130,500,cs),
(123,449,o),
(132,409,o),
(139,366,c),
(70,366,l),
(59,287,l),
(152,287,l),
(153,274,o),
(151,257,o),
(149,241,cs),
(141,185,o),
(115,131,o),
(58,107,c),
(43,0,l),
(486,0,l)
);
}
);
width = 593;
},
{
hints = (
{
horizontal = 1;
place = (0,20);
type = Stem;
},
{
horizontal = 1;
place = (311,20);
type = Stem;
},
{
horizontal = 1;
place = (690,20);
type = Stem;
},
{
place = (178,21);
type = Stem;
}
);
layerId = "7766A055-9583-43BA-9BBE-7DA8199C50F9";
shapes = (
{
closed = 1;
nodes = (
(478,20,l),
(80,20,l),
(80,22,l),
(114,45,o),
(140,74,o),
(161,109,cs),
(182,144,o),
(195,181,o),
(201,221,cs),
(206,254,o),
(203,283,o),
(199,311,c),
(407,311,l),
(410,331,l),
(196,331,l),
(185,390,o),
(165,442,o),
(175,510,cs),
(183,567,o),
(206,611,o),
(245,643,cs),
(284,674,o),
(329,690,o),
(383,690,cs),
(457,690,o),
(511,657,o),
(544,582,c),
(564,592,l),
(531,671,o),
(468,710,o),
(385,710,cs),
(308,710,o),
(240,677,o),
(196,618,cs),
(174,588,o),
(160,552,o),
(154,510,cs),
(144,441,o),
(163,388,o),
(174,331,c),
(88,331,l),
(85,311,l),
(178,311,l),
(182,283,o),
(184,253,o),
(179,220,cs),
(167,135,o),
(118,68,o),
(57,25,c),
(54,0,l),
(475,0,l)
);
}
);
width = 593;
}
);
unicode = 163;
}
{
glyphname = currency;
layers = (
{
hints = (
{
horizontal = 1;
place = (107,107);
type = Stem;
},
{
horizontal = 1;
place = (484,107);
type = Stem;
}
);
layerId = "C5FC3DAF-4290-4CD4-AD90-77B56B79BFFD";
shapes = (
{
closed = 1;
nodes = (
(332,107,o),
(378,118,o),
(415,137,c),
(492,45,l),
(582,125,l),
(506,216,l),
(532,252,o),
(549,297,o),
(556,349,cs),
(563,401,o),
(559,446,o),
(543,482,c),
(645,573,l),
(577,653,l),
(475,561,l),
(443,580,o),
(400,591,o),
(350,591,cs),
(300,591,o),
(253,580,o),
(216,561,c),
(140,653,l),
(49,573,l),
(126,482,l),
(100,446,o),
(83,401,o),
(76,349,cs),
(69,297,o),
(72,252,o),
(88,216,c),
(-14,125,l),
(54,45,l),
(157,137,l),
(189,118,o),
(232,107,o),
(282,107,cs)
);
},
{
closed = 1;
nodes = (
(237,214,o),
(207,253,o),
(217,321,cs),
(225,377,ls),
(235,445,o),
(275,484,o),
(335,484,cs),
(395,484,o),
(425,445,o),
(415,377,cs),
(407,321,ls),
(397,253,o),
(357,214,o),
(297,214,cs)
);
}
);
width = 615;
},
{
hints = (
{
horizontal = 1;
place = (117,74);
type = Stem;
},
{
horizontal = 1;
place = (507,74);
type = Stem;
}
);
layerId = "38727D70-1DA2-45B2-A346-FCEACAA78F51";
shapes = (
{
closed = 1;
nodes = (
(338,117,o),
(385,131,o),
(423,159,c),
(507,59,l),
(569,112,l),
(481,215,l),
(507,252,o),
(524,297,o),
(531,349,cs),
(538,401,o),
(534,446,o),
(519,483,c),
(635,586,l),
(589,639,l),
(477,539,l),
(447,567,o),
(403,581,o),
(349,581,cs),
(294,581,o),
(247,567,o),
(209,539,c),
(125,639,l),
(64,586,l),
(151,483,l),
(125,446,o),
(108,401,o),
(101,349,cs),
(94,297,o),
(99,252,o),
(114,215,c),
(-3,112,l),
(44,59,l),
(156,159,l),
(186,131,o),
(229,117,o),
(284,117,cs)
);
},
{
closed = 1;
nodes = (
(221,191,o),
(180,234,o),
(192,318,cs),
(201,380,ls),
(213,464,o),
(265,507,o),
(339,507,cs),
(411,507,o),
(453,464,o),
(441,380,cs),
(432,318,ls),
(420,234,o),
(367,191,o),
(295,191,cs)
);
}
);
width = 615;
},
{
hints = (
{
horizontal = 1;
place = (129,19);
type = Stem;
},
{
horizontal = 1;
place = (550,19);
type = Stem;
}
);
layerId = "7766A055-9583-43BA-9BBE-7DA8199C50F9";
shapes = (
{
closed = 1;
nodes = (
(347,129,o),
(399,150,o),
(437,189,c),
(529,78,l),
(546,93,l),
(452,206,l),
(479,241,o),
(498,289,o),
(506,349,cs),
(514,409,o),
(510,459,o),
(492,492,c),
(618,605,l),
(605,620,l),
(482,509,l),
(455,548,o),
(409,569,o),
(347,569,cs),
(285,569,o),
(234,548,o),
(196,509,c),
(104,620,l),
(87,605,l),
(181,492,l),
(156,459,o),
(135,409,o),
(127,349,cs),
(119,289,o),
(124,241,o),
(140,206,c),
(15,93,l),
(27,78,l),
(151,189,l),
(178,150,o),
(223,129,o),
(285,129,cs)
);
},
{
closed = 1;
nodes = (
(182,148,o),
(132,217,o),
(147,326,cs),
(153,372,ls),
(169,483,o),
(239,550,o),
(345,550,cs),
(451,550,o),
(502,483,o),
(486,372,cs),
(480,326,ls),
(465,217,o),
(394,148,o),
(288,148,cs)
);
}
);
width = 615;
}
);
unicode = 164;
}
{
glyphname = yen;
layers = (
{
hints = (
{
horizontal = 1;
place = (0,21);
target = up;
type = BottomGhost;
},
{
horizontal = 1;
place = (133,90);
type = Stem;
},
{
horizontal = 1;
place = (291,90);
type = Stem;
}
);
layerId = "C5FC3DAF-4290-4CD4-AD90-77B56B79BFFD";
shapes = (
{
closed = 1;
nodes = (
(535,223,l),
(371,223,l),
(380,291,l),
(545,291,l),
(557,381,l),
(450,381,l),
(665,698,l),
(505,698,l),
(332,423,l),
(330,423,l),
(234,698,l),
(65,698,l),
(186,381,l),
(78,381,l),
(66,291,l),
(230,291,l),
(221,223,l),
(56,223,l),
(43,133,l),
(208,133,l),
(189,0,l),
(339,0,l),
(358,133,l),
(523,133,l)
);
}
);
width = 614;
},
{
hints = (
{
horizontal = 1;
place = (0,21);
target = up;
type = BottomGhost;
},
{
horizontal = 1;
place = (143,71);
type = Stem;
},
{
horizontal = 1;
place = (305,71);
type = Stem;
}
);
layerId = "38727D70-1DA2-45B2-A346-FCEACAA78F51";
shapes = (
{
closed = 1;
nodes = (
(514,214,l),
(343,214,l),
(356,305,l),
(527,305,l),
(537,376,l),
(409,376,l),
(634,698,l),
(530,698,l),
(327,391,l),
(323,391,l),
(201,698,l),
(94,698,l),
(229,376,l),
(101,376,l),
(91,305,l),
(262,305,l),
(249,214,l),
(78,214,l),
(68,143,l),
(239,143,l),
(219,0,l),
(313,0,l),
(333,143,l),
(504,143,l)
);
}
);
width = 614;
},
{
hints = (
{
horizontal = 1;
place = (0,21);
target = up;
type = BottomGhost;
},
{
horizontal = 1;
place = (168,19);
type = Stem;
},
{
horizontal = 1;
place = (325,19);
type = Stem;
}
);
layerId = "7766A055-9583-43BA-9BBE-7DA8199C50F9";
shapes = (
{
closed = 1;
nodes = (
(498,187,l),
(304,187,l),
(324,325,l),
(518,325,l),
(520,344,l),
(338,344,l),
(603,698,l),
(579,698,l),
(318,348,l),
(315,348,l),
(153,698,l),
(128,698,l),
(293,344,l),
(111,344,l),
(108,325,l),
(302,325,l),
(283,187,l),
(89,187,l),
(86,168,l),
(280,168,l),
(257,0,l),
(278,0,l),
(302,168,l),
(496,168,l)
);
}
);
width = 614;
}
);
unicode = 165;
}
{
glyphname = brokenbar;
layers = (
{
hints = (
{
place = (43,250);
type = Stem;
}
);
layerId = "C5FC3DAF-4290-4CD4-AD90-77B56B79BFFD";
shapes = (
{
closed = 1;
nodes = (
(293,760,l),
(170,760,l),
(119,401,l),
(243,401,l)
);
},
{
closed = 1;
nodes = (
(217,221,l),
(94,221,l),
(43,-138,l),
(167,-138,l)
);
}
);
width = 331;
},
{
hints = (
{
place = (67,204);
type = Stem;
}
);
layerId = "38727D70-1DA2-45B2-A346-FCEACAA78F51";
shapes = (
{
closed = 1;
nodes = (
(271,760,l),
(193,760,l),
(144,405,l),
(221,405,l)
);
},
{
closed = 1;
nodes = (
(195,217,l),
(117,217,l),
(67,-138,l),
(145,-138,l)
);
}
);
width = 331;
},
{
hints = (
{
place = (96,145);
type = Stem;
}
);
layerId = "7766A055-9583-43BA-9BBE-7DA8199C50F9";
shapes = (
{
closed = 1;
nodes = (
(241,760,l),
(222,760,l),
(171,401,l),
(191,401,l)
);
},
{
closed = 1;
nodes = (
(166,221,l),
(146,221,l),
(96,-138,l),
(115,-138,l)
);
}
);
width = 331;
}
);
unicode = 166;
}
{
glyphname = section;
layers = (
{
hints = (
{
horizontal = 1;
place = (-161,105);
type = Stem;
},
{
horizontal = 1;
place = (-1,-20);
target = down;
type = TopGhost;
},
{
horizontal = 1;
place = (605,105);
type = Stem;
}
);
layerId = "C5FC3DAF-4290-4CD4-AD90-77B56B79BFFD";
shapes = (
{
closed = 1;
nodes = (
(462,76,o),
(439,122,o),
(397,153,c),
(399,169,l),
(477,200,o),
(517,250,o),
(525,307,cs),
(531,347,o),
(519,386,o),
(480,418,cs),
(461,434,o),
(434,447,o),
(398,457,cs),
(325,478,ls),
(287,489,o),
(264,500,o),
(255,517,c),
(249,525,o),
(248,535,o),
(250,546,cs),
(256,589,o),
(295,605,o),
(345,605,cs),
(403,605,o),
(437,585,o),
(466,550,c),
(550,638,l),
(502,693,o),
(433,710,o),
(363,710,cs),
(281,710,o),
(211,684,o),
(168,634,cs),
(146,609,o),
(132,578,o),
(127,541,cs),
(118,480,o),
(141,433,o),
(183,402,c),
(181,385,l),
(105,354,o),
(65,304,o),
(57,247,cs),
(52,208,o),
(62,170,o),
(101,139,cs),
(120,123,o),
(148,110,o),
(183,99,cs),
(255,78,ls),
(293,67,o),
(316,55,o),
(326,39,cs),
(331,30,o),
(333,20,o),
(331,7,cs),
(325,-34,o),
(287,-56,o),
(233,-56,cs),
(182,-56,o),
(143,-36,o),
(114,-1,c),
(31,-89,l),
(79,-142,o),
(148,-161,o),
(216,-161,cs),
(299,-161,o),
(369,-132,o),
(413,-80,cs),
(434,-54,o),
(448,-23,o),
(453,13,cs)
);
},
{
closed = 1;
nodes = (
(394,233,o),
(378,206,o),
(352,179,c),
(342,183,o),
(331,187,o),
(321,190,cs),
(249,211,l),
(189,230,o),
(177,259,o),
(182,292,cs),
(186,323,o),
(204,351,o),
(230,376,c),
(240,372,o),
(250,369,o),
(260,366,cs),
(331,345,ls),
(371,333,o),
(391,315,o),
(397,295,c),
(399,284,o),
(400,273,o),
(398,262,cs)
);
}
);
width = 583;
},
{
hints = (
{
horizontal = 1;
place = (-156,76);
type = Stem;
},
{
horizontal = 1;
place = (634,76);
type = Stem;
}
);
layerId = "38727D70-1DA2-45B2-A346-FCEACAA78F51";
shapes = (
{
closed = 1;
nodes = (
(442,63,o),
(422,109,o),
(379,138,c),
(381,146,l),
(456,175,o),
(499,225,o),
(508,288,cs),
(514,333,o),
(500,371,o),
(461,402,cs),
(441,417,o),
(414,430,o),
(379,441,cs),
(318,460,ls),
(278,473,o),
(250,488,o),
(238,511,cs),
(232,522,o),
(230,536,o),
(232,552,cs),
(239,604,o),
(286,634,o),
(353,634,cs),
(404,634,o),
(441,617,o),
(468,589,c),
(528,651,l),
(486,694,o),
(426,710,o),
(366,710,cs),
(288,710,o),
(222,683,o),
(183,635,cs),
(163,611,o),
(151,583,o),
(146,550,cs),
(138,491,o),
(161,448,o),
(201,417,c),
(200,408,l),
(126,380,o),
(82,329,o),
(73,266,cs),
(67,223,o),
(81,185,o),
(121,154,cs),
(141,138,o),
(168,125,o),
(201,114,cs),
(263,95,ls),
(304,82,o),
(331,67,o),
(343,44,cs),
(349,33,o),
(351,19,o),
(349,3,cs),
(342,-48,o),
(296,-80,o),
(226,-80,cs),
(178,-80,o),
(139,-63,o),
(112,-35,c),
(53,-97,l),
(94,-140,o),
(155,-156,o),
(215,-156,cs),
(293,-156,o),
(359,-129,o),
(398,-81,cs),
(418,-56,o),
(429,-27,o),
(434,6,cs)
);
},
{
closed = 1;
nodes = (
(413,219,o),
(385,186,o),
(345,157,c),
(337,161,o),
(325,165,o),
(315,168,cs),
(254,186,ls),
(182,207,o),
(155,240,o),
(162,292,cs),
(168,336,o),
(196,370,o),
(236,398,c),
(246,394,o),
(255,390,o),
(265,387,cs),
(326,369,l),
(375,356,o),
(403,336,o),
(414,309,cs),
(419,296,o),
(421,280,o),
(419,263,cs)
);
}
);
width = 583;
},
{
hints = (
{
horizontal = 1;
place = (-154,19);
type = Stem;
},
{
horizontal = 1;
place = (691,19);
type = Stem;
}
);
layerId = "7766A055-9583-43BA-9BBE-7DA8199C50F9";
shapes = (
{
closed = 1;
nodes = (
(414,39,o),
(393,79,o),
(351,107,c),
(351,110,l),
(420,137,o),
(469,184,o),
(480,260,cs),
(489,321,o),
(470,358,o),
(432,385,cs),
(413,398,o),
(389,410,o),
(361,419,c),
(299,441,ls),
(259,456,o),
(222,474,o),
(204,507,c),
(194,523,o),
(191,544,o),
(195,569,cs),
(206,649,o),
(269,691,o),
(360,691,cs),
(427,691,o),
(466,668,o),
(492,639,c),
(507,654,l),
(479,686,o),
(438,710,o),
(364,710,cs),
(301,710,o),
(245,690,o),
(209,649,cs),
(190,628,o),
(180,602,o),
(175,569,cs),
(168,517,o),
(188,477,o),
(230,449,c),
(230,446,l),
(161,421,o),
(112,372,o),
(101,296,cs),
(93,236,o),
(111,198,o),
(150,172,cs),
(169,159,o),
(193,147,o),
(220,137,cs),
(282,115,l),
(323,102,o),
(359,82,o),
(378,50,c),
(386,33,o),
(390,12,o),
(386,-13,cs),
(375,-93,o),
(314,-135,o),
(221,-135,cs),
(154,-135,o),
(115,-112,o),
(89,-83,c),
(74,-98,l),
(102,-130,o),
(145,-154,o),
(217,-154,cs),
(280,-154,o),
(336,-135,o),
(373,-93,cs),
(391,-72,o),
(403,-45,o),
(407,-13,cs)
);
},
{
closed = 1;
nodes = (
(449,188,o),
(402,144,o),
(334,116,c),
(319,123,o),
(307,129,o),
(292,134,cs),
(230,155,ls),
(150,182,o),
(111,218,o),
(122,297,cs),
(132,368,o),
(179,412,o),
(247,440,c),
(262,433,o),
(274,427,o),
(289,422,cs),
(351,401,ls),
(404,384,o),
(439,361,o),
(454,326,cs),
(461,308,o),
(463,286,o),
(459,259,cs)
);
}
);
width = 583;
}
);
unicode = 167;
}
{
glyphname = copyright;
layers = (
{
hints = (
{
horizontal = 1;
place = (-12,64);
type = Stem;
},
{
horizontal = 1;
place = (134,103);
type = Stem;
},
{
horizontal = 1;
place = (461,103);
type = Stem;
},
{
horizontal = 1;
place = (646,64);
type = Stem;
}
);
layerId = "C5FC3DAF-4290-4CD4-AD90-77B56B79BFFD";
shapes = (
{
closed = 1;
nodes = (
(481,-12,o),
(595,49,o),
(669,157,cs),
(705,211,o),
(729,275,o),
(739,349,cs),
(760,498,o),
(714,607,o),
(620,666,cs),
(572,695,o),
(516,710,o),
(449,710,cs),
(317,710,o),
(202,649,o),
(129,542,cs),
(92,488,o),
(68,424,o),
(57,349,cs),
(36,201,o),
(82,91,o),
(177,32,cs),
(225,3,o),
(282,-12,o),
(348,-12,cs)
);
},
{
closed = 1;
nodes = (
(254,52,o),
(177,102,o),
(142,182,cs),
(124,221,o),
(118,266,o),
(125,315,cs),
(135,383,ls),
(149,482,o),
(209,564,o),
(297,611,cs),
(340,634,o),
(388,646,o),
(440,646,cs),
(545,646,o),
(620,596,o),
(656,517,c),
(673,477,o),
(679,432,o),
(672,383,cs),
(662,315,ls),
(648,216,o),
(588,134,o),
(501,87,cs),
(458,64,o),
(409,52,o),
(357,52,cs)
);
},
{
closed = 1;
nodes = (
(427,134,o),
(469,145,o),
(501,168,cs),
(533,191,o),
(558,217,o),
(576,248,c),
(484,295,l),
(463,262,o),
(433,237,o),
(390,237,cs),
(347,237,o),
(324,265,o),
(330,309,cs),
(341,389,ls),
(347,433,o),
(378,461,o),
(421,461,cs),
(464,461,o),
(481,438,o),
(492,403,c),
(597,451,l),
(580,518,o),
(530,564,o),
(435,564,cs),
(371,564,o),
(320,545,o),
(278,506,cs),
(236,467,o),
(210,414,o),
(201,349,cs),
(192,284,o),
(203,232,o),
(234,193,cs),
(265,154,o),
(311,134,o),
(375,134,cs)
);
}
);
width = 779;
},
{
hints = (
{
horizontal = 1;
place = (-11,61);
type = Stem;
},
{
horizontal = 1;
place = (151,70);
type = Stem;
},
{
horizontal = 1;
place = (476,71);
type = Stem;
},
{
horizontal = 1;
place = (648,61);
type = Stem;
}
);
layerId = "38727D70-1DA2-45B2-A346-FCEACAA78F51";
shapes = (
{
closed = 1;
nodes = (
(472,-11,o),
(584,50,o),
(658,158,cs),
(694,211,o),
(718,275,o),
(728,349,cs),
(749,497,o),
(702,608,o),
(611,666,cs),
(565,695,o),
(511,709,o),
(449,709,cs),
(325,709,o),
(212,649,o),
(139,541,cs),
(102,487,o),
(78,423,o),
(68,349,cs),
(47,201,o),
(95,92,o),
(187,33,cs),
(233,4,o),
(286,-11,o),
(348,-11,cs)
);
},
{
closed = 1;
nodes = (
(254,50,o),
(181,100,o),
(147,181,cs),
(130,221,o),
(125,267,o),
(132,318,cs),
(140,380,ls),
(154,483,o),
(214,566,o),
(299,613,cs),
(341,636,o),
(389,648,o),
(441,648,cs),
(543,648,o),
(617,598,o),
(651,518,cs),
(668,477,o),
(672,431,o),
(665,380,cs),
(656,318,ls),
(642,215,o),
(582,132,o),
(497,85,cs),
(455,62,o),
(408,50,o),
(357,50,cs)
);
},
{
closed = 1;
nodes = (
(416,151,o),
(447,160,o),
(474,178,cs),
(500,195,o),
(521,217,o),
(537,244,c),
(480,280,l),
(455,245,o),
(430,221,o),
(387,221,cs),
(333,221,o),
(309,260,o),
(317,315,cs),
(327,383,ls),
(335,438,o),
(369,476,o),
(423,476,cs),
(462,476,o),
(481,455,o),
(491,420,c),
(559,455,l),
(544,510,o),
(505,547,o),
(433,547,cs),
(380,547,o),
(336,529,o),
(301,494,cs),
(266,458,o),
(245,410,o),
(236,349,cs),
(228,289,o),
(236,241,o),
(261,205,cs),
(286,169,o),
(325,151,o),
(378,151,cs)
);
}
);
width = 779;
},
{
hints = (
{
horizontal = 1;
place = (-12,18);
type = Stem;
},
{
horizontal = 1;
place = (149,17);
type = Stem;
},
{
horizontal = 1;
place = (526,17);
type = Stem;
},
{
horizontal = 1;
place = (692,18);
type = Stem;
},
{
place = (28,22);
type = Stem;
},
{
place = (197,20);
type = Stem;
},
{
place = (648,22);
type = Stem;
}
);
layerId = "7766A055-9583-43BA-9BBE-7DA8199C50F9";
shapes = (
{
closed = 1;
nodes = (
(476,-12,o),
(574,50,o),
(629,159,cs),
(656,213,o),
(670,276,o),
(670,349,cs),
(670,496,o),
(612,606,o),
(516,666,cs),
(468,695,o),
(412,710,o),
(349,710,cs),
(224,710,o),
(124,648,o),
(69,540,cs),
(42,486,o),
(28,422,o),
(28,349,cs),
(28,204,o),
(86,92,o),
(183,33,cs),
(231,3,o),
(286,-12,o),
(349,-12,cs)
);
},
{
closed = 1;
nodes = (
(230,6,o),
(138,66,o),
(88,163,cs),
(63,212,o),
(50,266,o),
(50,327,cs),
(50,371,ls),
(50,494,o),
(103,594,o),
(192,650,cs),
(237,678,o),
(289,692,o),
(349,692,cs),
(469,692,o),
(561,632,o),
(611,536,cs),
(636,487,o),
(648,432,o),
(648,371,cs),
(648,327,ls),
(648,206,o),
(595,104,o),
(506,48,cs),
(461,20,o),
(409,6,o),
(349,6,cs)
);
},
{
closed = 1;
nodes = (
(378,149,o),
(405,157,o),
(428,172,cs),
(450,187,o),
(466,206,o),
(475,229,c),
(460,236,l),
(441,193,o),
(402,166,o),
(347,166,cs),
(270,166,o),
(217,220,o),
(217,336,cs),
(217,356,ls),
(217,468,o),
(269,526,o),
(348,526,cs),
(403,526,o),
(438,500,o),
(455,457,c),
(471,462,l),
(455,509,o),
(413,543,o),
(348,543,cs),
(303,543,o),
(266,526,o),
(239,493,cs),
(211,460,o),
(197,411,o),
(197,346,cs),
(197,281,o),
(211,232,o),
(238,199,cs),
(265,166,o),
(301,149,o),
(346,149,cs)
);
}
);
width = 779;
}
);
unicode = 169;
}
{
glyphname = ordfeminine;
layers = (
{
hints = (
{
horizontal = 1;
place = (324,68);
type = Stem;
},
{
horizontal = 1;
place = (488,56);
type = Stem;
},
{
horizontal = 1;
place = (628,76);
type = Stem;
},
{
place = (265,83);
type = Stem;
}
);
layerId = "C5FC3DAF-4290-4CD4-AD90-77B56B79BFFD";
shapes = (
{
closed = 1;
nodes = (
(382,567,ls),
(395,656,o),
(344,704,o),
(251,704,cs),
(174,704,o),
(120,676,o),
(91,633,c),
(139,583,l),
(161,610,o),
(188,628,o),
(229,628,cs),
(274,628,o),
(286,607,o),
(280,563,cs),
(277,544,l),
(223,544,ls),
(123,544,o),
(65,508,o),
(54,433,cs),
(44,364,o),
(82,324,o),
(148,324,cs),
(201,324,o),
(243,349,o),
(262,394,c),
(295,394,l),
(269,424,l),
(265,330,l),
(348,330,l)
);
},
{
closed = 1;
nodes = (
(263,444,ls),
(258,409,o),
(231,392,o),
(197,392,cs),
(166,392,o),
(147,404,o),
(151,431,cs),
(153,445,ls),
(157,473,o),
(181,488,o),
(219,488,cs),
(270,488,l)
);
}
);
width = 409;
},
{
hints = (
{
horizontal = 1;
place = (340,54);
type = Stem;
},
{
horizontal = 1;
place = (498,48);
type = Stem;
},
{
horizontal = 1;
place = (647,57);
type = Stem;
},
{
place = (280,57);
type = Stem;
}
);
layerId = "38727D70-1DA2-45B2-A346-FCEACAA78F51";
shapes = (
{
closed = 1;
nodes = (
(369,575,ls),
(381,658,o),
(335,704,o),
(253,704,cs),
(181,704,o),
(133,670,o),
(109,634,c),
(147,597,l),
(166,626,o),
(198,647,o),
(241,647,cs),
(287,647,o),
(307,624,o),
(300,572,cs),
(296,546,l),
(230,546,ls),
(138,546,o),
(80,512,o),
(70,440,cs),
(62,381,o),
(96,340,o),
(162,340,cs),
(220,340,o),
(259,368,o),
(278,401,c),
(302,401,l),
(283,422,l),
(280,346,l),
(337,346,l)
);
},
{
closed = 1;
nodes = (
(283,456,ls),
(278,419,o),
(234,394,o),
(188,394,cs),
(152,394,o),
(134,409,o),
(138,441,c),
(140,451,l),
(144,482,o),
(174,498,o),
(223,498,cs),
(289,498,l)
);
}
);
width = 409;
},
{
hints = (
{
horizontal = 1;
place = (360,17);
type = Stem;
},
{
horizontal = 1;
place = (525,17);
type = Stem;
},
{
horizontal = 1;
place = (687,17);
type = Stem;
},
{
place = (97,254);
type = Stem;
}
);
layerId = "7766A055-9583-43BA-9BBE-7DA8199C50F9";
shapes = (
{
closed = 1;
nodes = (
(351,601,ls),
(360,666,o),
(324,704,o),
(252,704,cs),
(195,704,o),
(157,678,o),
(133,637,c),
(146,629,l),
(170,670,o),
(208,687,o),
(250,687,cs),
(310,687,o),
(340,658,o),
(332,598,cs),
(324,542,l),
(232,542,ls),
(143,542,o),
(105,505,o),
(97,449,cs),
(90,396,o),
(121,360,o),
(189,360,cs),
(250,360,o),
(287,387,o),
(305,415,c),
(316,415,l),
(308,425,l),
(300,366,l),
(318,366,l)
);
},
{
closed = 1;
nodes = (
(313,461,ls),
(305,404,o),
(251,377,o),
(192,377,cs),
(141,377,o),
(111,400,o),
(117,443,c),
(118,456,l),
(124,499,o),
(155,525,o),
(229,525,cs),
(322,525,l)
);
}
);
width = 409;
}
);
unicode = 170;
}
{
glyphname = guillemotleft;
layers = (
{
layerId = "C5FC3DAF-4290-4CD4-AD90-77B56B79BFFD";
shapes = (
{
closed = 1;
nodes = (
(131,271,l),
(131,273,l),
(266,403,l),
(237,495,l),
(32,335,l),
(15,209,l),
(174,49,l),
(229,141,l)
);
},
{
closed = 1;
nodes = (
(367,271,l),
(368,273,l),
(502,403,l),
(473,495,l),
(268,335,l),
(251,209,l),
(411,49,l),
(466,141,l)
);
}
);
width = 522;
},
{
layerId = "38727D70-1DA2-45B2-A346-FCEACAA78F51";
shapes = (
{
closed = 1;
nodes = (
(125,281,l),
(125,283,l),
(276,428,l),
(257,489,l),
(46,324,l),
(34,239,l),
(198,74,l),
(234,135,l)
);
},
{
closed = 1;
nodes = (
(335,281,l),
(336,283,l),
(486,428,l),
(467,489,l),
(257,324,l),
(245,239,l),
(409,74,l),
(445,135,l)
);
}
);
width = 522;
},
{
layerId = "7766A055-9583-43BA-9BBE-7DA8199C50F9";
shapes = (
{
closed = 1;
nodes = (
(88,293,l),
(89,295,l),
(292,467,l),
(285,482,l),
(66,304,l),
(64,284,l),
(233,106,l),
(244,121,l)
);
},
{
closed = 1;
nodes = (
(265,293,l),
(265,295,l),
(469,467,l),
(462,482,l),
(243,304,l),
(240,284,l),
(409,106,l),
(420,121,l)
);
}
);
width = 522;
}
);
leftKerningGroup = guillemotleft2;
rightKerningGroup = guillemotleft;
unicode = 171;
}
{
glyphname = logicalnot;
layers = (
{
hints = (
{
horizontal = 1;
place = (247,118);
type = Stem;
},
{
place = (372,121);
type = Stem;
}
);
layerId = "0AD2E2E0-FC0D-4C67-836B-444215FA4DDA";
shapes = (
{
closed = 1;
nodes = (
(493,365,l),
(12,365,l),
(12,247,l),
(372,247,l),
(372,78,l),
(493,78,l)
);
}
);
width = 600;
},
{
hints = (
{
horizontal = 1;
place = (266,78);
type = Stem;
}
);
layerId = "E22AC71D-DB87-48BC-8161-A09275C341BE";
shapes = (
{
closed = 1;
nodes = (
(537,344,l),
(78,344,l),
(67,266,l),
(449,266,l),
(422,78,l),
(500,78,l)
);
}
);
width = 600;
},
{
hints = (
{
horizontal = 1;
place = (296,19);
type = Stem;
},
{
place = (461,21);
type = Stem;
}
);
layerId = "CC8B04B6-4F30-41C2-BC1D-B124A9E292F1";
shapes = (
{
closed = 1;
nodes = (
(482,315,l),
(22,315,l),
(22,296,l),
(461,296,l),
(461,104,l),
(482,104,l)
);
}
);
width = 600;
}
);
unicode = 172;
}
{
glyphname = registered;
layers = (
{
hints = (
{
horizontal = 1;
place = (298,47);
type = Stem;
},
{
horizontal = 1;
place = (461,47);
type = Stem;
},
{
horizontal = 1;
place = (561,48);
type = Stem;
},
{
horizontal = 1;
place = (663,47);
type = Stem;
}
);
layerId = "C5FC3DAF-4290-4CD4-AD90-77B56B79BFFD";
shapes = (
{
closed = 1;
nodes = (
(314,298,o),
(381,337,o),
(425,399,cs),
(447,430,o),
(462,465,o),
(467,504,cs),
(478,583,o),
(449,647,o),
(395,683,cs),
(367,701,o),
(335,710,o),
(298,710,cs),
(224,710,o),
(156,672,o),
(112,610,cs),
(90,579,o),
(76,543,o),
(71,504,cs),
(60,425,o),
(89,361,o),
(144,325,cs),
(172,307,o),
(204,298,o),
(240,298,cs)
);
},
{
closed = 1;
nodes = (
(194,345,o),
(151,368,o),
(131,411,c),
(120,432,o),
(117,458,o),
(121,488,cs),
(126,520,ls),
(134,580,o),
(170,623,o),
(217,646,cs),
(240,657,o),
(265,663,o),
(291,663,cs),
(343,663,o),
(386,640,o),
(407,597,cs),
(417,576,o),
(420,550,o),
(416,520,cs),
(411,488,ls),
(403,428,o),
(367,385,o),
(321,362,c),
(297,351,o),
(272,345,o),
(246,345,cs)
);
},
{
closed = 1;
nodes = (
(263,461,l),
(285,400,l),
(353,400,l),
(321,473,l),
(345,484,o),
(362,506,o),
(367,539,cs),
(373,579,o),
(353,609,o),
(298,609,cs),
(198,609,l),
(169,400,l),
(231,400,l),
(240,461,l)
);
},
{
closed = 1;
nodes = (
(254,561,l),
(279,561,ls),
(298,561,o),
(305,554,o),
(303,538,cs),
(302,531,ls),
(300,515,o),
(290,508,o),
(271,508,cs),
(247,508,l)
);
}
);
width = 474;
},
{
hints = (
{
horizontal = 1;
place = (298,41);
type = Stem;
},
{
horizontal = 1;
place = (473,35);
type = Stem;
},
{
horizontal = 1;
place = (570,36);
type = Stem;
},
{
horizontal = 1;
place = (669,41);
type = Stem;
}
);
layerId = "38727D70-1DA2-45B2-A346-FCEACAA78F51";
shapes = (
{
closed = 1;
nodes = (
(310,298,o),
(378,336,o),
(422,399,cs),
(444,430,o),
(458,465,o),
(463,504,cs),
(474,583,o),
(446,647,o),
(392,683,cs),
(364,701,o),
(332,710,o),
(297,710,cs),
(225,710,o),
(159,672,o),
(115,610,cs),
(93,579,o),
(78,543,o),
(73,504,cs),
(62,427,o),
(91,361,o),
(145,325,cs),
(172,307,o),
(203,298,o),
(239,298,cs)
);
},
{
closed = 1;
nodes = (
(187,339,o),
(145,369,o),
(125,416,cs),
(115,439,o),
(112,465,o),
(116,492,cs),
(119,516,ls),
(127,571,o),
(161,620,o),
(211,648,cs),
(236,662,o),
(264,669,o),
(292,669,cs),
(351,669,o),
(391,639,o),
(412,592,cs),
(422,569,o),
(425,543,o),
(421,516,cs),
(418,492,ls),
(410,437,o),
(374,388,o),
(326,360,cs),
(301,346,o),
(274,339,o),
(245,339,cs)
);
},
{
closed = 1;
nodes = (
(264,473,l),
(295,397,l),
(343,397,l),
(307,479,l),
(331,490,o),
(350,509,o),
(354,541,cs),
(359,580,o),
(339,606,o),
(297,606,cs),
(207,606,l),
(178,397,l),
(221,397,l),
(232,473,l)
);
},
{
closed = 1;
nodes = (
(245,570,l),
(288,570,ls),
(303,570,o),
(311,562,o),
(309,549,cs),
(306,529,ls),
(304,516,o),
(295,508,o),
(280,508,cs),
(237,508,l)
);
}
);
width = 474;
},
{
hints = (
{
horizontal = 1;
place = (298,16);
type = Stem;
},
{
horizontal = 1;
place = (488,15);
type = Stem;
},
{
horizontal = 1;
place = (594,15);
type = Stem;
},
{
horizontal = 1;
place = (694,16);
type = Stem;
},
{
place = (-1,19);
type = Stem;
},
{
place = (132,16);
type = Stem;
},
{
place = (258,18);
type = Stem;
},
{
place = (376,19);
type = Stem;
}
);
layerId = "7766A055-9583-43BA-9BBE-7DA8199C50F9";
shapes = (
{
closed = 1;
nodes = (
(274,298,o),
(336,335,o),
(370,397,cs),
(387,428,o),
(395,463,o),
(395,504,cs),
(395,585,o),
(359,649,o),
(300,684,cs),
(270,701,o),
(236,710,o),
(197,710,cs),
(121,710,o),
(59,674,o),
(25,612,cs),
(8,581,o),
(-1,545,o),
(-1,504,cs),
(-1,423,o),
(35,359,o),
(95,324,cs),
(125,307,o),
(159,298,o),
(197,298,cs)
);
},
{
closed = 1;
nodes = (
(129,314,o),
(73,348,o),
(42,402,cs),
(26,429,o),
(18,459,o),
(18,494,cs),
(18,514,ls),
(18,583,o),
(52,639,o),
(106,671,c),
(133,686,o),
(163,694,o),
(197,694,cs),
(266,694,o),
(321,661,o),
(353,607,c),
(368,580,o),
(376,549,o),
(376,514,cs),
(376,494,ls),
(376,425,o),
(342,369,o),
(289,338,cs),
(262,322,o),
(232,314,o),
(197,314,cs)
);
},
{
closed = 1;
nodes = (
(211,488,l),
(263,397,l),
(282,397,l),
(228,489,l),
(256,490,o),
(276,511,o),
(276,547,cs),
(276,591,o),
(252,609,o),
(213,609,cs),
(132,609,l),
(132,397,l),
(148,397,l),
(148,488,l)
);
},
{
closed = 1;
nodes = (
(148,594,l),
(212,594,ls),
(245,594,o),
(258,583,o),
(258,552,cs),
(258,545,ls),
(258,516,o),
(245,503,o),
(212,503,cs),
(148,503,l)
);
}
);
width = 474;
}
);
unicode = 174;
}
